<?xml version="1.0" encoding="UTF-8" standalone="no"?>
<!DOCTYPE svg PUBLIC "-//W3C//DTD SVG 1.1//EN"
 "http://www.w3.org/Graphics/SVG/1.1/DTD/svg11.dtd">
<!-- Generated by graphviz version 2.26.3 (20100126.1600)
 -->
<!-- Title: G Pages: 1 -->
<svg width="1074pt" height="1586pt"
 viewBox="0.00 0.00 1074.00 1585.79" xmlns="http://www.w3.org/2000/svg" xmlns:xlink="http://www.w3.org/1999/xlink">
<g id="graph1" class="graph" transform="scale(1 1) rotate(0) translate(4 1581.79)">
<title>G</title>
<polygon fill="white" stroke="white" points="-4,5 -4,-1581.79 1071,-1581.79 1071,5 -4,5"/>
<g id="graph2" class="cluster"><title>cluster_FluxAPI</title>
<polyline fill="none" stroke="gray" points="301,-161.785 888,-161.785 "/>
<path fill="none" stroke="gray" d="M888,-161.785C894,-161.785 900,-167.785 900,-173.785"/>
<polyline fill="none" stroke="gray" points="900,-173.785 900,-1109.79 "/>
<path fill="none" stroke="gray" d="M900,-1109.79C900,-1115.79 894,-1121.79 888,-1121.79"/>
<polyline fill="none" stroke="gray" points="888,-1121.79 301,-1121.79 "/>
<path fill="none" stroke="gray" d="M301,-1121.79C295,-1121.79 289,-1115.79 289,-1109.79"/>
<polyline fill="none" stroke="gray" points="289,-1109.79 289,-173.785 "/>
<path fill="none" stroke="gray" d="M289,-173.785C289,-167.785 295,-161.785 301,-161.785"/>
<text text-anchor="middle" x="594.5" y="-1107.89" font-family="Times Roman,serif" font-size="11.00" fill="gray">FluxAPI</text>
</g>
<g id="graph3" class="cluster"><title>cluster_FluxAPI\Event</title>
<polyline fill="none" stroke="gray" points="780,-973.785 856,-973.785 "/>
<path fill="none" stroke="gray" d="M856,-973.785C862,-973.785 868,-979.785 868,-985.785"/>
<polyline fill="none" stroke="gray" points="868,-985.785 868,-1035.79 "/>
<path fill="none" stroke="gray" d="M868,-1035.79C868,-1041.79 862,-1047.79 856,-1047.79"/>
<polyline fill="none" stroke="gray" points="856,-1047.79 780,-1047.79 "/>
<path fill="none" stroke="gray" d="M780,-1047.79C774,-1047.79 768,-1041.79 768,-1035.79"/>
<polyline fill="none" stroke="gray" points="768,-1035.79 768,-985.785 "/>
<path fill="none" stroke="gray" d="M768,-985.785C768,-979.785 774,-973.785 780,-973.785"/>
<text text-anchor="middle" x="818" y="-1033.89" font-family="Times Roman,serif" font-size="11.00" fill="gray">Event</text>
</g>
<g id="graph4" class="cluster"><title>cluster_FluxAPI\EventListener</title>
<polyline fill="none" stroke="gray" points="770,-891.785 866,-891.785 "/>
<path fill="none" stroke="gray" d="M866,-891.785C872,-891.785 878,-897.785 878,-903.785"/>
<polyline fill="none" stroke="gray" points="878,-903.785 878,-953.785 "/>
<path fill="none" stroke="gray" d="M878,-953.785C878,-959.785 872,-965.785 866,-965.785"/>
<polyline fill="none" stroke="gray" points="866,-965.785 770,-965.785 "/>
<path fill="none" stroke="gray" d="M770,-965.785C764,-965.785 758,-959.785 758,-953.785"/>
<polyline fill="none" stroke="gray" points="758,-953.785 758,-903.785 "/>
<path fill="none" stroke="gray" d="M758,-903.785C758,-897.785 764,-891.785 770,-891.785"/>
<text text-anchor="middle" x="818" y="-951.885" font-family="Times Roman,serif" font-size="11.00" fill="gray">EventListener</text>
</g>
<g id="graph5" class="cluster"><title>cluster_FluxAPI\Factory</title>
<polyline fill="none" stroke="gray" points="756,-539.785 880,-539.785 "/>
<path fill="none" stroke="gray" d="M880,-539.785C886,-539.785 892,-545.785 892,-551.785"/>
<polyline fill="none" stroke="gray" points="892,-551.785 892,-871.785 "/>
<path fill="none" stroke="gray" d="M892,-871.785C892,-877.785 886,-883.785 880,-883.785"/>
<polyline fill="none" stroke="gray" points="880,-883.785 756,-883.785 "/>
<path fill="none" stroke="gray" d="M756,-883.785C750,-883.785 744,-877.785 744,-871.785"/>
<polyline fill="none" stroke="gray" points="744,-871.785 744,-551.785 "/>
<path fill="none" stroke="gray" d="M744,-551.785C744,-545.785 750,-539.785 756,-539.785"/>
<text text-anchor="middle" x="818" y="-869.885" font-family="Times Roman,serif" font-size="11.00" fill="gray">Factory</text>
</g>
<g id="graph6" class="cluster"><title>cluster_Plugins</title>
<polyline fill="none" stroke="gray" points="787,-1129.79 1046,-1129.79 "/>
<path fill="none" stroke="gray" d="M1046,-1129.79C1052,-1129.79 1058,-1135.79 1058,-1141.79"/>
<polyline fill="none" stroke="gray" points="1058,-1141.79 1058,-1557.79 "/>
<path fill="none" stroke="gray" d="M1058,-1557.79C1058,-1563.79 1052,-1569.79 1046,-1569.79"/>
<polyline fill="none" stroke="gray" points="1046,-1569.79 787,-1569.79 "/>
<path fill="none" stroke="gray" d="M787,-1569.79C781,-1569.79 775,-1563.79 775,-1557.79"/>
<polyline fill="none" stroke="gray" points="775,-1557.79 775,-1141.79 "/>
<path fill="none" stroke="gray" d="M775,-1141.79C775,-1135.79 781,-1129.79 787,-1129.79"/>
<text text-anchor="middle" x="916.5" y="-1555.89" font-family="Times Roman,serif" font-size="11.00" fill="gray">Plugins</text>
</g>
<g id="graph7" class="cluster"><title>cluster_Plugins\Core</title>
<polyline fill="none" stroke="gray" points="795,-1137.79 1038,-1137.79 "/>
<path fill="none" stroke="gray" d="M1038,-1137.79C1044,-1137.79 1050,-1143.79 1050,-1149.79"/>
<polyline fill="none" stroke="gray" points="1050,-1149.79 1050,-1527.79 "/>
<path fill="none" stroke="gray" d="M1050,-1527.79C1050,-1533.79 1044,-1539.79 1038,-1539.79"/>
<polyline fill="none" stroke="gray" points="1038,-1539.79 795,-1539.79 "/>
<path fill="none" stroke="gray" d="M795,-1539.79C789,-1539.79 783,-1533.79 783,-1527.79"/>
<polyline fill="none" stroke="gray" points="783,-1527.79 783,-1149.79 "/>
<path fill="none" stroke="gray" d="M783,-1149.79C783,-1143.79 789,-1137.79 795,-1137.79"/>
<text text-anchor="middle" x="916.5" y="-1525.89" font-family="Times Roman,serif" font-size="11.00" fill="gray">Core</text>
</g>
<g id="graph8" class="cluster"><title>cluster_Plugins\Core\Model</title>
<polyline fill="none" stroke="gray" points="960,-1327.79 1030,-1327.79 "/>
<path fill="none" stroke="gray" d="M1030,-1327.79C1036,-1327.79 1042,-1333.79 1042,-1339.79"/>
<polyline fill="none" stroke="gray" points="1042,-1339.79 1042,-1497.79 "/>
<path fill="none" stroke="gray" d="M1042,-1497.79C1042,-1503.79 1036,-1509.79 1030,-1509.79"/>
<polyline fill="none" stroke="gray" points="1030,-1509.79 960,-1509.79 "/>
<path fill="none" stroke="gray" d="M960,-1509.79C954,-1509.79 948,-1503.79 948,-1497.79"/>
<polyline fill="none" stroke="gray" points="948,-1497.79 948,-1339.79 "/>
<path fill="none" stroke="gray" d="M948,-1339.79C948,-1333.79 954,-1327.79 960,-1327.79"/>
<text text-anchor="middle" x="995" y="-1495.89" font-family="Times Roman,serif" font-size="11.00" fill="gray">Model</text>
</g>
<g id="graph9" class="cluster"><title>cluster_Plugins\Core\Storage</title>
<polyline fill="none" stroke="gray" points="972,-1145.79 1018,-1145.79 "/>
<path fill="none" stroke="gray" d="M1018,-1145.79C1024,-1145.79 1030,-1151.79 1030,-1157.79"/>
<polyline fill="none" stroke="gray" points="1030,-1157.79 1030,-1207.79 "/>
<path fill="none" stroke="gray" d="M1030,-1207.79C1030,-1213.79 1024,-1219.79 1018,-1219.79"/>
<polyline fill="none" stroke="gray" points="1018,-1219.79 972,-1219.79 "/>
<path fill="none" stroke="gray" d="M972,-1219.79C966,-1219.79 960,-1213.79 960,-1207.79"/>
<polyline fill="none" stroke="gray" points="960,-1207.79 960,-1157.79 "/>
<path fill="none" stroke="gray" d="M960,-1157.79C960,-1151.79 966,-1145.79 972,-1145.79"/>
<text text-anchor="middle" x="995" y="-1205.89" font-family="Times Roman,serif" font-size="11.00" fill="gray">Storage</text>
</g>
<!-- \\FluxAPI\\Event\\ModelEvent -->
<g id="node3" class="node"><title>\\FluxAPI\\Event\\ModelEvent</title>
<a xlink:href="FluxAPI.Event.ModelEvent.html" xlink:title="ModelEvent" target="_parent">
<polygon fill="none" stroke="black" points="860,-1017.79 776,-1017.79 776,-981.785 860,-981.785 860,-1017.79"/>
<text text-anchor="middle" x="818" y="-996.885" font-family="Courier,monospace" font-size="11.00">ModelEvent</text>
</a>
</g>
<!-- \\Symfony\\Component\\EventDispatcher\\Event -->
<g id="node40" class="node"><title>\\Symfony\\Component\\EventDispatcher\\Event</title>
<ellipse fill="none" stroke="black" cx="340" cy="-135.785" rx="232.138" ry="18.3848"/>
<text text-anchor="middle" x="340" y="-132.185" font-family="Times Roman,serif" font-size="14.00" fill="gray">\Symfony\Component\EventDispatcher\Event</text>
</g>
<!-- \\FluxAPI\\Event\\ModelEvent&#45;&gt;\\Symfony\\Component\\EventDispatcher\\Event -->
<g id="edge18" class="edge"><title>\\FluxAPI\\Event\\ModelEvent&#45;&gt;\\Symfony\\Component\\EventDispatcher\\Event</title>
<path fill="none" stroke="black" d="M775.855,-991.579C763.722,-987.136 751.7,-980.298 744,-969.785 637.049,-823.758 808.884,-284.873 680,-157.785 660.58,-138.636 611.036,-130.428 555.589,-127.763"/>
<polygon fill="none" stroke="black" points="555.681,-124.264 545.543,-127.342 555.387,-131.258 555.681,-124.264"/>
</g>
<!-- \\FluxAPI\\EventListener\\ModelListener -->
<g id="node5" class="node"><title>\\FluxAPI\\EventListener\\ModelListener</title>
<a xlink:href="FluxAPI.EventListener.ModelListener.html" xlink:title="ModelListener" target="_parent">
<polygon fill="none" stroke="black" points="870,-935.785 766,-935.785 766,-899.785 870,-899.785 870,-935.785"/>
<text text-anchor="middle" x="818" y="-914.885" font-family="Courier,monospace" font-size="11.00">ModelListener</text>
</a>
</g>
<!-- \\Symfony\\Component\\EventDispatcher\\EventSubscriberInterface -->
<g id="node48" class="node"><title>\\Symfony\\Component\\EventDispatcher\\EventSubscriberInterface</title>
<ellipse fill="none" stroke="black" cx="340" cy="-81.7853" rx="340.118" ry="18.3848"/>
<text text-anchor="middle" x="340" y="-78.1853" font-family="Times Roman,serif" font-size="14.00" fill="gray">\\Symfony\\Component\\EventDispatcher\\EventSubscriberInterface</text>
</g>
<!-- \\FluxAPI\\EventListener\\ModelListener&#45;&gt;\\Symfony\\Component\\EventDispatcher\\EventSubscriberInterface -->
<g id="edge32" class="edge"><title>\\FluxAPI\\EventListener\\ModelListener&#45;&gt;\\Symfony\\Component\\EventDispatcher\\EventSubscriberInterface</title>
<path fill="none" stroke="black" stroke-dasharray="1,5" d="M765.922,-905.3C757.421,-901.058 749.583,-895.381 744,-887.785 641.136,-747.826 802.988,-231.438 680,-108.785 673.694,-102.496 664.175,-97.3123 652.285,-93.0607"/>
<polygon fill="none" stroke="black" points="653.337,-89.7223 642.745,-89.9884 651.191,-96.3853 653.337,-89.7223"/>
</g>
<!-- \\FluxAPI\\Factory\\ModelFactory -->
<g id="node7" class="node"><title>\\FluxAPI\\Factory\\ModelFactory</title>
<a xlink:href="FluxAPI.Factory.ModelFactory.html" xlink:title="ModelFactory" target="_parent">
<polygon fill="none" stroke="black" points="867,-853.785 769,-853.785 769,-817.785 867,-817.785 867,-853.785"/>
<text text-anchor="middle" x="818" y="-832.885" font-family="Courier,monospace" font-size="11.00">ModelFactory</text>
</a>
</g>
<!-- \\FluxAPI\\Factory\\MethodFactory -->
<g id="node8" class="node"><title>\\FluxAPI\\Factory\\MethodFactory</title>
<a xlink:href="FluxAPI.Factory.MethodFactory.html" xlink:title="MethodFactory" target="_parent">
<polygon fill="none" stroke="black" points="870,-799.785 766,-799.785 766,-763.785 870,-763.785 870,-799.785"/>
<text text-anchor="middle" x="818" y="-778.885" font-family="Courier,monospace" font-size="11.00">MethodFactory</text>
</a>
</g>
<!-- \\FluxAPI\\Factory\\PluginFactory -->
<g id="node9" class="node"><title>\\FluxAPI\\Factory\\PluginFactory</title>
<a xlink:href="FluxAPI.Factory.PluginFactory.html" xlink:title="PluginFactory" target="_parent">
<polygon fill="none" stroke="black" points="870,-745.785 766,-745.785 766,-709.785 870,-709.785 870,-745.785"/>
<text text-anchor="middle" x="818" y="-724.885" font-family="Courier,monospace" font-size="11.00">PluginFactory</text>
</a>
</g>
<!-- \\FluxAPI\\Factory\\PermissionFactory -->
<g id="node10" class="node"><title>\\FluxAPI\\Factory\\PermissionFactory</title>
<a xlink:href="FluxAPI.Factory.PermissionFactory.html" xlink:title="PermissionFactory" target="_parent">
<polygon fill="none" stroke="black" points="883,-691.785 753,-691.785 753,-655.785 883,-655.785 883,-691.785"/>
<text text-anchor="middle" x="818" y="-670.885" font-family="Courier,monospace" font-size="11.00">PermissionFactory</text>
</a>
</g>
<!-- \\FluxAPI\\Factory\\ControllerFactory -->
<g id="node11" class="node"><title>\\FluxAPI\\Factory\\ControllerFactory</title>
<a xlink:href="FluxAPI.Factory.ControllerFactory.html" xlink:title="ControllerFactory" target="_parent">
<polygon fill="none" stroke="black" points="883,-637.785 753,-637.785 753,-601.785 883,-601.785 883,-637.785"/>
<text text-anchor="middle" x="818" y="-616.885" font-family="Courier,monospace" font-size="11.00">ControllerFactory</text>
</a>
</g>
<!-- \\FluxAPI\\Factory\\StorageFactory -->
<g id="node12" class="node"><title>\\FluxAPI\\Factory\\StorageFactory</title>
<a xlink:href="FluxAPI.Factory.StorageFactory.html" xlink:title="StorageFactory" target="_parent">
<polygon fill="none" stroke="black" points="873,-583.785 763,-583.785 763,-547.785 873,-547.785 873,-583.785"/>
<text text-anchor="middle" x="818" y="-562.885" font-family="Courier,monospace" font-size="11.00">StorageFactory</text>
</a>
</g>
<!-- \\Pimple -->
<g id="node36" class="node"><title>\\Pimple</title>
<ellipse fill="none" stroke="black" cx="340" cy="-27.7853" rx="46.8775" ry="18.3848"/>
<text text-anchor="middle" x="340" y="-24.1853" font-family="Times Roman,serif" font-size="14.00" fill="gray">\Pimple</text>
</g>
<!-- \\FluxAPI\\Factory\\StorageFactory&#45;&gt;\\Pimple -->
<g id="edge16" class="edge"><title>\\FluxAPI\\Factory\\StorageFactory&#45;&gt;\\Pimple</title>
<path fill="none" stroke="black" d="M762.357,-557.11C755.374,-553.914 748.956,-549.599 744,-543.785 601.796,-376.989 838.882,-205.78 680,-54.7853 601.599,19.7238 461.985,1.65245 388.424,-14.8175"/>
<polygon fill="none" stroke="black" points="387.446,-11.4513 378.495,-17.121 389.028,-18.2702 387.446,-11.4513"/>
</g>
<!-- \\FluxAPI\\Api -->
<g id="node13" class="node"><title>\\FluxAPI\\Api</title>
<a xlink:href="FluxAPI.Api.html" xlink:title="Api" target="_parent">
<polygon fill="none" stroke="black" points="845,-313.785 791,-313.785 791,-277.785 845,-277.785 845,-313.785"/>
<text text-anchor="middle" x="818" y="-292.885" font-family="Courier,monospace" font-size="11.00">Api</text>
</a>
</g>
<!-- \\FluxAPI\\Api&#45;&gt;\\Pimple -->
<g id="edge12" class="edge"><title>\\FluxAPI\\Api&#45;&gt;\\Pimple</title>
<path fill="none" stroke="black" d="M790.729,-292.004C775.085,-288.484 756.193,-281.723 744,-268.785 675.913,-196.54 757.21,-117.186 680,-54.7853 597.039,12.2635 462.48,-1.67948 390.017,-15.8303"/>
<polygon fill="none" stroke="black" points="388.892,-12.4874 379.79,-17.91 390.287,-19.347 388.892,-12.4874"/>
</g>
<!-- \\FluxAPI\\Model -->
<g id="node14" class="node"><title>\\FluxAPI\\Model</title>
<a xlink:href="FluxAPI.Model.html" xlink:title="«abstract»&lt;br/&gt;Model" target="_parent">
<polygon fill="none" stroke="black" points="382,-1091.79 298,-1091.79 298,-1055.79 382,-1055.79 382,-1091.79"/>
<text text-anchor="start" x="306" y="-1079.22" font-family="Courier,monospace" font-size="11.00">«abstract»</text>
<text text-anchor="start" x="323" y="-1066.02" font-family="Courier,monospace" font-size="11.00">Model</text>
</a>
</g>
<!-- \\FluxAPI\\Storage -->
<g id="node15" class="node"><title>\\FluxAPI\\Storage</title>
<a xlink:href="FluxAPI.Storage.html" xlink:title="«abstract»&lt;br/&gt;Storage" target="_parent">
<polygon fill="none" stroke="black" points="860,-421.785 776,-421.785 776,-385.785 860,-385.785 860,-421.785"/>
<text text-anchor="start" x="784" y="-409.219" font-family="Courier,monospace" font-size="11.00">«abstract»</text>
<text text-anchor="start" x="794" y="-396.019" font-family="Courier,monospace" font-size="11.00">Storage</text>
</a>
</g>
<!-- \\FluxAPI\\Permission -->
<g id="node16" class="node"><title>\\FluxAPI\\Permission</title>
<a xlink:href="FluxAPI.Permission.html" xlink:title="«abstract»&lt;br/&gt;Permission" target="_parent">
<polygon fill="none" stroke="black" points="860,-475.785 776,-475.785 776,-439.785 860,-439.785 860,-475.785"/>
<text text-anchor="start" x="784" y="-463.219" font-family="Courier,monospace" font-size="11.00">«abstract»</text>
<text text-anchor="start" x="784" y="-450.019" font-family="Courier,monospace" font-size="11.00">Permission</text>
</a>
</g>
<!-- \\FluxAPI\\Plugin -->
<g id="node17" class="node"><title>\\FluxAPI\\Plugin</title>
<a xlink:href="FluxAPI.Plugin.html" xlink:title="«abstract»&lt;br/&gt;Plugin" target="_parent">
<polygon fill="none" stroke="black" points="860,-529.785 776,-529.785 776,-493.785 860,-493.785 860,-529.785"/>
<text text-anchor="start" x="784" y="-517.219" font-family="Courier,monospace" font-size="11.00">«abstract»</text>
<text text-anchor="start" x="797.5" y="-504.019" font-family="Courier,monospace" font-size="11.00">Plugin</text>
</a>
</g>
<!-- \\FluxAPI\\Query -->
<g id="node18" class="node"><title>\\FluxAPI\\Query</title>
<a xlink:href="FluxAPI.Query.html" xlink:title="Query" target="_parent">
<polygon fill="none" stroke="black" points="845,-367.785 791,-367.785 791,-331.785 845,-331.785 845,-367.785"/>
<text text-anchor="middle" x="818" y="-346.885" font-family="Courier,monospace" font-size="11.00">Query</text>
</a>
</g>
<!-- \\FluxAPI\\DynamicModel -->
<g id="node19" class="node"><title>\\FluxAPI\\DynamicModel</title>
<a xlink:href="FluxAPI.DynamicModel.html" xlink:title="DynamicModel" target="_parent">
<polygon fill="none" stroke="black" points="867,-1091.79 769,-1091.79 769,-1055.79 867,-1055.79 867,-1091.79"/>
<text text-anchor="middle" x="818" y="-1070.89" font-family="Courier,monospace" font-size="11.00">DynamicModel</text>
</a>
</g>
<!-- \\FluxAPI\\DynamicModel&#45;&gt;\\FluxAPI\\Model -->
<g id="edge14" class="edge"><title>\\FluxAPI\\DynamicModel&#45;&gt;\\FluxAPI\\Model</title>
<path fill="none" stroke="black" d="M768.646,-1073.79C678.06,-1073.79 486.031,-1073.79 392.882,-1073.79"/>
<polygon fill="none" stroke="black" points="392.833,-1070.29 382.833,-1073.79 392.833,-1077.29 392.833,-1070.29"/>
</g>
<!-- \\FluxAPI\\Field -->
<g id="node20" class="node"><title>\\FluxAPI\\Field</title>
<a xlink:href="FluxAPI.Field.html" xlink:title="Field" target="_parent">
<polygon fill="none" stroke="black" points="845,-259.785 791,-259.785 791,-223.785 845,-223.785 845,-259.785"/>
<text text-anchor="middle" x="818" y="-238.885" font-family="Courier,monospace" font-size="11.00">Field</text>
</a>
</g>
<!-- \\FluxAPI\\Utils -->
<g id="node21" class="node"><title>\\FluxAPI\\Utils</title>
<a xlink:href="FluxAPI.Utils.html" xlink:title="Utils" target="_parent">
<polygon fill="none" stroke="black" points="845,-205.785 791,-205.785 791,-169.785 845,-169.785 845,-205.785"/>
<text text-anchor="middle" x="818" y="-184.885" font-family="Courier,monospace" font-size="11.00">Utils</text>
</a>
</g>
<!-- \\Plugins\\Core\\Model\\User -->
<g id="node25" class="node"><title>\\Plugins\\Core\\Model\\User</title>
<a xlink:href="Plugins.Core.Model.User.html" xlink:title="User" target="_parent">
<polygon fill="none" stroke="black" points="1022,-1479.79 968,-1479.79 968,-1443.79 1022,-1443.79 1022,-1479.79"/>
<text text-anchor="middle" x="995" y="-1458.89" font-family="Courier,monospace" font-size="11.00">User</text>
</a>
</g>
<!-- \\Plugins\\Core\\Model -->
<g id="node31" class="node"><title>\\Plugins\\Core\\Model</title>
<a xlink:href="Plugins.Core.Model.html" xlink:title="Model" target="_parent">
<polygon fill="none" stroke="black" points="845,-1398.79 791,-1398.79 791,-1362.79 845,-1362.79 845,-1398.79"/>
<text text-anchor="middle" x="818" y="-1377.89" font-family="Courier,monospace" font-size="11.00">Model</text>
</a>
</g>
<!-- \\Plugins\\Core\\Model\\User&#45;&gt;\\Plugins\\Core\\Model -->
<g id="edge22" class="edge"><title>\\Plugins\\Core\\Model\\User&#45;&gt;\\Plugins\\Core\\Model</title>
<path fill="none" stroke="black" d="M967.732,-1449.31C937.37,-1435.41 888.15,-1412.89 854.489,-1397.48"/>
<polygon fill="none" stroke="black" points="855.558,-1394.12 845.009,-1393.15 852.646,-1400.49 855.558,-1394.12"/>
</g>
<!-- \\Plugins\\Core\\Model\\UserGroup -->
<g id="node26" class="node"><title>\\Plugins\\Core\\Model\\UserGroup</title>
<a xlink:href="Plugins.Core.Model.UserGroup.html" xlink:title="UserGroup" target="_parent">
<polygon fill="none" stroke="black" points="1033,-1425.79 957,-1425.79 957,-1389.79 1033,-1389.79 1033,-1425.79"/>
<text text-anchor="middle" x="995" y="-1404.89" font-family="Courier,monospace" font-size="11.00">UserGroup</text>
</a>
</g>
<!-- \\Plugins\\Core\\Model\\UserGroup&#45;&gt;\\Plugins\\Core\\Model -->
<g id="edge24" class="edge"><title>\\Plugins\\Core\\Model\\UserGroup&#45;&gt;\\Plugins\\Core\\Model</title>
<path fill="none" stroke="black" d="M956.157,-1401.86C926.117,-1397.28 884.791,-1390.97 855.179,-1386.46"/>
<polygon fill="none" stroke="black" points="855.644,-1382.99 845.231,-1384.94 854.588,-1389.91 855.644,-1382.99"/>
</g>
<!-- \\Plugins\\Core\\Model\\Node -->
<g id="node27" class="node"><title>\\Plugins\\Core\\Model\\Node</title>
<a xlink:href="Plugins.Core.Model.Node.html" xlink:title="Node" target="_parent">
<polygon fill="none" stroke="black" points="1022,-1371.79 968,-1371.79 968,-1335.79 1022,-1335.79 1022,-1371.79"/>
<text text-anchor="middle" x="995" y="-1350.89" font-family="Courier,monospace" font-size="11.00">Node</text>
</a>
</g>
<!-- \\Plugins\\Core\\Model\\Node&#45;&gt;\\Plugins\\Core\\Model -->
<g id="edge26" class="edge"><title>\\Plugins\\Core\\Model\\Node&#45;&gt;\\Plugins\\Core\\Model</title>
<path fill="none" stroke="black" d="M967.732,-1357.94C937.5,-1362.56 888.572,-1370.02 854.923,-1375.15"/>
<polygon fill="none" stroke="black" points="854.367,-1371.7 845.009,-1376.67 855.422,-1378.62 854.367,-1371.7"/>
</g>
<!-- \\Plugins\\Core\\Storage\\MySql -->
<g id="node29" class="node"><title>\\Plugins\\Core\\Storage\\MySql</title>
<a xlink:href="Plugins.Core.Storage.MySql.html" xlink:title="MySql" target="_parent">
<polygon fill="none" stroke="black" points="1022,-1189.79 968,-1189.79 968,-1153.79 1022,-1153.79 1022,-1189.79"/>
<text text-anchor="middle" x="995" y="-1168.89" font-family="Courier,monospace" font-size="11.00">MySql</text>
</a>
</g>
<!-- \\Plugins\\Core\\Storage\\MySql&#45;&gt;\\FluxAPI\\Storage -->
<g id="edge20" class="edge"><title>\\Plugins\\Core\\Storage\\MySql&#45;&gt;\\FluxAPI\\Storage</title>
<path fill="none" stroke="black" d="M993.823,-1153.62C986.665,-1045.41 947.684,-488.547 900,-430.785 892.473,-421.667 881.797,-415.604 870.629,-411.58"/>
<polygon fill="none" stroke="black" points="871.342,-408.138 860.754,-408.543 869.284,-414.828 871.342,-408.138"/>
</g>
<!-- \\Plugins\\Core\\Rest -->
<g id="node30" class="node"><title>\\Plugins\\Core\\Rest</title>
<a xlink:href="Plugins.Core.Rest.html" xlink:title="Rest" target="_parent">
<polygon fill="none" stroke="black" points="1022,-1263.79 968,-1263.79 968,-1227.79 1022,-1227.79 1022,-1263.79"/>
<text text-anchor="middle" x="995" y="-1242.89" font-family="Courier,monospace" font-size="11.00">Rest</text>
</a>
</g>
<!-- \\Plugins\\Core\\Model&#45;&gt;\\FluxAPI\\Model -->
<g id="edge28" class="edge"><title>\\Plugins\\Core\\Model&#45;&gt;\\FluxAPI\\Model</title>
<path fill="none" stroke="black" d="M790.931,-1363.4C709.905,-1311.36 469.197,-1156.76 376.738,-1097.38"/>
<polygon fill="none" stroke="black" points="378.569,-1094.4 368.264,-1091.94 374.787,-1100.29 378.569,-1094.4"/>
</g>
<!-- \\Plugins\\Core\\Core -->
<g id="node32" class="node"><title>\\Plugins\\Core\\Core</title>
<a xlink:href="Plugins.Core.Core.html" xlink:title="Core" target="_parent">
<polygon fill="none" stroke="black" points="1022,-1317.79 968,-1317.79 968,-1281.79 1022,-1281.79 1022,-1317.79"/>
<text text-anchor="middle" x="995" y="-1296.89" font-family="Courier,monospace" font-size="11.00">Core</text>
</a>
</g>
<!-- \\Plugins\\Core\\Core&#45;&gt;\\FluxAPI\\Plugin -->
<g id="edge30" class="edge"><title>\\Plugins\\Core\\Core&#45;&gt;\\FluxAPI\\Plugin</title>
<path fill="none" stroke="black" d="M967.977,-1290.05C960.257,-1285.93 952.678,-1280.29 948,-1272.79 861.209,-1133.49 1002.63,-663.862 900,-535.785 892.611,-526.564 881.879,-520.758 870.602,-517.134"/>
<polygon fill="none" stroke="black" points="871.185,-513.667 860.621,-514.48 869.386,-520.432 871.185,-513.667"/>
</g>
</g>
</svg>
