<?xml version="1.0" encoding="UTF-8" standalone="no"?>
<!DOCTYPE svg PUBLIC "-//W3C//DTD SVG 1.1//EN"
 "http://www.w3.org/Graphics/SVG/1.1/DTD/svg11.dtd">
<!-- Generated by graphviz version 2.26.3 (20100126.1600)
 -->
<!-- Title: G Pages: 1 -->
<svg width="477pt" height="640pt"
 viewBox="0.00 0.00 477.00 640.00" xmlns="http://www.w3.org/2000/svg" xmlns:xlink="http://www.w3.org/1999/xlink">
<g id="graph1" class="graph" transform="scale(1 1) rotate(0) translate(4 636)">
<title>G</title>
<polygon fill="white" stroke="white" points="-4,5 -4,-636 474,-636 474,5 -4,5"/>
<g id="graph2" class="cluster"><title>cluster_FluxAPI</title>
<polyline fill="none" stroke="gray" points="20,-44 315,-44 "/>
<path fill="none" stroke="gray" d="M315,-44C321,-44 327,-50 327,-56"/>
<polyline fill="none" stroke="gray" points="327,-56 327,-612 "/>
<path fill="none" stroke="gray" d="M327,-612C327,-618 321,-624 315,-624"/>
<polyline fill="none" stroke="gray" points="315,-624 20,-624 "/>
<path fill="none" stroke="gray" d="M20,-624C14,-624 8,-618 8,-612"/>
<polyline fill="none" stroke="gray" points="8,-612 8,-56 "/>
<path fill="none" stroke="gray" d="M8,-56C8,-50 14,-44 20,-44"/>
<text text-anchor="middle" x="167.5" y="-610.1" font-family="Times Roman,serif" font-size="11.00" fill="gray">FluxAPI</text>
</g>
<g id="graph3" class="cluster"><title>cluster_FluxAPI\Factory</title>
<polyline fill="none" stroke="gray" points="183,-314 307,-314 "/>
<path fill="none" stroke="gray" d="M307,-314C313,-314 319,-320 319,-326"/>
<polyline fill="none" stroke="gray" points="319,-326 319,-538 "/>
<path fill="none" stroke="gray" d="M319,-538C319,-544 313,-550 307,-550"/>
<polyline fill="none" stroke="gray" points="307,-550 183,-550 "/>
<path fill="none" stroke="gray" d="M183,-550C177,-550 171,-544 171,-538"/>
<polyline fill="none" stroke="gray" points="171,-538 171,-326 "/>
<path fill="none" stroke="gray" d="M171,-326C171,-320 177,-314 183,-314"/>
<text text-anchor="middle" x="245" y="-536.1" font-family="Times Roman,serif" font-size="11.00" fill="gray">Factory</text>
</g>
<g id="graph4" class="cluster"><title>cluster_Plugins</title>
<polyline fill="none" stroke="gray" points="371,-190 449,-190 "/>
<path fill="none" stroke="gray" d="M449,-190C455,-190 461,-196 461,-202"/>
<polyline fill="none" stroke="gray" points="461,-202 461,-510 "/>
<path fill="none" stroke="gray" d="M461,-510C461,-516 455,-522 449,-522"/>
<polyline fill="none" stroke="gray" points="449,-522 371,-522 "/>
<path fill="none" stroke="gray" d="M371,-522C365,-522 359,-516 359,-510"/>
<polyline fill="none" stroke="gray" points="359,-510 359,-202 "/>
<path fill="none" stroke="gray" d="M359,-202C359,-196 365,-190 371,-190"/>
<text text-anchor="middle" x="410" y="-508.1" font-family="Times Roman,serif" font-size="11.00" fill="gray">Plugins</text>
</g>
<g id="graph5" class="cluster"><title>cluster_Plugins\Core</title>
<polyline fill="none" stroke="gray" points="379,-198 441,-198 "/>
<path fill="none" stroke="gray" d="M441,-198C447,-198 453,-204 453,-210"/>
<polyline fill="none" stroke="gray" points="453,-210 453,-480 "/>
<path fill="none" stroke="gray" d="M453,-480C453,-486 447,-492 441,-492"/>
<polyline fill="none" stroke="gray" points="441,-492 379,-492 "/>
<path fill="none" stroke="gray" d="M379,-492C373,-492 367,-486 367,-480"/>
<polyline fill="none" stroke="gray" points="367,-480 367,-210 "/>
<path fill="none" stroke="gray" d="M367,-210C367,-204 373,-198 379,-198"/>
<text text-anchor="middle" x="410" y="-478.1" font-family="Times Roman,serif" font-size="11.00" fill="gray">Core</text>
</g>
<g id="graph6" class="cluster"><title>cluster_Plugins\Core\Model</title>
<polyline fill="none" stroke="gray" points="387,-388 433,-388 "/>
<path fill="none" stroke="gray" d="M433,-388C439,-388 445,-394 445,-400"/>
<polyline fill="none" stroke="gray" points="445,-400 445,-450 "/>
<path fill="none" stroke="gray" d="M445,-450C445,-456 439,-462 433,-462"/>
<polyline fill="none" stroke="gray" points="433,-462 387,-462 "/>
<path fill="none" stroke="gray" d="M387,-462C381,-462 375,-456 375,-450"/>
<polyline fill="none" stroke="gray" points="375,-450 375,-400 "/>
<path fill="none" stroke="gray" d="M375,-400C375,-394 381,-388 387,-388"/>
<text text-anchor="middle" x="410" y="-448.1" font-family="Times Roman,serif" font-size="11.00" fill="gray">Model</text>
</g>
<g id="graph7" class="cluster"><title>cluster_Plugins\Core\Storage</title>
<polyline fill="none" stroke="gray" points="387,-206 433,-206 "/>
<path fill="none" stroke="gray" d="M433,-206C439,-206 445,-212 445,-218"/>
<polyline fill="none" stroke="gray" points="445,-218 445,-268 "/>
<path fill="none" stroke="gray" d="M445,-268C445,-274 439,-280 433,-280"/>
<polyline fill="none" stroke="gray" points="433,-280 387,-280 "/>
<path fill="none" stroke="gray" d="M387,-280C381,-280 375,-274 375,-268"/>
<polyline fill="none" stroke="gray" points="375,-268 375,-218 "/>
<path fill="none" stroke="gray" d="M375,-218C375,-212 381,-206 387,-206"/>
<text text-anchor="middle" x="410" y="-266.1" font-family="Times Roman,serif" font-size="11.00" fill="gray">Storage</text>
</g>
<!-- \\FluxAPI\\Factory\\ModelFactory -->
<g id="node3" class="node"><title>\\FluxAPI\\Factory\\ModelFactory</title>
<a xlink:href="FluxAPI.Factory.ModelFactory.html" xlink:title="ModelFactory" target="_parent">
<polygon fill="none" stroke="black" points="294,-520 196,-520 196,-484 294,-484 294,-520"/>
<text text-anchor="middle" x="245" y="-499.1" font-family="Courier,monospace" font-size="11.00">ModelFactory</text>
</a>
</g>
<!-- \\FluxAPI\\Factory\\PermissionFactory -->
<g id="node4" class="node"><title>\\FluxAPI\\Factory\\PermissionFactory</title>
<a xlink:href="FluxAPI.Factory.PermissionFactory.html" xlink:title="PermissionFactory" target="_parent">
<polygon fill="none" stroke="black" points="310,-466 180,-466 180,-430 310,-430 310,-466"/>
<text text-anchor="middle" x="245" y="-445.1" font-family="Courier,monospace" font-size="11.00">PermissionFactory</text>
</a>
</g>
<!-- \\FluxAPI\\Factory\\ControllerFactory -->
<g id="node5" class="node"><title>\\FluxAPI\\Factory\\ControllerFactory</title>
<a xlink:href="FluxAPI.Factory.ControllerFactory.html" xlink:title="ControllerFactory" target="_parent">
<polygon fill="none" stroke="black" points="310,-412 180,-412 180,-376 310,-376 310,-412"/>
<text text-anchor="middle" x="245" y="-391.1" font-family="Courier,monospace" font-size="11.00">ControllerFactory</text>
</a>
</g>
<!-- \\FluxAPI\\Factory\\StorageFactory -->
<g id="node6" class="node"><title>\\FluxAPI\\Factory\\StorageFactory</title>
<a xlink:href="FluxAPI.Factory.StorageFactory.html" xlink:title="StorageFactory" target="_parent">
<polygon fill="none" stroke="black" points="300,-358 190,-358 190,-322 300,-322 300,-358"/>
<text text-anchor="middle" x="245" y="-337.1" font-family="Courier,monospace" font-size="11.00">StorageFactory</text>
</a>
</g>
<!-- \\Pimple -->
<g id="node25" class="node"><title>\\Pimple</title>
<ellipse fill="none" stroke="black" cx="59" cy="-18" rx="46.8775" ry="18.3848"/>
<text text-anchor="middle" x="59" y="-14.4" font-family="Times Roman,serif" font-size="14.00" fill="gray">\Pimple</text>
</g>
<!-- \\FluxAPI\\Factory\\StorageFactory&#45;&gt;\\Pimple -->
<g id="edge14" class="edge"><title>\\FluxAPI\\Factory\\StorageFactory&#45;&gt;\\Pimple</title>
<path fill="none" stroke="black" d="M189.482,-330.715C182.57,-327.601 176.138,-323.471 171,-318 84.202,-225.582 187.083,-138.295 107,-40 105.885,-38.6319 104.667,-37.3452 103.367,-36.1353"/>
<polygon fill="none" stroke="black" points="105.283,-33.1977 95.1771,-30.0151 101.092,-38.805 105.283,-33.1977"/>
</g>
<!-- \\FluxAPI\\Api -->
<g id="node7" class="node"><title>\\FluxAPI\\Api</title>
<a xlink:href="FluxAPI.Api.html" xlink:title="Api" target="_parent">
<polygon fill="none" stroke="black" points="272,-142 218,-142 218,-106 272,-106 272,-142"/>
<text text-anchor="middle" x="245" y="-121.1" font-family="Courier,monospace" font-size="11.00">Api</text>
</a>
</g>
<!-- \\FluxAPI\\Api&#45;&gt;\\Pimple -->
<g id="edge10" class="edge"><title>\\FluxAPI\\Api&#45;&gt;\\Pimple</title>
<path fill="none" stroke="black" d="M217.876,-116.807C203.373,-112.307 185.556,-105.7 171,-97 138.305,-77.4578 138.888,-60.8325 107,-40 104.885,-38.6181 102.669,-37.2788 100.398,-35.9888"/>
<polygon fill="none" stroke="black" points="101.943,-32.8469 91.4658,-31.2729 98.6747,-39.0371 101.943,-32.8469"/>
</g>
<!-- \\FluxAPI\\Model -->
<g id="node8" class="node"><title>\\FluxAPI\\Model</title>
<a xlink:href="FluxAPI.Model.html" xlink:title="«abstract»&lt;br/&gt;Model" target="_parent">
<polygon fill="none" stroke="black" points="101,-594 17,-594 17,-558 101,-558 101,-594"/>
<text text-anchor="start" x="25" y="-581.433" font-family="Courier,monospace" font-size="11.00">«abstract»</text>
<text text-anchor="start" x="42" y="-568.233" font-family="Courier,monospace" font-size="11.00">Model</text>
</a>
</g>
<!-- \\FluxAPI\\Storage -->
<g id="node9" class="node"><title>\\FluxAPI\\Storage</title>
<a xlink:href="FluxAPI.Storage.html" xlink:title="«abstract»&lt;br/&gt;Storage" target="_parent">
<polygon fill="none" stroke="black" points="287,-250 203,-250 203,-214 287,-214 287,-250"/>
<text text-anchor="start" x="211" y="-237.433" font-family="Courier,monospace" font-size="11.00">«abstract»</text>
<text text-anchor="start" x="221" y="-224.233" font-family="Courier,monospace" font-size="11.00">Storage</text>
</a>
</g>
<!-- \\FluxAPI\\Plugin -->
<g id="node10" class="node"><title>\\FluxAPI\\Plugin</title>
<a xlink:href="FluxAPI.Plugin.html" xlink:title="«abstract»&lt;br/&gt;Plugin" target="_parent">
<polygon fill="none" stroke="black" points="287,-304 203,-304 203,-268 287,-268 287,-304"/>
<text text-anchor="start" x="211" y="-291.433" font-family="Courier,monospace" font-size="11.00">«abstract»</text>
<text text-anchor="start" x="224.5" y="-278.233" font-family="Courier,monospace" font-size="11.00">Plugin</text>
</a>
</g>
<!-- \\FluxAPI\\Query -->
<g id="node11" class="node"><title>\\FluxAPI\\Query</title>
<a xlink:href="FluxAPI.Query.html" xlink:title="Query" target="_parent">
<polygon fill="none" stroke="black" points="272,-196 218,-196 218,-160 272,-160 272,-196"/>
<text text-anchor="middle" x="245" y="-175.1" font-family="Courier,monospace" font-size="11.00">Query</text>
</a>
</g>
<!-- \\FluxAPI\\DynamicModel -->
<g id="node12" class="node"><title>\\FluxAPI\\DynamicModel</title>
<a xlink:href="FluxAPI.DynamicModel.html" xlink:title="DynamicModel" target="_parent">
<polygon fill="none" stroke="black" points="294,-594 196,-594 196,-558 294,-558 294,-594"/>
<text text-anchor="middle" x="245" y="-573.1" font-family="Courier,monospace" font-size="11.00">DynamicModel</text>
</a>
</g>
<!-- \\FluxAPI\\DynamicModel&#45;&gt;\\FluxAPI\\Model -->
<g id="edge12" class="edge"><title>\\FluxAPI\\DynamicModel&#45;&gt;\\FluxAPI\\Model</title>
<path fill="none" stroke="black" d="M195.644,-576C169.801,-576 138.142,-576 111.808,-576"/>
<polygon fill="none" stroke="black" points="111.628,-572.5 101.628,-576 111.628,-579.5 111.628,-572.5"/>
</g>
<!-- \\FluxAPI\\Field -->
<g id="node13" class="node"><title>\\FluxAPI\\Field</title>
<a xlink:href="FluxAPI.Field.html" xlink:title="Field" target="_parent">
<polygon fill="none" stroke="black" points="272,-88 218,-88 218,-52 272,-52 272,-88"/>
<text text-anchor="middle" x="245" y="-67.1" font-family="Courier,monospace" font-size="11.00">Field</text>
</a>
</g>
<!-- \\Plugins\\Core\\Model\\Node -->
<g id="node17" class="node"><title>\\Plugins\\Core\\Model\\Node</title>
<a xlink:href="Plugins.Core.Model.Node.html" xlink:title="Node" target="_parent">
<polygon fill="none" stroke="black" points="437,-432 383,-432 383,-396 437,-396 437,-432"/>
<text text-anchor="middle" x="410" y="-411.1" font-family="Courier,monospace" font-size="11.00">Node</text>
</a>
</g>
<!-- \\Plugins\\Core\\Model\\Node&#45;&gt;\\FluxAPI\\Model -->
<g id="edge18" class="edge"><title>\\Plugins\\Core\\Model\\Node&#45;&gt;\\FluxAPI\\Model</title>
<path fill="none" stroke="black" d="M408.369,-432.138C403.744,-471.43 386.712,-564.007 327,-603 260.562,-646.386 164.455,-620.395 107.198,-597.936"/>
<polygon fill="none" stroke="black" points="108.248,-594.585 97.6646,-594.087 105.628,-601.076 108.248,-594.585"/>
</g>
<!-- \\Plugins\\Core\\Storage\\MySql -->
<g id="node19" class="node"><title>\\Plugins\\Core\\Storage\\MySql</title>
<a xlink:href="Plugins.Core.Storage.MySql.html" xlink:title="MySql" target="_parent">
<polygon fill="none" stroke="black" points="437,-250 383,-250 383,-214 437,-214 437,-250"/>
<text text-anchor="middle" x="410" y="-229.1" font-family="Courier,monospace" font-size="11.00">MySql</text>
</a>
</g>
<!-- \\Plugins\\Core\\Storage\\MySql&#45;&gt;\\FluxAPI\\Storage -->
<g id="edge16" class="edge"><title>\\Plugins\\Core\\Storage\\MySql&#45;&gt;\\FluxAPI\\Storage</title>
<path fill="none" stroke="black" d="M382.754,-232C359.765,-232 326.182,-232 297.931,-232"/>
<polygon fill="none" stroke="black" points="297.793,-228.5 287.793,-232 297.793,-235.5 297.793,-228.5"/>
</g>
<!-- \\Plugins\\Core\\Rest -->
<g id="node20" class="node"><title>\\Plugins\\Core\\Rest</title>
<a xlink:href="Plugins.Core.Rest.html" xlink:title="Rest" target="_parent">
<polygon fill="none" stroke="black" points="437,-324 383,-324 383,-288 437,-288 437,-324"/>
<text text-anchor="middle" x="410" y="-303.1" font-family="Courier,monospace" font-size="11.00">Rest</text>
</a>
</g>
<!-- \\Plugins\\Core\\Core -->
<g id="node21" class="node"><title>\\Plugins\\Core\\Core</title>
<a xlink:href="Plugins.Core.Core.html" xlink:title="Core" target="_parent">
<polygon fill="none" stroke="black" points="437,-378 383,-378 383,-342 437,-342 437,-378"/>
<text text-anchor="middle" x="410" y="-357.1" font-family="Courier,monospace" font-size="11.00">Core</text>
</a>
</g>
<!-- \\Plugins\\Core\\Core&#45;&gt;\\FluxAPI\\Plugin -->
<g id="edge20" class="edge"><title>\\Plugins\\Core\\Core&#45;&gt;\\FluxAPI\\Plugin</title>
<path fill="none" stroke="black" d="M382.881,-346.52C375.051,-342.394 366.578,-337.699 359,-333 344.115,-323.77 342.741,-317.681 327,-310 317.802,-305.512 307.605,-301.699 297.616,-298.524"/>
<polygon fill="none" stroke="black" points="298.325,-295.083 287.741,-295.561 296.313,-301.788 298.325,-295.083"/>
</g>
</g>
</svg>
