<?xml version="1.0" encoding="UTF-8" standalone="no"?>
<!DOCTYPE svg PUBLIC "-//W3C//DTD SVG 1.1//EN"
 "http://www.w3.org/Graphics/SVG/1.1/DTD/svg11.dtd">
<!-- Generated by graphviz version 2.26.3 (20100126.1600)
 -->
<!-- Title: G Pages: 1 -->
<svg width="268pt" height="402pt"
 viewBox="0.00 0.00 268.00 402.00" xmlns="http://www.w3.org/2000/svg" xmlns:xlink="http://www.w3.org/1999/xlink">
<g id="graph1" class="graph" transform="scale(1 1) rotate(0) translate(4 398)">
<title>G</title>
<polygon fill="white" stroke="white" points="-4,5 -4,-398 265,-398 265,5 -4,5"/>
<g id="graph2" class="cluster"><title>cluster_FluxAPI</title>
<polyline fill="none" stroke="gray" points="20,-8 98,-8 "/>
<path fill="none" stroke="gray" d="M98,-8C104,-8 110,-14 110,-20"/>
<polyline fill="none" stroke="gray" points="110,-20 110,-340 "/>
<path fill="none" stroke="gray" d="M110,-340C110,-346 104,-352 98,-352"/>
<polyline fill="none" stroke="gray" points="98,-352 20,-352 "/>
<path fill="none" stroke="gray" d="M20,-352C14,-352 8,-346 8,-340"/>
<polyline fill="none" stroke="gray" points="8,-340 8,-20 "/>
<path fill="none" stroke="gray" d="M8,-20C8,-14 14,-8 20,-8"/>
<text text-anchor="middle" x="59" y="-338.1" font-family="Times Roman,serif" font-size="11.00" fill="gray">FluxAPI</text>
</g>
<g id="graph3" class="cluster"><title>cluster_Plugins</title>
<polyline fill="none" stroke="gray" points="162,-54 240,-54 "/>
<path fill="none" stroke="gray" d="M240,-54C246,-54 252,-60 252,-66"/>
<polyline fill="none" stroke="gray" points="252,-66 252,-374 "/>
<path fill="none" stroke="gray" d="M252,-374C252,-380 246,-386 240,-386"/>
<polyline fill="none" stroke="gray" points="240,-386 162,-386 "/>
<path fill="none" stroke="gray" d="M162,-386C156,-386 150,-380 150,-374"/>
<polyline fill="none" stroke="gray" points="150,-374 150,-66 "/>
<path fill="none" stroke="gray" d="M150,-66C150,-60 156,-54 162,-54"/>
<text text-anchor="middle" x="201" y="-372.1" font-family="Times Roman,serif" font-size="11.00" fill="gray">Plugins</text>
</g>
<g id="graph4" class="cluster"><title>cluster_Plugins\Core</title>
<polyline fill="none" stroke="gray" points="170,-62 232,-62 "/>
<path fill="none" stroke="gray" d="M232,-62C238,-62 244,-68 244,-74"/>
<polyline fill="none" stroke="gray" points="244,-74 244,-344 "/>
<path fill="none" stroke="gray" d="M244,-344C244,-350 238,-356 232,-356"/>
<polyline fill="none" stroke="gray" points="232,-356 170,-356 "/>
<path fill="none" stroke="gray" d="M170,-356C164,-356 158,-350 158,-344"/>
<polyline fill="none" stroke="gray" points="158,-344 158,-74 "/>
<path fill="none" stroke="gray" d="M158,-74C158,-68 164,-62 170,-62"/>
<text text-anchor="middle" x="201" y="-342.1" font-family="Times Roman,serif" font-size="11.00" fill="gray">Core</text>
</g>
<g id="graph5" class="cluster"><title>cluster_Plugins\Core\Model</title>
<polyline fill="none" stroke="gray" points="178,-252 224,-252 "/>
<path fill="none" stroke="gray" d="M224,-252C230,-252 236,-258 236,-264"/>
<polyline fill="none" stroke="gray" points="236,-264 236,-314 "/>
<path fill="none" stroke="gray" d="M236,-314C236,-320 230,-326 224,-326"/>
<polyline fill="none" stroke="gray" points="224,-326 178,-326 "/>
<path fill="none" stroke="gray" d="M178,-326C172,-326 166,-320 166,-314"/>
<polyline fill="none" stroke="gray" points="166,-314 166,-264 "/>
<path fill="none" stroke="gray" d="M166,-264C166,-258 172,-252 178,-252"/>
<text text-anchor="middle" x="201" y="-312.1" font-family="Times Roman,serif" font-size="11.00" fill="gray">Model</text>
</g>
<g id="graph6" class="cluster"><title>cluster_Plugins\Core\Storage</title>
<polyline fill="none" stroke="gray" points="178,-170 224,-170 "/>
<path fill="none" stroke="gray" d="M224,-170C230,-170 236,-176 236,-182"/>
<polyline fill="none" stroke="gray" points="236,-182 236,-232 "/>
<path fill="none" stroke="gray" d="M236,-232C236,-238 230,-244 224,-244"/>
<polyline fill="none" stroke="gray" points="224,-244 178,-244 "/>
<path fill="none" stroke="gray" d="M178,-244C172,-244 166,-238 166,-232"/>
<polyline fill="none" stroke="gray" points="166,-232 166,-182 "/>
<path fill="none" stroke="gray" d="M166,-182C166,-176 172,-170 178,-170"/>
<text text-anchor="middle" x="201" y="-230.1" font-family="Times Roman,serif" font-size="11.00" fill="gray">Storage</text>
</g>
<!-- \\FluxAPI\\Api -->
<g id="node2" class="node"><title>\\FluxAPI\\Api</title>
<a xlink:href="FluxAPI.Api.html" xlink:title="Api" target="_parent">
<polygon fill="none" stroke="black" points="86,-322 32,-322 32,-286 86,-286 86,-322"/>
<text text-anchor="middle" x="59" y="-301.1" font-family="Courier,monospace" font-size="11.00">Api</text>
</a>
</g>
<!-- \\FluxAPI\\Model -->
<g id="node3" class="node"><title>\\FluxAPI\\Model</title>
<a xlink:href="FluxAPI.Model.html" xlink:title="«abstract»&lt;br/&gt;Model" target="_parent">
<polygon fill="none" stroke="black" points="101,-268 17,-268 17,-232 101,-232 101,-268"/>
<text text-anchor="start" x="25" y="-255.433" font-family="Courier,monospace" font-size="11.00">«abstract»</text>
<text text-anchor="start" x="42" y="-242.233" font-family="Courier,monospace" font-size="11.00">Model</text>
</a>
</g>
<!-- \\FluxAPI\\Storage -->
<g id="node4" class="node"><title>\\FluxAPI\\Storage</title>
<a xlink:href="FluxAPI.Storage.html" xlink:title="«abstract»&lt;br/&gt;Storage" target="_parent">
<polygon fill="none" stroke="black" points="101,-214 17,-214 17,-178 101,-178 101,-214"/>
<text text-anchor="start" x="25" y="-201.433" font-family="Courier,monospace" font-size="11.00">«abstract»</text>
<text text-anchor="start" x="35" y="-188.233" font-family="Courier,monospace" font-size="11.00">Storage</text>
</a>
</g>
<!-- \\FluxAPI\\Plugin -->
<g id="node5" class="node"><title>\\FluxAPI\\Plugin</title>
<a xlink:href="FluxAPI.Plugin.html" xlink:title="«abstract»&lt;br/&gt;Plugin" target="_parent">
<polygon fill="none" stroke="black" points="101,-160 17,-160 17,-124 101,-124 101,-160"/>
<text text-anchor="start" x="25" y="-147.433" font-family="Courier,monospace" font-size="11.00">«abstract»</text>
<text text-anchor="start" x="38.5" y="-134.233" font-family="Courier,monospace" font-size="11.00">Plugin</text>
</a>
</g>
<!-- \\FluxAPI\\Query -->
<g id="node6" class="node"><title>\\FluxAPI\\Query</title>
<a xlink:href="FluxAPI.Query.html" xlink:title="Query" target="_parent">
<polygon fill="none" stroke="black" points="86,-106 32,-106 32,-70 86,-70 86,-106"/>
<text text-anchor="middle" x="59" y="-85.1" font-family="Courier,monospace" font-size="11.00">Query</text>
</a>
</g>
<!-- \\FluxAPI\\Field -->
<g id="node7" class="node"><title>\\FluxAPI\\Field</title>
<a xlink:href="FluxAPI.Field.html" xlink:title="Field" target="_parent">
<polygon fill="none" stroke="black" points="86,-52 32,-52 32,-16 86,-16 86,-52"/>
<text text-anchor="middle" x="59" y="-31.1" font-family="Courier,monospace" font-size="11.00">Field</text>
</a>
</g>
<!-- \\Plugins\\Core\\Model\\Node -->
<g id="node11" class="node"><title>\\Plugins\\Core\\Model\\Node</title>
<a xlink:href="Plugins.Core.Model.Node.html" xlink:title="Node" target="_parent">
<polygon fill="none" stroke="black" points="228,-296 174,-296 174,-260 228,-260 228,-296"/>
<text text-anchor="middle" x="201" y="-275.1" font-family="Courier,monospace" font-size="11.00">Node</text>
</a>
</g>
<!-- \\Plugins\\Core\\Model\\Node&#45;&gt;\\FluxAPI\\Model -->
<g id="edge11" class="edge"><title>\\Plugins\\Core\\Model\\Node&#45;&gt;\\FluxAPI\\Model</title>
<path fill="none" stroke="black" d="M173.957,-272.668C156.312,-269.188 132.696,-264.532 111.46,-260.344"/>
<polygon fill="none" stroke="black" points="112.07,-256.897 101.582,-258.396 110.716,-263.765 112.07,-256.897"/>
</g>
<!-- \\Plugins\\Core\\Storage\\MySql -->
<g id="node13" class="node"><title>\\Plugins\\Core\\Storage\\MySql</title>
<a xlink:href="Plugins.Core.Storage.MySql.html" xlink:title="MySql" target="_parent">
<polygon fill="none" stroke="black" points="228,-214 174,-214 174,-178 228,-178 228,-214"/>
<text text-anchor="middle" x="201" y="-193.1" font-family="Courier,monospace" font-size="11.00">MySql</text>
</a>
</g>
<!-- \\Plugins\\Core\\Storage\\MySql&#45;&gt;\\FluxAPI\\Storage -->
<g id="edge9" class="edge"><title>\\Plugins\\Core\\Storage\\MySql&#45;&gt;\\FluxAPI\\Storage</title>
<path fill="none" stroke="black" d="M173.957,-196C156.392,-196 132.91,-196 111.748,-196"/>
<polygon fill="none" stroke="black" points="111.582,-192.5 101.582,-196 111.582,-199.5 111.582,-192.5"/>
</g>
<!-- \\Plugins\\Core\\Rest -->
<g id="node14" class="node"><title>\\Plugins\\Core\\Rest</title>
<a xlink:href="Plugins.Core.Rest.html" xlink:title="Rest" target="_parent">
<polygon fill="none" stroke="black" points="228,-160 174,-160 174,-124 228,-124 228,-160"/>
<text text-anchor="middle" x="201" y="-139.1" font-family="Courier,monospace" font-size="11.00">Rest</text>
</a>
</g>
<!-- \\Plugins\\Core\\Core -->
<g id="node15" class="node"><title>\\Plugins\\Core\\Core</title>
<a xlink:href="Plugins.Core.Core.html" xlink:title="Core" target="_parent">
<polygon fill="none" stroke="black" points="228,-106 174,-106 174,-70 228,-70 228,-106"/>
<text text-anchor="middle" x="201" y="-85.1" font-family="Courier,monospace" font-size="11.00">Core</text>
</a>
</g>
<!-- \\Plugins\\Core\\Core&#45;&gt;\\FluxAPI\\Plugin -->
<g id="edge13" class="edge"><title>\\Plugins\\Core\\Core&#45;&gt;\\FluxAPI\\Plugin</title>
<path fill="none" stroke="black" d="M173.957,-98.2841C156.232,-105.024 132.482,-114.056 111.171,-122.16"/>
<polygon fill="none" stroke="black" points="109.685,-118.981 101.582,-125.807 112.173,-125.524 109.685,-118.981"/>
</g>
</g>
</svg>
