<?xml version="1.0" encoding="UTF-8" standalone="no"?>
<!DOCTYPE svg PUBLIC "-//W3C//DTD SVG 1.1//EN"
 "http://www.w3.org/Graphics/SVG/1.1/DTD/svg11.dtd">
<!-- Generated by graphviz version 2.26.3 (20100126.1600)
 -->
<!-- Title: G Pages: 1 -->
<svg width="438pt" height="474pt"
 viewBox="0.00 0.00 438.00 474.00" xmlns="http://www.w3.org/2000/svg" xmlns:xlink="http://www.w3.org/1999/xlink">
<g id="graph1" class="graph" transform="scale(1 1) rotate(0) translate(4 470)">
<title>G</title>
<polygon fill="white" stroke="white" points="-4,5 -4,-470 435,-470 435,5 -4,5"/>
<g id="graph2" class="cluster"><title>cluster_FluxAPI</title>
<polyline fill="none" stroke="gray" points="20,-8 268,-8 "/>
<path fill="none" stroke="gray" d="M268,-8C274,-8 280,-14 280,-20"/>
<polyline fill="none" stroke="gray" points="280,-20 280,-340 "/>
<path fill="none" stroke="gray" d="M280,-340C280,-346 274,-352 268,-352"/>
<polyline fill="none" stroke="gray" points="268,-352 20,-352 "/>
<path fill="none" stroke="gray" d="M20,-352C14,-352 8,-346 8,-340"/>
<polyline fill="none" stroke="gray" points="8,-340 8,-20 "/>
<path fill="none" stroke="gray" d="M8,-20C8,-14 14,-8 20,-8"/>
<text text-anchor="middle" x="144" y="-338.1" font-family="Times Roman,serif" font-size="11.00" fill="gray">FluxAPI</text>
</g>
<g id="graph3" class="cluster"><title>cluster_Plugins</title>
<polyline fill="none" stroke="gray" points="332,-126 410,-126 "/>
<path fill="none" stroke="gray" d="M410,-126C416,-126 422,-132 422,-138"/>
<polyline fill="none" stroke="gray" points="422,-138 422,-446 "/>
<path fill="none" stroke="gray" d="M422,-446C422,-452 416,-458 410,-458"/>
<polyline fill="none" stroke="gray" points="410,-458 332,-458 "/>
<path fill="none" stroke="gray" d="M332,-458C326,-458 320,-452 320,-446"/>
<polyline fill="none" stroke="gray" points="320,-446 320,-138 "/>
<path fill="none" stroke="gray" d="M320,-138C320,-132 326,-126 332,-126"/>
<text text-anchor="middle" x="371" y="-444.1" font-family="Times Roman,serif" font-size="11.00" fill="gray">Plugins</text>
</g>
<g id="graph4" class="cluster"><title>cluster_Plugins\Core</title>
<polyline fill="none" stroke="gray" points="340,-134 402,-134 "/>
<path fill="none" stroke="gray" d="M402,-134C408,-134 414,-140 414,-146"/>
<polyline fill="none" stroke="gray" points="414,-146 414,-416 "/>
<path fill="none" stroke="gray" d="M414,-416C414,-422 408,-428 402,-428"/>
<polyline fill="none" stroke="gray" points="402,-428 340,-428 "/>
<path fill="none" stroke="gray" d="M340,-428C334,-428 328,-422 328,-416"/>
<polyline fill="none" stroke="gray" points="328,-416 328,-146 "/>
<path fill="none" stroke="gray" d="M328,-146C328,-140 334,-134 340,-134"/>
<text text-anchor="middle" x="371" y="-414.1" font-family="Times Roman,serif" font-size="11.00" fill="gray">Core</text>
</g>
<g id="graph5" class="cluster"><title>cluster_Plugins\Core\Model</title>
<polyline fill="none" stroke="gray" points="348,-324 394,-324 "/>
<path fill="none" stroke="gray" d="M394,-324C400,-324 406,-330 406,-336"/>
<polyline fill="none" stroke="gray" points="406,-336 406,-386 "/>
<path fill="none" stroke="gray" d="M406,-386C406,-392 400,-398 394,-398"/>
<polyline fill="none" stroke="gray" points="394,-398 348,-398 "/>
<path fill="none" stroke="gray" d="M348,-398C342,-398 336,-392 336,-386"/>
<polyline fill="none" stroke="gray" points="336,-386 336,-336 "/>
<path fill="none" stroke="gray" d="M336,-336C336,-330 342,-324 348,-324"/>
<text text-anchor="middle" x="371" y="-384.1" font-family="Times Roman,serif" font-size="11.00" fill="gray">Model</text>
</g>
<g id="graph6" class="cluster"><title>cluster_Plugins\Core\Storage</title>
<polyline fill="none" stroke="gray" points="348,-242 394,-242 "/>
<path fill="none" stroke="gray" d="M394,-242C400,-242 406,-248 406,-254"/>
<polyline fill="none" stroke="gray" points="406,-254 406,-304 "/>
<path fill="none" stroke="gray" d="M406,-304C406,-310 400,-316 394,-316"/>
<polyline fill="none" stroke="gray" points="394,-316 348,-316 "/>
<path fill="none" stroke="gray" d="M348,-316C342,-316 336,-310 336,-304"/>
<polyline fill="none" stroke="gray" points="336,-304 336,-254 "/>
<path fill="none" stroke="gray" d="M336,-254C336,-248 342,-242 348,-242"/>
<text text-anchor="middle" x="371" y="-302.1" font-family="Times Roman,serif" font-size="11.00" fill="gray">Storage</text>
</g>
<!-- \\FluxAPI\\Api -->
<g id="node2" class="node"><title>\\FluxAPI\\Api</title>
<a xlink:href="FluxAPI.Api.html" xlink:title="Api" target="_parent">
<polygon fill="none" stroke="black" points="250,-322 196,-322 196,-286 250,-286 250,-322"/>
<text text-anchor="middle" x="223" y="-301.1" font-family="Courier,monospace" font-size="11.00">Api</text>
</a>
</g>
<!-- \\FluxAPI\\Model -->
<g id="node3" class="node"><title>\\FluxAPI\\Model</title>
<a xlink:href="FluxAPI.Model.html" xlink:title="«abstract»&lt;br/&gt;Model" target="_parent">
<polygon fill="none" stroke="black" points="101,-214 17,-214 17,-178 101,-178 101,-214"/>
<text text-anchor="start" x="25" y="-201.433" font-family="Courier,monospace" font-size="11.00">«abstract»</text>
<text text-anchor="start" x="42" y="-188.233" font-family="Courier,monospace" font-size="11.00">Model</text>
</a>
</g>
<!-- \\FluxAPI\\Storage -->
<g id="node4" class="node"><title>\\FluxAPI\\Storage</title>
<a xlink:href="FluxAPI.Storage.html" xlink:title="«abstract»&lt;br/&gt;Storage" target="_parent">
<polygon fill="none" stroke="black" points="265,-268 181,-268 181,-232 265,-232 265,-268"/>
<text text-anchor="start" x="189" y="-255.433" font-family="Courier,monospace" font-size="11.00">«abstract»</text>
<text text-anchor="start" x="199" y="-242.233" font-family="Courier,monospace" font-size="11.00">Storage</text>
</a>
</g>
<!-- \\FluxAPI\\Plugin -->
<g id="node5" class="node"><title>\\FluxAPI\\Plugin</title>
<a xlink:href="FluxAPI.Plugin.html" xlink:title="«abstract»&lt;br/&gt;Plugin" target="_parent">
<polygon fill="none" stroke="black" points="265,-214 181,-214 181,-178 265,-178 265,-214"/>
<text text-anchor="start" x="189" y="-201.433" font-family="Courier,monospace" font-size="11.00">«abstract»</text>
<text text-anchor="start" x="202.5" y="-188.233" font-family="Courier,monospace" font-size="11.00">Plugin</text>
</a>
</g>
<!-- \\FluxAPI\\Query -->
<g id="node6" class="node"><title>\\FluxAPI\\Query</title>
<a xlink:href="FluxAPI.Query.html" xlink:title="Query" target="_parent">
<polygon fill="none" stroke="black" points="250,-160 196,-160 196,-124 250,-124 250,-160"/>
<text text-anchor="middle" x="223" y="-139.1" font-family="Courier,monospace" font-size="11.00">Query</text>
</a>
</g>
<!-- \\FluxAPI\\DynamicModel -->
<g id="node7" class="node"><title>\\FluxAPI\\DynamicModel</title>
<a xlink:href="FluxAPI.DynamicModel.html" xlink:title="DynamicModel" target="_parent">
<polygon fill="none" stroke="black" points="272,-106 174,-106 174,-70 272,-70 272,-106"/>
<text text-anchor="middle" x="223" y="-85.1" font-family="Courier,monospace" font-size="11.00">DynamicModel</text>
</a>
</g>
<!-- \\FluxAPI\\DynamicModel&#45;&gt;\\FluxAPI\\Model -->
<g id="edge9" class="edge"><title>\\FluxAPI\\DynamicModel&#45;&gt;\\FluxAPI\\Model</title>
<path fill="none" stroke="black" d="M188.979,-106.112C183.905,-108.995 178.777,-112.014 174,-115 145.355,-132.905 114.089,-155.11 91.3989,-171.74"/>
<polygon fill="none" stroke="black" points="89.1209,-169.071 83.1458,-177.82 93.2728,-174.707 89.1209,-169.071"/>
</g>
<!-- \\FluxAPI\\Field -->
<g id="node8" class="node"><title>\\FluxAPI\\Field</title>
<a xlink:href="FluxAPI.Field.html" xlink:title="Field" target="_parent">
<polygon fill="none" stroke="black" points="250,-52 196,-52 196,-16 250,-16 250,-52"/>
<text text-anchor="middle" x="223" y="-31.1" font-family="Courier,monospace" font-size="11.00">Field</text>
</a>
</g>
<!-- \\Plugins\\Core\\Model\\Node -->
<g id="node12" class="node"><title>\\Plugins\\Core\\Model\\Node</title>
<a xlink:href="Plugins.Core.Model.Node.html" xlink:title="Node" target="_parent">
<polygon fill="none" stroke="black" points="398,-368 344,-368 344,-332 398,-332 398,-368"/>
<text text-anchor="middle" x="371" y="-347.1" font-family="Courier,monospace" font-size="11.00">Node</text>
</a>
</g>
<!-- \\Plugins\\Core\\Model\\Node&#45;&gt;\\FluxAPI\\Model -->
<g id="edge13" class="edge"><title>\\Plugins\\Core\\Model\\Node&#45;&gt;\\FluxAPI\\Model</title>
<path fill="none" stroke="black" d="M343.721,-353.532C303.955,-357.373 228.839,-359.598 174,-331 127.537,-306.77 92.0232,-255.086 73.4372,-223.164"/>
<polygon fill="none" stroke="black" points="76.4088,-221.308 68.4338,-214.333 70.3185,-224.759 76.4088,-221.308"/>
</g>
<!-- \\Plugins\\Core\\Storage\\MySql -->
<g id="node14" class="node"><title>\\Plugins\\Core\\Storage\\MySql</title>
<a xlink:href="Plugins.Core.Storage.MySql.html" xlink:title="MySql" target="_parent">
<polygon fill="none" stroke="black" points="398,-286 344,-286 344,-250 398,-250 398,-286"/>
<text text-anchor="middle" x="371" y="-265.1" font-family="Courier,monospace" font-size="11.00">MySql</text>
</a>
</g>
<!-- \\Plugins\\Core\\Storage\\MySql&#45;&gt;\\FluxAPI\\Storage -->
<g id="edge11" class="edge"><title>\\Plugins\\Core\\Storage\\MySql&#45;&gt;\\FluxAPI\\Storage</title>
<path fill="none" stroke="black" d="M343.855,-264.699C324.809,-262.382 298.729,-259.21 275.671,-256.406"/>
<polygon fill="none" stroke="black" points="276.014,-252.922 265.665,-255.189 275.169,-259.871 276.014,-252.922"/>
</g>
<!-- \\Plugins\\Core\\Rest -->
<g id="node15" class="node"><title>\\Plugins\\Core\\Rest</title>
<a xlink:href="Plugins.Core.Rest.html" xlink:title="Rest" target="_parent">
<polygon fill="none" stroke="black" points="398,-232 344,-232 344,-196 398,-196 398,-232"/>
<text text-anchor="middle" x="371" y="-211.1" font-family="Courier,monospace" font-size="11.00">Rest</text>
</a>
</g>
<!-- \\Plugins\\Core\\Core -->
<g id="node16" class="node"><title>\\Plugins\\Core\\Core</title>
<a xlink:href="Plugins.Core.Core.html" xlink:title="Core" target="_parent">
<polygon fill="none" stroke="black" points="398,-178 344,-178 344,-142 398,-142 398,-178"/>
<text text-anchor="middle" x="371" y="-157.1" font-family="Courier,monospace" font-size="11.00">Core</text>
</a>
</g>
<!-- \\Plugins\\Core\\Core&#45;&gt;\\FluxAPI\\Plugin -->
<g id="edge15" class="edge"><title>\\Plugins\\Core\\Core&#45;&gt;\\FluxAPI\\Plugin</title>
<path fill="none" stroke="black" d="M343.855,-166.603C324.809,-171.236 298.729,-177.579 275.671,-183.188"/>
<polygon fill="none" stroke="black" points="274.554,-179.858 265.665,-185.622 276.209,-186.659 274.554,-179.858"/>
</g>
</g>
</svg>
