<?xml version="1.0" encoding="UTF-8" standalone="no"?>
<!DOCTYPE svg PUBLIC "-//W3C//DTD SVG 1.1//EN"
 "http://www.w3.org/Graphics/SVG/1.1/DTD/svg11.dtd">
<!-- Generated by graphviz version 2.26.3 (20100126.1600)
 -->
<!-- Title: G Pages: 1 -->
<svg width="1050pt" height="1050pt"
 viewBox="0.00 0.00 1050.00 1049.75" xmlns="http://www.w3.org/2000/svg" xmlns:xlink="http://www.w3.org/1999/xlink">
<g id="graph1" class="graph" transform="scale(1 1) rotate(0) translate(4 1045.75)">
<title>G</title>
<polygon fill="white" stroke="white" points="-4,5 -4,-1045.75 1047,-1045.75 1047,5 -4,5"/>
<g id="graph2" class="cluster"><title>cluster_FluxAPI</title>
<polyline fill="none" stroke="gray" points="301,-162.614 888,-162.614 "/>
<path fill="none" stroke="gray" d="M888,-162.614C894,-162.614 900,-168.614 900,-174.614"/>
<polyline fill="none" stroke="gray" points="900,-174.614 900,-994.614 "/>
<path fill="none" stroke="gray" d="M900,-994.614C900,-1000.61 894,-1006.61 888,-1006.61"/>
<polyline fill="none" stroke="gray" points="888,-1006.61 301,-1006.61 "/>
<path fill="none" stroke="gray" d="M301,-1006.61C295,-1006.61 289,-1000.61 289,-994.614"/>
<polyline fill="none" stroke="gray" points="289,-994.614 289,-174.614 "/>
<path fill="none" stroke="gray" d="M289,-174.614C289,-168.614 295,-162.614 301,-162.614"/>
<text text-anchor="middle" x="594.5" y="-992.714" font-family="Times Roman,serif" font-size="11.00" fill="gray">FluxAPI</text>
</g>
<g id="graph3" class="cluster"><title>cluster_FluxAPI\Event</title>
<polyline fill="none" stroke="gray" points="780,-858.614 856,-858.614 "/>
<path fill="none" stroke="gray" d="M856,-858.614C862,-858.614 868,-864.614 868,-870.614"/>
<polyline fill="none" stroke="gray" points="868,-870.614 868,-920.614 "/>
<path fill="none" stroke="gray" d="M868,-920.614C868,-926.614 862,-932.614 856,-932.614"/>
<polyline fill="none" stroke="gray" points="856,-932.614 780,-932.614 "/>
<path fill="none" stroke="gray" d="M780,-932.614C774,-932.614 768,-926.614 768,-920.614"/>
<polyline fill="none" stroke="gray" points="768,-920.614 768,-870.614 "/>
<path fill="none" stroke="gray" d="M768,-870.614C768,-864.614 774,-858.614 780,-858.614"/>
<text text-anchor="middle" x="818" y="-918.714" font-family="Times Roman,serif" font-size="11.00" fill="gray">Event</text>
</g>
<g id="graph4" class="cluster"><title>cluster_FluxAPI\EventListener</title>
<polyline fill="none" stroke="gray" points="770,-776.614 866,-776.614 "/>
<path fill="none" stroke="gray" d="M866,-776.614C872,-776.614 878,-782.614 878,-788.614"/>
<polyline fill="none" stroke="gray" points="878,-788.614 878,-838.614 "/>
<path fill="none" stroke="gray" d="M878,-838.614C878,-844.614 872,-850.614 866,-850.614"/>
<polyline fill="none" stroke="gray" points="866,-850.614 770,-850.614 "/>
<path fill="none" stroke="gray" d="M770,-850.614C764,-850.614 758,-844.614 758,-838.614"/>
<polyline fill="none" stroke="gray" points="758,-838.614 758,-788.614 "/>
<path fill="none" stroke="gray" d="M758,-788.614C758,-782.614 764,-776.614 770,-776.614"/>
<text text-anchor="middle" x="818" y="-836.714" font-family="Times Roman,serif" font-size="11.00" fill="gray">EventListener</text>
</g>
<g id="graph5" class="cluster"><title>cluster_FluxAPI\Factory</title>
<polyline fill="none" stroke="gray" points="756,-216.614 880,-216.614 "/>
<path fill="none" stroke="gray" d="M880,-216.614C886,-216.614 892,-222.614 892,-228.614"/>
<polyline fill="none" stroke="gray" points="892,-228.614 892,-494.614 "/>
<path fill="none" stroke="gray" d="M892,-494.614C892,-500.614 886,-506.614 880,-506.614"/>
<polyline fill="none" stroke="gray" points="880,-506.614 756,-506.614 "/>
<path fill="none" stroke="gray" d="M756,-506.614C750,-506.614 744,-500.614 744,-494.614"/>
<polyline fill="none" stroke="gray" points="744,-494.614 744,-228.614 "/>
<path fill="none" stroke="gray" d="M744,-228.614C744,-222.614 750,-216.614 756,-216.614"/>
<text text-anchor="middle" x="818" y="-492.714" font-family="Times Roman,serif" font-size="11.00" fill="gray">Factory</text>
</g>
<g id="graph6" class="cluster"><title>cluster_Plugins</title>
<polyline fill="none" stroke="gray" points="944,-552.614 1022,-552.614 "/>
<path fill="none" stroke="gray" d="M1022,-552.614C1028,-552.614 1034,-558.614 1034,-564.614"/>
<polyline fill="none" stroke="gray" points="1034,-564.614 1034,-872.614 "/>
<path fill="none" stroke="gray" d="M1034,-872.614C1034,-878.614 1028,-884.614 1022,-884.614"/>
<polyline fill="none" stroke="gray" points="1022,-884.614 944,-884.614 "/>
<path fill="none" stroke="gray" d="M944,-884.614C938,-884.614 932,-878.614 932,-872.614"/>
<polyline fill="none" stroke="gray" points="932,-872.614 932,-564.614 "/>
<path fill="none" stroke="gray" d="M932,-564.614C932,-558.614 938,-552.614 944,-552.614"/>
<text text-anchor="middle" x="983" y="-870.714" font-family="Times Roman,serif" font-size="11.00" fill="gray">Plugins</text>
</g>
<g id="graph7" class="cluster"><title>cluster_Plugins\Core</title>
<polyline fill="none" stroke="gray" points="952,-560.614 1014,-560.614 "/>
<path fill="none" stroke="gray" d="M1014,-560.614C1020,-560.614 1026,-566.614 1026,-572.614"/>
<polyline fill="none" stroke="gray" points="1026,-572.614 1026,-842.614 "/>
<path fill="none" stroke="gray" d="M1026,-842.614C1026,-848.614 1020,-854.614 1014,-854.614"/>
<polyline fill="none" stroke="gray" points="1014,-854.614 952,-854.614 "/>
<path fill="none" stroke="gray" d="M952,-854.614C946,-854.614 940,-848.614 940,-842.614"/>
<polyline fill="none" stroke="gray" points="940,-842.614 940,-572.614 "/>
<path fill="none" stroke="gray" d="M940,-572.614C940,-566.614 946,-560.614 952,-560.614"/>
<text text-anchor="middle" x="983" y="-840.714" font-family="Times Roman,serif" font-size="11.00" fill="gray">Core</text>
</g>
<g id="graph8" class="cluster"><title>cluster_Plugins\Core\Model</title>
<polyline fill="none" stroke="gray" points="960,-750.614 1006,-750.614 "/>
<path fill="none" stroke="gray" d="M1006,-750.614C1012,-750.614 1018,-756.614 1018,-762.614"/>
<polyline fill="none" stroke="gray" points="1018,-762.614 1018,-812.614 "/>
<path fill="none" stroke="gray" d="M1018,-812.614C1018,-818.614 1012,-824.614 1006,-824.614"/>
<polyline fill="none" stroke="gray" points="1006,-824.614 960,-824.614 "/>
<path fill="none" stroke="gray" d="M960,-824.614C954,-824.614 948,-818.614 948,-812.614"/>
<polyline fill="none" stroke="gray" points="948,-812.614 948,-762.614 "/>
<path fill="none" stroke="gray" d="M948,-762.614C948,-756.614 954,-750.614 960,-750.614"/>
<text text-anchor="middle" x="983" y="-810.714" font-family="Times Roman,serif" font-size="11.00" fill="gray">Model</text>
</g>
<g id="graph9" class="cluster"><title>cluster_Plugins\Core\Storage</title>
<polyline fill="none" stroke="gray" points="960,-668.614 1006,-668.614 "/>
<path fill="none" stroke="gray" d="M1006,-668.614C1012,-668.614 1018,-674.614 1018,-680.614"/>
<polyline fill="none" stroke="gray" points="1018,-680.614 1018,-730.614 "/>
<path fill="none" stroke="gray" d="M1018,-730.614C1018,-736.614 1012,-742.614 1006,-742.614"/>
<polyline fill="none" stroke="gray" points="1006,-742.614 960,-742.614 "/>
<path fill="none" stroke="gray" d="M960,-742.614C954,-742.614 948,-736.614 948,-730.614"/>
<polyline fill="none" stroke="gray" points="948,-730.614 948,-680.614 "/>
<path fill="none" stroke="gray" d="M948,-680.614C948,-674.614 954,-668.614 960,-668.614"/>
<text text-anchor="middle" x="983" y="-728.714" font-family="Times Roman,serif" font-size="11.00" fill="gray">Storage</text>
</g>
<!-- \\FluxAPI\\Event\\ModelEvent -->
<g id="node3" class="node"><title>\\FluxAPI\\Event\\ModelEvent</title>
<a xlink:href="FluxAPI.Event.ModelEvent.html" xlink:title="ModelEvent" target="_parent">
<polygon fill="none" stroke="black" points="860,-902.614 776,-902.614 776,-866.614 860,-866.614 860,-902.614"/>
<text text-anchor="middle" x="818" y="-881.714" font-family="Courier,monospace" font-size="11.00">ModelEvent</text>
</a>
</g>
<!-- \\Symfony\\Component\\EventDispatcher\\Event -->
<g id="node35" class="node"><title>\\Symfony\\Component\\EventDispatcher\\Event</title>
<ellipse fill="none" stroke="black" cx="340" cy="-136.614" rx="232.138" ry="18.3848"/>
<text text-anchor="middle" x="340" y="-133.014" font-family="Times Roman,serif" font-size="14.00" fill="gray">\Symfony\Component\EventDispatcher\Event</text>
</g>
<!-- \\FluxAPI\\Event\\ModelEvent&#45;&gt;\\Symfony\\Component\\EventDispatcher\\Event -->
<g id="edge18" class="edge"><title>\\FluxAPI\\Event\\ModelEvent&#45;&gt;\\Symfony\\Component\\EventDispatcher\\Event</title>
<path fill="none" stroke="black" d="M775.937,-876.347C763.809,-871.9 751.768,-865.076 744,-854.614 651.41,-729.91 791.304,-266.944 680,-158.614 660.646,-139.777 611.838,-131.579 557.052,-128.828"/>
<polygon fill="none" stroke="black" points="556.902,-125.318 546.759,-128.376 556.595,-132.311 556.902,-125.318"/>
</g>
<!-- \\FluxAPI\\EventListener\\ModelListener -->
<g id="node5" class="node"><title>\\FluxAPI\\EventListener\\ModelListener</title>
<a xlink:href="FluxAPI.EventListener.ModelListener.html" xlink:title="ModelListener" target="_parent">
<polygon fill="none" stroke="black" points="870,-820.614 766,-820.614 766,-784.614 870,-784.614 870,-820.614"/>
<text text-anchor="middle" x="818" y="-799.714" font-family="Courier,monospace" font-size="11.00">ModelListener</text>
</a>
</g>
<!-- \\Symfony\\Component\\EventDispatcher\\EventSubscriberInterface -->
<g id="node40" class="node"><title>\\Symfony\\Component\\EventDispatcher\\EventSubscriberInterface</title>
<ellipse fill="none" stroke="black" cx="340" cy="-82.6139" rx="340.118" ry="18.3848"/>
<text text-anchor="middle" x="340" y="-79.0139" font-family="Times Roman,serif" font-size="14.00" fill="gray">\\Symfony\\Component\\EventDispatcher\\EventSubscriberInterface</text>
</g>
<!-- \\FluxAPI\\EventListener\\ModelListener&#45;&gt;\\Symfony\\Component\\EventDispatcher\\EventSubscriberInterface -->
<g id="edge26" class="edge"><title>\\FluxAPI\\EventListener\\ModelListener&#45;&gt;\\Symfony\\Component\\EventDispatcher\\EventSubscriberInterface</title>
<path fill="none" stroke="black" stroke-dasharray="1,5" d="M765.882,-795.685C757.493,-792.36 749.705,-787.549 744,-780.614 648.833,-664.944 786.752,-214.687 680,-109.614 673.653,-103.366 664.102,-98.2141 652.189,-93.9863"/>
<polygon fill="none" stroke="black" points="653.223,-90.6425 642.632,-90.9305 651.091,-97.3099 653.223,-90.6425"/>
</g>
<!-- \\FluxAPI\\Factory\\ModelFactory -->
<g id="node7" class="node"><title>\\FluxAPI\\Factory\\ModelFactory</title>
<a xlink:href="FluxAPI.Factory.ModelFactory.html" xlink:title="ModelFactory" target="_parent">
<polygon fill="none" stroke="black" points="867,-476.614 769,-476.614 769,-440.614 867,-440.614 867,-476.614"/>
<text text-anchor="middle" x="818" y="-455.714" font-family="Courier,monospace" font-size="11.00">ModelFactory</text>
</a>
</g>
<!-- \\FluxAPI\\Factory\\PluginFactory -->
<g id="node8" class="node"><title>\\FluxAPI\\Factory\\PluginFactory</title>
<a xlink:href="FluxAPI.Factory.PluginFactory.html" xlink:title="PluginFactory" target="_parent">
<polygon fill="none" stroke="black" points="870,-422.614 766,-422.614 766,-386.614 870,-386.614 870,-422.614"/>
<text text-anchor="middle" x="818" y="-401.714" font-family="Courier,monospace" font-size="11.00">PluginFactory</text>
</a>
</g>
<!-- \\FluxAPI\\Factory\\PermissionFactory -->
<g id="node9" class="node"><title>\\FluxAPI\\Factory\\PermissionFactory</title>
<a xlink:href="FluxAPI.Factory.PermissionFactory.html" xlink:title="PermissionFactory" target="_parent">
<polygon fill="none" stroke="black" points="883,-368.614 753,-368.614 753,-332.614 883,-332.614 883,-368.614"/>
<text text-anchor="middle" x="818" y="-347.714" font-family="Courier,monospace" font-size="11.00">PermissionFactory</text>
</a>
</g>
<!-- \\FluxAPI\\Factory\\ControllerFactory -->
<g id="node10" class="node"><title>\\FluxAPI\\Factory\\ControllerFactory</title>
<a xlink:href="FluxAPI.Factory.ControllerFactory.html" xlink:title="ControllerFactory" target="_parent">
<polygon fill="none" stroke="black" points="883,-314.614 753,-314.614 753,-278.614 883,-278.614 883,-314.614"/>
<text text-anchor="middle" x="818" y="-293.714" font-family="Courier,monospace" font-size="11.00">ControllerFactory</text>
</a>
</g>
<!-- \\FluxAPI\\Factory\\StorageFactory -->
<g id="node11" class="node"><title>\\FluxAPI\\Factory\\StorageFactory</title>
<a xlink:href="FluxAPI.Factory.StorageFactory.html" xlink:title="StorageFactory" target="_parent">
<polygon fill="none" stroke="black" points="873,-260.614 763,-260.614 763,-224.614 873,-224.614 873,-260.614"/>
<text text-anchor="middle" x="818" y="-239.714" font-family="Courier,monospace" font-size="11.00">StorageFactory</text>
</a>
</g>
<!-- \\Pimple -->
<g id="node31" class="node"><title>\\Pimple</title>
<ellipse fill="none" stroke="black" cx="340" cy="-28.6139" rx="46.8775" ry="18.3848"/>
<text text-anchor="middle" x="340" y="-25.0139" font-family="Times Roman,serif" font-size="14.00" fill="gray">\Pimple</text>
</g>
<!-- \\FluxAPI\\Factory\\StorageFactory&#45;&gt;\\Pimple -->
<g id="edge16" class="edge"><title>\\FluxAPI\\Factory\\StorageFactory&#45;&gt;\\Pimple</title>
<path fill="none" stroke="black" d="M762.427,-232.302C755.69,-229.335 749.321,-225.52 744,-220.614 686.174,-167.294 743.089,-102.588 680,-55.6139 595.009,7.66747 462.705,-4.32811 390.762,-17.2815"/>
<polygon fill="none" stroke="black" points="389.781,-13.9047 380.599,-19.1908 391.073,-20.7843 389.781,-13.9047"/>
</g>
<!-- \\FluxAPI\\Api -->
<g id="node12" class="node"><title>\\FluxAPI\\Api</title>
<a xlink:href="FluxAPI.Api.html" xlink:title="Api" target="_parent">
<polygon fill="none" stroke="black" points="845,-766.614 791,-766.614 791,-730.614 845,-730.614 845,-766.614"/>
<text text-anchor="middle" x="818" y="-745.714" font-family="Courier,monospace" font-size="11.00">Api</text>
</a>
</g>
<!-- \\FluxAPI\\Api&#45;&gt;\\Pimple -->
<g id="edge12" class="edge"><title>\\FluxAPI\\Api&#45;&gt;\\Pimple</title>
<path fill="none" stroke="black" d="M790.874,-745.868C774.667,-742.727 755.128,-736.001 744,-721.614 653.032,-604.008 786.001,-159.874 680,-55.6139 602.688,20.4284 461.991,1.49065 388.163,-15.4499"/>
<polygon fill="none" stroke="black" points="387.122,-12.0996 378.202,-17.817 388.741,-18.9099 387.122,-12.0996"/>
</g>
<!-- \\FluxAPI\\Model -->
<g id="node13" class="node"><title>\\FluxAPI\\Model</title>
<a xlink:href="FluxAPI.Model.html" xlink:title="«abstract»&lt;br/&gt;Model" target="_parent">
<polygon fill="none" stroke="black" points="382,-976.614 298,-976.614 298,-940.614 382,-940.614 382,-976.614"/>
<text text-anchor="start" x="306" y="-964.047" font-family="Courier,monospace" font-size="11.00">«abstract»</text>
<text text-anchor="start" x="323" y="-950.847" font-family="Courier,monospace" font-size="11.00">Model</text>
</a>
</g>
<!-- \\FluxAPI\\Storage -->
<g id="node14" class="node"><title>\\FluxAPI\\Storage</title>
<a xlink:href="FluxAPI.Storage.html" xlink:title="«abstract»&lt;br/&gt;Storage" target="_parent">
<polygon fill="none" stroke="black" points="860,-712.614 776,-712.614 776,-676.614 860,-676.614 860,-712.614"/>
<text text-anchor="start" x="784" y="-700.047" font-family="Courier,monospace" font-size="11.00">«abstract»</text>
<text text-anchor="start" x="794" y="-686.847" font-family="Courier,monospace" font-size="11.00">Storage</text>
</a>
</g>
<!-- \\FluxAPI\\Permission -->
<g id="node15" class="node"><title>\\FluxAPI\\Permission</title>
<a xlink:href="FluxAPI.Permission.html" xlink:title="«abstract»&lt;br/&gt;Permission" target="_parent">
<polygon fill="none" stroke="black" points="860,-658.614 776,-658.614 776,-622.614 860,-622.614 860,-658.614"/>
<text text-anchor="start" x="784" y="-646.047" font-family="Courier,monospace" font-size="11.00">«abstract»</text>
<text text-anchor="start" x="784" y="-632.847" font-family="Courier,monospace" font-size="11.00">Permission</text>
</a>
</g>
<!-- \\FluxAPI\\Plugin -->
<g id="node16" class="node"><title>\\FluxAPI\\Plugin</title>
<a xlink:href="FluxAPI.Plugin.html" xlink:title="«abstract»&lt;br/&gt;Plugin" target="_parent">
<polygon fill="none" stroke="black" points="860,-604.614 776,-604.614 776,-568.614 860,-568.614 860,-604.614"/>
<text text-anchor="start" x="784" y="-592.047" font-family="Courier,monospace" font-size="11.00">«abstract»</text>
<text text-anchor="start" x="797.5" y="-578.847" font-family="Courier,monospace" font-size="11.00">Plugin</text>
</a>
</g>
<!-- \\FluxAPI\\Query -->
<g id="node17" class="node"><title>\\FluxAPI\\Query</title>
<a xlink:href="FluxAPI.Query.html" xlink:title="Query" target="_parent">
<polygon fill="none" stroke="black" points="845,-550.614 791,-550.614 791,-514.614 845,-514.614 845,-550.614"/>
<text text-anchor="middle" x="818" y="-529.714" font-family="Courier,monospace" font-size="11.00">Query</text>
</a>
</g>
<!-- \\FluxAPI\\DynamicModel -->
<g id="node18" class="node"><title>\\FluxAPI\\DynamicModel</title>
<a xlink:href="FluxAPI.DynamicModel.html" xlink:title="DynamicModel" target="_parent">
<polygon fill="none" stroke="black" points="867,-976.614 769,-976.614 769,-940.614 867,-940.614 867,-976.614"/>
<text text-anchor="middle" x="818" y="-955.714" font-family="Courier,monospace" font-size="11.00">DynamicModel</text>
</a>
</g>
<!-- \\FluxAPI\\DynamicModel&#45;&gt;\\FluxAPI\\Model -->
<g id="edge14" class="edge"><title>\\FluxAPI\\DynamicModel&#45;&gt;\\FluxAPI\\Model</title>
<path fill="none" stroke="black" d="M768.646,-958.614C678.06,-958.614 486.031,-958.614 392.882,-958.614"/>
<polygon fill="none" stroke="black" points="392.833,-955.114 382.833,-958.614 392.833,-962.114 392.833,-955.114"/>
</g>
<!-- \\FluxAPI\\Field -->
<g id="node19" class="node"><title>\\FluxAPI\\Field</title>
<a xlink:href="FluxAPI.Field.html" xlink:title="Field" target="_parent">
<polygon fill="none" stroke="black" points="845,-206.614 791,-206.614 791,-170.614 845,-170.614 845,-206.614"/>
<text text-anchor="middle" x="818" y="-185.714" font-family="Courier,monospace" font-size="11.00">Field</text>
</a>
</g>
<!-- \\Plugins\\Core\\Model\\Node -->
<g id="node23" class="node"><title>\\Plugins\\Core\\Model\\Node</title>
<a xlink:href="Plugins.Core.Model.Node.html" xlink:title="Node" target="_parent">
<polygon fill="none" stroke="black" points="1010,-794.614 956,-794.614 956,-758.614 1010,-758.614 1010,-794.614"/>
<text text-anchor="middle" x="983" y="-773.714" font-family="Courier,monospace" font-size="11.00">Node</text>
</a>
</g>
<!-- \\Plugins\\Core\\Model\\Node&#45;&gt;\\FluxAPI\\Model -->
<g id="edge22" class="edge"><title>\\Plugins\\Core\\Model\\Node&#45;&gt;\\FluxAPI\\Model</title>
<path fill="none" stroke="black" d="M982.189,-794.676C979.205,-836.8 965.249,-941.32 900,-985.614 742.249,-1092.7 498.036,-1020.1 392.041,-980.097"/>
<polygon fill="none" stroke="black" points="393.115,-976.76 382.525,-976.452 390.611,-983.297 393.115,-976.76"/>
</g>
<!-- \\Plugins\\Core\\Storage\\MySql -->
<g id="node25" class="node"><title>\\Plugins\\Core\\Storage\\MySql</title>
<a xlink:href="Plugins.Core.Storage.MySql.html" xlink:title="MySql" target="_parent">
<polygon fill="none" stroke="black" points="1010,-712.614 956,-712.614 956,-676.614 1010,-676.614 1010,-712.614"/>
<text text-anchor="middle" x="983" y="-691.714" font-family="Courier,monospace" font-size="11.00">MySql</text>
</a>
</g>
<!-- \\Plugins\\Core\\Storage\\MySql&#45;&gt;\\FluxAPI\\Storage -->
<g id="edge20" class="edge"><title>\\Plugins\\Core\\Storage\\MySql&#45;&gt;\\FluxAPI\\Storage</title>
<path fill="none" stroke="black" d="M955.754,-694.614C932.765,-694.614 899.182,-694.614 870.931,-694.614"/>
<polygon fill="none" stroke="black" points="870.793,-691.114 860.793,-694.614 870.793,-698.114 870.793,-691.114"/>
</g>
<!-- \\Plugins\\Core\\Rest -->
<g id="node26" class="node"><title>\\Plugins\\Core\\Rest</title>
<a xlink:href="Plugins.Core.Rest.html" xlink:title="Rest" target="_parent">
<polygon fill="none" stroke="black" points="1010,-658.614 956,-658.614 956,-622.614 1010,-622.614 1010,-658.614"/>
<text text-anchor="middle" x="983" y="-637.714" font-family="Courier,monospace" font-size="11.00">Rest</text>
</a>
</g>
<!-- \\Plugins\\Core\\Core -->
<g id="node27" class="node"><title>\\Plugins\\Core\\Core</title>
<a xlink:href="Plugins.Core.Core.html" xlink:title="Core" target="_parent">
<polygon fill="none" stroke="black" points="1010,-604.614 956,-604.614 956,-568.614 1010,-568.614 1010,-604.614"/>
<text text-anchor="middle" x="983" y="-583.714" font-family="Courier,monospace" font-size="11.00">Core</text>
</a>
</g>
<!-- \\Plugins\\Core\\Core&#45;&gt;\\FluxAPI\\Plugin -->
<g id="edge24" class="edge"><title>\\Plugins\\Core\\Core&#45;&gt;\\FluxAPI\\Plugin</title>
<path fill="none" stroke="black" d="M955.754,-586.614C932.765,-586.614 899.182,-586.614 870.931,-586.614"/>
<polygon fill="none" stroke="black" points="870.793,-583.114 860.793,-586.614 870.793,-590.114 870.793,-583.114"/>
</g>
</g>
</svg>
