<?xml version="1.0" encoding="UTF-8" standalone="no"?>
<!DOCTYPE svg PUBLIC "-//W3C//DTD SVG 1.1//EN"
 "http://www.w3.org/Graphics/SVG/1.1/DTD/svg11.dtd">
<!-- Generated by graphviz version 2.26.3 (20100126.1600)
 -->
<!-- Title: G Pages: 1 -->
<svg width="477pt" height="646pt"
 viewBox="0.00 0.00 477.00 646.00" xmlns="http://www.w3.org/2000/svg" xmlns:xlink="http://www.w3.org/1999/xlink">
<g id="graph1" class="graph" transform="scale(1 1) rotate(0) translate(4 642)">
<title>G</title>
<polygon fill="white" stroke="white" points="-4,5 -4,-642 474,-642 474,5 -4,5"/>
<g id="graph2" class="cluster"><title>cluster_FluxAPI</title>
<polyline fill="none" stroke="gray" points="20,-44 307,-44 "/>
<path fill="none" stroke="gray" d="M307,-44C313,-44 319,-50 319,-56"/>
<polyline fill="none" stroke="gray" points="319,-56 319,-538 "/>
<path fill="none" stroke="gray" d="M319,-538C319,-544 313,-550 307,-550"/>
<polyline fill="none" stroke="gray" points="307,-550 20,-550 "/>
<path fill="none" stroke="gray" d="M20,-550C14,-550 8,-544 8,-538"/>
<polyline fill="none" stroke="gray" points="8,-538 8,-56 "/>
<path fill="none" stroke="gray" d="M8,-56C8,-50 14,-44 20,-44"/>
<text text-anchor="middle" x="163.5" y="-536.1" font-family="Times Roman,serif" font-size="11.00" fill="gray">FluxAPI</text>
</g>
<g id="graph3" class="cluster"><title>cluster_Plugins</title>
<polyline fill="none" stroke="gray" points="371,-298 449,-298 "/>
<path fill="none" stroke="gray" d="M449,-298C455,-298 461,-304 461,-310"/>
<polyline fill="none" stroke="gray" points="461,-310 461,-618 "/>
<path fill="none" stroke="gray" d="M461,-618C461,-624 455,-630 449,-630"/>
<polyline fill="none" stroke="gray" points="449,-630 371,-630 "/>
<path fill="none" stroke="gray" d="M371,-630C365,-630 359,-624 359,-618"/>
<polyline fill="none" stroke="gray" points="359,-618 359,-310 "/>
<path fill="none" stroke="gray" d="M359,-310C359,-304 365,-298 371,-298"/>
<text text-anchor="middle" x="410" y="-616.1" font-family="Times Roman,serif" font-size="11.00" fill="gray">Plugins</text>
</g>
<g id="graph4" class="cluster"><title>cluster_Plugins\Core</title>
<polyline fill="none" stroke="gray" points="379,-306 441,-306 "/>
<path fill="none" stroke="gray" d="M441,-306C447,-306 453,-312 453,-318"/>
<polyline fill="none" stroke="gray" points="453,-318 453,-588 "/>
<path fill="none" stroke="gray" d="M453,-588C453,-594 447,-600 441,-600"/>
<polyline fill="none" stroke="gray" points="441,-600 379,-600 "/>
<path fill="none" stroke="gray" d="M379,-600C373,-600 367,-594 367,-588"/>
<polyline fill="none" stroke="gray" points="367,-588 367,-318 "/>
<path fill="none" stroke="gray" d="M367,-318C367,-312 373,-306 379,-306"/>
<text text-anchor="middle" x="410" y="-586.1" font-family="Times Roman,serif" font-size="11.00" fill="gray">Core</text>
</g>
<g id="graph5" class="cluster"><title>cluster_Plugins\Core\Model</title>
<polyline fill="none" stroke="gray" points="387,-496 433,-496 "/>
<path fill="none" stroke="gray" d="M433,-496C439,-496 445,-502 445,-508"/>
<polyline fill="none" stroke="gray" points="445,-508 445,-558 "/>
<path fill="none" stroke="gray" d="M445,-558C445,-564 439,-570 433,-570"/>
<polyline fill="none" stroke="gray" points="433,-570 387,-570 "/>
<path fill="none" stroke="gray" d="M387,-570C381,-570 375,-564 375,-558"/>
<polyline fill="none" stroke="gray" points="375,-558 375,-508 "/>
<path fill="none" stroke="gray" d="M375,-508C375,-502 381,-496 387,-496"/>
<text text-anchor="middle" x="410" y="-556.1" font-family="Times Roman,serif" font-size="11.00" fill="gray">Model</text>
</g>
<g id="graph6" class="cluster"><title>cluster_Plugins\Core\Storage</title>
<polyline fill="none" stroke="gray" points="387,-314 433,-314 "/>
<path fill="none" stroke="gray" d="M433,-314C439,-314 445,-320 445,-326"/>
<polyline fill="none" stroke="gray" points="445,-326 445,-376 "/>
<path fill="none" stroke="gray" d="M445,-376C445,-382 439,-388 433,-388"/>
<polyline fill="none" stroke="gray" points="433,-388 387,-388 "/>
<path fill="none" stroke="gray" d="M387,-388C381,-388 375,-382 375,-376"/>
<polyline fill="none" stroke="gray" points="375,-376 375,-326 "/>
<path fill="none" stroke="gray" d="M375,-326C375,-320 381,-314 387,-314"/>
<text text-anchor="middle" x="410" y="-374.1" font-family="Times Roman,serif" font-size="11.00" fill="gray">Storage</text>
</g>
<!-- \\FluxAPI\\Api -->
<g id="node2" class="node"><title>\\FluxAPI\\Api</title>
<a xlink:href="FluxAPI.Api.html" xlink:title="Api" target="_parent">
<polygon fill="none" stroke="black" points="272,-250 218,-250 218,-214 272,-214 272,-250"/>
<text text-anchor="middle" x="245" y="-229.1" font-family="Courier,monospace" font-size="11.00">Api</text>
</a>
</g>
<!-- \\Pimple -->
<g id="node23" class="node"><title>\\Pimple</title>
<ellipse fill="none" stroke="black" cx="59" cy="-18" rx="46.8775" ry="18.3848"/>
<text text-anchor="middle" x="59" y="-14.4" font-family="Times Roman,serif" font-size="14.00" fill="gray">\Pimple</text>
</g>
<!-- \\FluxAPI\\Api&#45;&gt;\\Pimple -->
<g id="edge9" class="edge"><title>\\FluxAPI\\Api&#45;&gt;\\Pimple</title>
<path fill="none" stroke="black" d="M217.907,-226.027C204.792,-221.964 189.626,-215.383 179,-205 121.773,-149.082 163.056,-97.0919 107,-40 105.603,-38.5773 104.097,-37.2376 102.511,-35.977"/>
<polygon fill="none" stroke="black" points="104.299,-32.9623 94.0399,-30.3154 100.409,-38.7821 104.299,-32.9623"/>
</g>
<!-- \\FluxAPI\\ModelFactory -->
<g id="node3" class="node"><title>\\FluxAPI\\ModelFactory</title>
<a xlink:href="FluxAPI.ModelFactory.html" xlink:title="ModelFactory" target="_parent">
<polygon fill="none" stroke="black" points="294,-466 196,-466 196,-430 294,-430 294,-466"/>
<text text-anchor="middle" x="245" y="-445.1" font-family="Courier,monospace" font-size="11.00">ModelFactory</text>
</a>
</g>
<!-- \\FluxAPI\\Model -->
<g id="node4" class="node"><title>\\FluxAPI\\Model</title>
<a xlink:href="FluxAPI.Model.html" xlink:title="«abstract»&lt;br/&gt;Model" target="_parent">
<polygon fill="none" stroke="black" points="101,-520 17,-520 17,-484 101,-484 101,-520"/>
<text text-anchor="start" x="25" y="-507.433" font-family="Courier,monospace" font-size="11.00">«abstract»</text>
<text text-anchor="start" x="42" y="-494.233" font-family="Courier,monospace" font-size="11.00">Model</text>
</a>
</g>
<!-- \\FluxAPI\\Storage -->
<g id="node5" class="node"><title>\\FluxAPI\\Storage</title>
<a xlink:href="FluxAPI.Storage.html" xlink:title="«abstract»&lt;br/&gt;Storage" target="_parent">
<polygon fill="none" stroke="black" points="287,-358 203,-358 203,-322 287,-322 287,-358"/>
<text text-anchor="start" x="211" y="-345.433" font-family="Courier,monospace" font-size="11.00">«abstract»</text>
<text text-anchor="start" x="221" y="-332.233" font-family="Courier,monospace" font-size="11.00">Storage</text>
</a>
</g>
<!-- \\FluxAPI\\Plugin -->
<g id="node6" class="node"><title>\\FluxAPI\\Plugin</title>
<a xlink:href="FluxAPI.Plugin.html" xlink:title="«abstract»&lt;br/&gt;Plugin" target="_parent">
<polygon fill="none" stroke="black" points="287,-412 203,-412 203,-376 287,-376 287,-412"/>
<text text-anchor="start" x="211" y="-399.433" font-family="Courier,monospace" font-size="11.00">«abstract»</text>
<text text-anchor="start" x="224.5" y="-386.233" font-family="Courier,monospace" font-size="11.00">Plugin</text>
</a>
</g>
<!-- \\FluxAPI\\Query -->
<g id="node7" class="node"><title>\\FluxAPI\\Query</title>
<a xlink:href="FluxAPI.Query.html" xlink:title="Query" target="_parent">
<polygon fill="none" stroke="black" points="272,-304 218,-304 218,-268 272,-268 272,-304"/>
<text text-anchor="middle" x="245" y="-283.1" font-family="Courier,monospace" font-size="11.00">Query</text>
</a>
</g>
<!-- \\FluxAPI\\DynamicModel -->
<g id="node8" class="node"><title>\\FluxAPI\\DynamicModel</title>
<a xlink:href="FluxAPI.DynamicModel.html" xlink:title="DynamicModel" target="_parent">
<polygon fill="none" stroke="black" points="294,-520 196,-520 196,-484 294,-484 294,-520"/>
<text text-anchor="middle" x="245" y="-499.1" font-family="Courier,monospace" font-size="11.00">DynamicModel</text>
</a>
</g>
<!-- \\FluxAPI\\DynamicModel&#45;&gt;\\FluxAPI\\Model -->
<g id="edge11" class="edge"><title>\\FluxAPI\\DynamicModel&#45;&gt;\\FluxAPI\\Model</title>
<path fill="none" stroke="black" d="M195.644,-502C169.801,-502 138.142,-502 111.808,-502"/>
<polygon fill="none" stroke="black" points="111.628,-498.5 101.628,-502 111.628,-505.5 111.628,-498.5"/>
</g>
<!-- \\FluxAPI\\ControllerFactory -->
<g id="node9" class="node"><title>\\FluxAPI\\ControllerFactory</title>
<a xlink:href="FluxAPI.ControllerFactory.html" xlink:title="ControllerFactory" target="_parent">
<polygon fill="none" stroke="black" points="310,-196 180,-196 180,-160 310,-160 310,-196"/>
<text text-anchor="middle" x="245" y="-175.1" font-family="Courier,monospace" font-size="11.00">ControllerFactory</text>
</a>
</g>
<!-- \\FluxAPI\\StorageFactory -->
<g id="node10" class="node"><title>\\FluxAPI\\StorageFactory</title>
<a xlink:href="FluxAPI.StorageFactory.html" xlink:title="StorageFactory" target="_parent">
<polygon fill="none" stroke="black" points="300,-142 190,-142 190,-106 300,-106 300,-142"/>
<text text-anchor="middle" x="245" y="-121.1" font-family="Courier,monospace" font-size="11.00">StorageFactory</text>
</a>
</g>
<!-- \\FluxAPI\\StorageFactory&#45;&gt;\\Pimple -->
<g id="edge13" class="edge"><title>\\FluxAPI\\StorageFactory&#45;&gt;\\Pimple</title>
<path fill="none" stroke="black" d="M196.301,-105.917C190.349,-103.175 184.451,-100.186 179,-97 143.764,-76.4032 141.801,-61.3225 107,-40 104.811,-38.6591 102.527,-37.3483 100.195,-36.0771"/>
<polygon fill="none" stroke="black" points="101.553,-32.8403 91.0582,-31.3903 98.3584,-39.0687 101.553,-32.8403"/>
</g>
<!-- \\FluxAPI\\Field -->
<g id="node11" class="node"><title>\\FluxAPI\\Field</title>
<a xlink:href="FluxAPI.Field.html" xlink:title="Field" target="_parent">
<polygon fill="none" stroke="black" points="272,-88 218,-88 218,-52 272,-52 272,-88"/>
<text text-anchor="middle" x="245" y="-67.1" font-family="Courier,monospace" font-size="11.00">Field</text>
</a>
</g>
<!-- \\Plugins\\Core\\Model\\Node -->
<g id="node15" class="node"><title>\\Plugins\\Core\\Model\\Node</title>
<a xlink:href="Plugins.Core.Model.Node.html" xlink:title="Node" target="_parent">
<polygon fill="none" stroke="black" points="437,-540 383,-540 383,-504 437,-504 437,-540"/>
<text text-anchor="middle" x="410" y="-519.1" font-family="Courier,monospace" font-size="11.00">Node</text>
</a>
</g>
<!-- \\Plugins\\Core\\Model\\Node&#45;&gt;\\FluxAPI\\Model -->
<g id="edge17" class="edge"><title>\\Plugins\\Core\\Model\\Node&#45;&gt;\\FluxAPI\\Model</title>
<path fill="none" stroke="black" d="M382.955,-524.627C364.87,-526.249 340.534,-528.173 319,-529 256.824,-531.388 240.842,-535.871 179,-529 156.657,-526.517 132.398,-521.511 111.576,-516.476"/>
<polygon fill="none" stroke="black" points="112.203,-513.025 101.654,-514.013 110.516,-519.819 112.203,-513.025"/>
</g>
<!-- \\Plugins\\Core\\Storage\\MySql -->
<g id="node17" class="node"><title>\\Plugins\\Core\\Storage\\MySql</title>
<a xlink:href="Plugins.Core.Storage.MySql.html" xlink:title="MySql" target="_parent">
<polygon fill="none" stroke="black" points="437,-358 383,-358 383,-322 437,-322 437,-358"/>
<text text-anchor="middle" x="410" y="-337.1" font-family="Courier,monospace" font-size="11.00">MySql</text>
</a>
</g>
<!-- \\Plugins\\Core\\Storage\\MySql&#45;&gt;\\FluxAPI\\Storage -->
<g id="edge15" class="edge"><title>\\Plugins\\Core\\Storage\\MySql&#45;&gt;\\FluxAPI\\Storage</title>
<path fill="none" stroke="black" d="M382.754,-340C359.765,-340 326.182,-340 297.931,-340"/>
<polygon fill="none" stroke="black" points="297.793,-336.5 287.793,-340 297.793,-343.5 297.793,-336.5"/>
</g>
<!-- \\Plugins\\Core\\Rest -->
<g id="node18" class="node"><title>\\Plugins\\Core\\Rest</title>
<a xlink:href="Plugins.Core.Rest.html" xlink:title="Rest" target="_parent">
<polygon fill="none" stroke="black" points="437,-432 383,-432 383,-396 437,-396 437,-432"/>
<text text-anchor="middle" x="410" y="-411.1" font-family="Courier,monospace" font-size="11.00">Rest</text>
</a>
</g>
<!-- \\Plugins\\Core\\Core -->
<g id="node19" class="node"><title>\\Plugins\\Core\\Core</title>
<a xlink:href="Plugins.Core.Core.html" xlink:title="Core" target="_parent">
<polygon fill="none" stroke="black" points="437,-486 383,-486 383,-450 437,-450 437,-486"/>
<text text-anchor="middle" x="410" y="-465.1" font-family="Courier,monospace" font-size="11.00">Core</text>
</a>
</g>
<!-- \\Plugins\\Core\\Core&#45;&gt;\\FluxAPI\\Plugin -->
<g id="edge19" class="edge"><title>\\Plugins\\Core\\Core&#45;&gt;\\FluxAPI\\Plugin</title>
<path fill="none" stroke="black" d="M382.566,-453.607C358.17,-440.845 325.392,-423.803 319,-421 312.112,-417.979 304.768,-415.01 297.481,-412.21"/>
<polygon fill="none" stroke="black" points="298.222,-408.749 287.63,-408.507 295.759,-415.302 298.222,-408.749"/>
</g>
</g>
</svg>
