<?xml version="1.0" encoding="UTF-8" standalone="no"?>
<!DOCTYPE svg PUBLIC "-//W3C//DTD SVG 1.1//EN"
 "http://www.w3.org/Graphics/SVG/1.1/DTD/svg11.dtd">
<!-- Generated by graphviz version 2.26.3 (20100126.1600)
 -->
<!-- Title: G Pages: 1 -->
<svg width="1242pt" height="1747pt"
 viewBox="0.00 0.00 1242.00 1746.90" xmlns="http://www.w3.org/2000/svg" xmlns:xlink="http://www.w3.org/1999/xlink">
<g id="graph1" class="graph" transform="scale(1 1) rotate(0) translate(4 1742.9)">
<title>G</title>
<polygon fill="white" stroke="white" points="-4,5 -4,-1742.9 1239,-1742.9 1239,5 -4,5"/>
<g id="graph2" class="cluster"><title>cluster_FluxAPI</title>
<polyline fill="none" stroke="gray" points="469,-194.904 1056,-194.904 "/>
<path fill="none" stroke="gray" d="M1056,-194.904C1062,-194.904 1068,-200.904 1068,-206.904"/>
<polyline fill="none" stroke="gray" points="1068,-206.904 1068,-1270.9 "/>
<path fill="none" stroke="gray" d="M1068,-1270.9C1068,-1276.9 1062,-1282.9 1056,-1282.9"/>
<polyline fill="none" stroke="gray" points="1056,-1282.9 469,-1282.9 "/>
<path fill="none" stroke="gray" d="M469,-1282.9C463,-1282.9 457,-1276.9 457,-1270.9"/>
<polyline fill="none" stroke="gray" points="457,-1270.9 457,-206.904 "/>
<path fill="none" stroke="gray" d="M457,-206.904C457,-200.904 463,-194.904 469,-194.904"/>
<text text-anchor="middle" x="762.5" y="-1269" font-family="Times Roman,serif" font-size="11.00" fill="gray">FluxAPI</text>
</g>
<g id="graph3" class="cluster"><title>cluster_FluxAPI\Cli</title>
<polyline fill="none" stroke="gray" points="958,-1026.9 1014,-1026.9 "/>
<path fill="none" stroke="gray" d="M1014,-1026.9C1020,-1026.9 1026,-1032.9 1026,-1038.9"/>
<polyline fill="none" stroke="gray" points="1026,-1038.9 1026,-1142.9 "/>
<path fill="none" stroke="gray" d="M1026,-1142.9C1026,-1148.9 1020,-1154.9 1014,-1154.9"/>
<polyline fill="none" stroke="gray" points="1014,-1154.9 958,-1154.9 "/>
<path fill="none" stroke="gray" d="M958,-1154.9C952,-1154.9 946,-1148.9 946,-1142.9"/>
<polyline fill="none" stroke="gray" points="946,-1142.9 946,-1038.9 "/>
<path fill="none" stroke="gray" d="M946,-1038.9C946,-1032.9 952,-1026.9 958,-1026.9"/>
<text text-anchor="middle" x="986" y="-1141" font-family="Times Roman,serif" font-size="11.00" fill="gray">Cli</text>
</g>
<g id="graph4" class="cluster"><title>cluster_FluxAPI\Event</title>
<polyline fill="none" stroke="gray" points="948,-944.904 1024,-944.904 "/>
<path fill="none" stroke="gray" d="M1024,-944.904C1030,-944.904 1036,-950.904 1036,-956.904"/>
<polyline fill="none" stroke="gray" points="1036,-956.904 1036,-1006.9 "/>
<path fill="none" stroke="gray" d="M1036,-1006.9C1036,-1012.9 1030,-1018.9 1024,-1018.9"/>
<polyline fill="none" stroke="gray" points="1024,-1018.9 948,-1018.9 "/>
<path fill="none" stroke="gray" d="M948,-1018.9C942,-1018.9 936,-1012.9 936,-1006.9"/>
<polyline fill="none" stroke="gray" points="936,-1006.9 936,-956.904 "/>
<path fill="none" stroke="gray" d="M936,-956.904C936,-950.904 942,-944.904 948,-944.904"/>
<text text-anchor="middle" x="986" y="-1005" font-family="Times Roman,serif" font-size="11.00" fill="gray">Event</text>
</g>
<g id="graph5" class="cluster"><title>cluster_FluxAPI\EventListener</title>
<polyline fill="none" stroke="gray" points="938,-862.904 1034,-862.904 "/>
<path fill="none" stroke="gray" d="M1034,-862.904C1040,-862.904 1046,-868.904 1046,-874.904"/>
<polyline fill="none" stroke="gray" points="1046,-874.904 1046,-924.904 "/>
<path fill="none" stroke="gray" d="M1046,-924.904C1046,-930.904 1040,-936.904 1034,-936.904"/>
<polyline fill="none" stroke="gray" points="1034,-936.904 938,-936.904 "/>
<path fill="none" stroke="gray" d="M938,-936.904C932,-936.904 926,-930.904 926,-924.904"/>
<polyline fill="none" stroke="gray" points="926,-924.904 926,-874.904 "/>
<path fill="none" stroke="gray" d="M926,-874.904C926,-868.904 932,-862.904 938,-862.904"/>
<text text-anchor="middle" x="986" y="-923.004" font-family="Times Roman,serif" font-size="11.00" fill="gray">EventListener</text>
</g>
<g id="graph6" class="cluster"><title>cluster_FluxAPI\Factory</title>
<polyline fill="none" stroke="gray" points="924,-302.904 1048,-302.904 "/>
<path fill="none" stroke="gray" d="M1048,-302.904C1054,-302.904 1060,-308.904 1060,-314.904"/>
<polyline fill="none" stroke="gray" points="1060,-314.904 1060,-634.904 "/>
<path fill="none" stroke="gray" d="M1060,-634.904C1060,-640.904 1054,-646.904 1048,-646.904"/>
<polyline fill="none" stroke="gray" points="1048,-646.904 924,-646.904 "/>
<path fill="none" stroke="gray" d="M924,-646.904C918,-646.904 912,-640.904 912,-634.904"/>
<polyline fill="none" stroke="gray" points="912,-634.904 912,-314.904 "/>
<path fill="none" stroke="gray" d="M912,-314.904C912,-308.904 918,-302.904 924,-302.904"/>
<text text-anchor="middle" x="986" y="-633.004" font-family="Times Roman,serif" font-size="11.00" fill="gray">Factory</text>
</g>
<g id="graph7" class="cluster"><title>cluster_Plugins</title>
<polyline fill="none" stroke="gray" points="955,-1290.9 1214,-1290.9 "/>
<path fill="none" stroke="gray" d="M1214,-1290.9C1220,-1290.9 1226,-1296.9 1226,-1302.9"/>
<polyline fill="none" stroke="gray" points="1226,-1302.9 1226,-1718.9 "/>
<path fill="none" stroke="gray" d="M1226,-1718.9C1226,-1724.9 1220,-1730.9 1214,-1730.9"/>
<polyline fill="none" stroke="gray" points="1214,-1730.9 955,-1730.9 "/>
<path fill="none" stroke="gray" d="M955,-1730.9C949,-1730.9 943,-1724.9 943,-1718.9"/>
<polyline fill="none" stroke="gray" points="943,-1718.9 943,-1302.9 "/>
<path fill="none" stroke="gray" d="M943,-1302.9C943,-1296.9 949,-1290.9 955,-1290.9"/>
<text text-anchor="middle" x="1084.5" y="-1717" font-family="Times Roman,serif" font-size="11.00" fill="gray">Plugins</text>
</g>
<g id="graph8" class="cluster"><title>cluster_Plugins\Core</title>
<polyline fill="none" stroke="gray" points="963,-1298.9 1206,-1298.9 "/>
<path fill="none" stroke="gray" d="M1206,-1298.9C1212,-1298.9 1218,-1304.9 1218,-1310.9"/>
<polyline fill="none" stroke="gray" points="1218,-1310.9 1218,-1688.9 "/>
<path fill="none" stroke="gray" d="M1218,-1688.9C1218,-1694.9 1212,-1700.9 1206,-1700.9"/>
<polyline fill="none" stroke="gray" points="1206,-1700.9 963,-1700.9 "/>
<path fill="none" stroke="gray" d="M963,-1700.9C957,-1700.9 951,-1694.9 951,-1688.9"/>
<polyline fill="none" stroke="gray" points="951,-1688.9 951,-1310.9 "/>
<path fill="none" stroke="gray" d="M951,-1310.9C951,-1304.9 957,-1298.9 963,-1298.9"/>
<text text-anchor="middle" x="1084.5" y="-1687" font-family="Times Roman,serif" font-size="11.00" fill="gray">Core</text>
</g>
<g id="graph9" class="cluster"><title>cluster_Plugins\Core\Model</title>
<polyline fill="none" stroke="gray" points="1128,-1488.9 1198,-1488.9 "/>
<path fill="none" stroke="gray" d="M1198,-1488.9C1204,-1488.9 1210,-1494.9 1210,-1500.9"/>
<polyline fill="none" stroke="gray" points="1210,-1500.9 1210,-1658.9 "/>
<path fill="none" stroke="gray" d="M1210,-1658.9C1210,-1664.9 1204,-1670.9 1198,-1670.9"/>
<polyline fill="none" stroke="gray" points="1198,-1670.9 1128,-1670.9 "/>
<path fill="none" stroke="gray" d="M1128,-1670.9C1122,-1670.9 1116,-1664.9 1116,-1658.9"/>
<polyline fill="none" stroke="gray" points="1116,-1658.9 1116,-1500.9 "/>
<path fill="none" stroke="gray" d="M1116,-1500.9C1116,-1494.9 1122,-1488.9 1128,-1488.9"/>
<text text-anchor="middle" x="1163" y="-1657" font-family="Times Roman,serif" font-size="11.00" fill="gray">Model</text>
</g>
<g id="graph10" class="cluster"><title>cluster_Plugins\Core\Storage</title>
<polyline fill="none" stroke="gray" points="1140,-1406.9 1186,-1406.9 "/>
<path fill="none" stroke="gray" d="M1186,-1406.9C1192,-1406.9 1198,-1412.9 1198,-1418.9"/>
<polyline fill="none" stroke="gray" points="1198,-1418.9 1198,-1468.9 "/>
<path fill="none" stroke="gray" d="M1198,-1468.9C1198,-1474.9 1192,-1480.9 1186,-1480.9"/>
<polyline fill="none" stroke="gray" points="1186,-1480.9 1140,-1480.9 "/>
<path fill="none" stroke="gray" d="M1140,-1480.9C1134,-1480.9 1128,-1474.9 1128,-1468.9"/>
<polyline fill="none" stroke="gray" points="1128,-1468.9 1128,-1418.9 "/>
<path fill="none" stroke="gray" d="M1128,-1418.9C1128,-1412.9 1134,-1406.9 1140,-1406.9"/>
<text text-anchor="middle" x="1163" y="-1467" font-family="Times Roman,serif" font-size="11.00" fill="gray">Storage</text>
</g>
<!-- \\FluxAPI\\Cli\\Load -->
<g id="node3" class="node"><title>\\FluxAPI\\Cli\\Load</title>
<a xlink:href="FluxAPI.Cli.Load.html" xlink:title="Load" target="_parent">
<polygon fill="none" stroke="black" points="1013,-1124.9 959,-1124.9 959,-1088.9 1013,-1088.9 1013,-1124.9"/>
<text text-anchor="middle" x="986" y="-1104" font-family="Courier,monospace" font-size="11.00">Load</text>
</a>
</g>
<!-- \\Symfony\\Component\\Console\\Command\\Command -->
<g id="node43" class="node"><title>\\Symfony\\Component\\Console\\Command\\Command</title>
<ellipse fill="none" stroke="black" cx="508" cy="-168.904" rx="261.837" ry="18.3848"/>
<text text-anchor="middle" x="508" y="-165.304" font-family="Times Roman,serif" font-size="14.00" fill="gray">\Symfony\Component\Console\Command\Command</text>
</g>
<!-- \\FluxAPI\\Cli\\Load&#45;&gt;\\Symfony\\Component\\Console\\Command\\Command -->
<g id="edge17" class="edge"><title>\\FluxAPI\\Cli\\Load&#45;&gt;\\Symfony\\Component\\Console\\Command\\Command</title>
<path fill="none" stroke="black" d="M958.754,-1104.25C942.501,-1101.14 922.955,-1094.42 912,-1079.9 792.7,-921.796 988.561,-330.45 848,-190.904 833.935,-176.941 803.936,-168.78 767.31,-164.341"/>
<polygon fill="none" stroke="black" points="767.663,-160.859 757.339,-163.239 766.893,-167.817 767.663,-160.859"/>
</g>
<!-- \\FluxAPI\\Cli\\Migrate -->
<g id="node4" class="node"><title>\\FluxAPI\\Cli\\Migrate</title>
<a xlink:href="FluxAPI.Cli.Migrate.html" xlink:title="Migrate" target="_parent">
<polygon fill="none" stroke="black" points="1018,-1070.9 954,-1070.9 954,-1034.9 1018,-1034.9 1018,-1070.9"/>
<text text-anchor="middle" x="986" y="-1050" font-family="Courier,monospace" font-size="11.00">Migrate</text>
</a>
</g>
<!-- \\FluxAPI\\Cli\\Migrate&#45;&gt;\\Symfony\\Component\\Console\\Command\\Command -->
<g id="edge19" class="edge"><title>\\FluxAPI\\Cli\\Migrate&#45;&gt;\\Symfony\\Component\\Console\\Command\\Command</title>
<path fill="none" stroke="black" d="M953.847,-1047.87C938.69,-1043.77 921.817,-1036.33 912,-1022.9 802.571,-873.199 979.917,-321.227 848,-190.904 834.009,-177.082 804.345,-168.956 768.095,-164.5"/>
<polygon fill="none" stroke="black" points="768.03,-160.971 757.704,-163.339 767.253,-167.928 768.03,-160.971"/>
</g>
<!-- \\FluxAPI\\Event\\ModelEvent -->
<g id="node6" class="node"><title>\\FluxAPI\\Event\\ModelEvent</title>
<a xlink:href="FluxAPI.Event.ModelEvent.html" xlink:title="ModelEvent" target="_parent">
<polygon fill="none" stroke="black" points="1028,-988.904 944,-988.904 944,-952.904 1028,-952.904 1028,-988.904"/>
<text text-anchor="middle" x="986" y="-968.004" font-family="Courier,monospace" font-size="11.00">ModelEvent</text>
</a>
</g>
<!-- \\Symfony\\Component\\EventDispatcher\\Event -->
<g id="node48" class="node"><title>\\Symfony\\Component\\EventDispatcher\\Event</title>
<ellipse fill="none" stroke="black" cx="508" cy="-114.904" rx="232.138" ry="18.3848"/>
<text text-anchor="middle" x="508" y="-111.304" font-family="Times Roman,serif" font-size="14.00" fill="gray">\Symfony\Component\EventDispatcher\Event</text>
</g>
<!-- \\FluxAPI\\Event\\ModelEvent&#45;&gt;\\Symfony\\Component\\EventDispatcher\\Event -->
<g id="edge25" class="edge"><title>\\FluxAPI\\Event\\ModelEvent&#45;&gt;\\Symfony\\Component\\EventDispatcher\\Event</title>
<path fill="none" stroke="black" d="M943.863,-962.692C931.731,-958.248 919.706,-951.412 912,-940.904 806.659,-797.268 973.996,-267.814 848,-141.904 831.234,-125.15 791.705,-116.234 745.289,-111.893"/>
<polygon fill="none" stroke="black" points="745.548,-108.402 735.286,-111.034 744.95,-115.376 745.548,-108.402"/>
</g>
<!-- \\FluxAPI\\EventListener\\ModelListener -->
<g id="node8" class="node"><title>\\FluxAPI\\EventListener\\ModelListener</title>
<a xlink:href="FluxAPI.EventListener.ModelListener.html" xlink:title="ModelListener" target="_parent">
<polygon fill="none" stroke="black" points="1038,-906.904 934,-906.904 934,-870.904 1038,-870.904 1038,-906.904"/>
<text text-anchor="middle" x="986" y="-886.004" font-family="Courier,monospace" font-size="11.00">ModelListener</text>
</a>
</g>
<!-- \\Symfony\\Component\\EventDispatcher\\EventSubscriberInterface -->
<g id="node56" class="node"><title>\\Symfony\\Component\\EventDispatcher\\EventSubscriberInterface</title>
<ellipse fill="none" stroke="black" cx="508" cy="-60.9041" rx="340.118" ry="18.3848"/>
<text text-anchor="middle" x="508" y="-57.3041" font-family="Times Roman,serif" font-size="14.00" fill="gray">\\Symfony\\Component\\EventDispatcher\\EventSubscriberInterface</text>
</g>
<!-- \\FluxAPI\\EventListener\\ModelListener&#45;&gt;\\Symfony\\Component\\EventDispatcher\\EventSubscriberInterface -->
<g id="edge39" class="edge"><title>\\FluxAPI\\EventListener\\ModelListener&#45;&gt;\\Symfony\\Component\\EventDispatcher\\EventSubscriberInterface</title>
<path fill="none" stroke="black" stroke-dasharray="1,5" d="M933.808,-882.036C925.426,-878.705 917.66,-873.876 912,-866.904 802.526,-732.052 970.988,-210.557 848,-87.9041 780.789,-20.8764 664.435,-27.205 586.837,-41.3029"/>
<polygon fill="none" stroke="black" points="585.798,-37.9376 576.627,-43.2429 587.105,-44.8146 585.798,-37.9376"/>
</g>
<!-- \\FluxAPI\\Factory\\ModelFactory -->
<g id="node10" class="node"><title>\\FluxAPI\\Factory\\ModelFactory</title>
<a xlink:href="FluxAPI.Factory.ModelFactory.html" xlink:title="ModelFactory" target="_parent">
<polygon fill="none" stroke="black" points="1035,-616.904 937,-616.904 937,-580.904 1035,-580.904 1035,-616.904"/>
<text text-anchor="middle" x="986" y="-596.004" font-family="Courier,monospace" font-size="11.00">ModelFactory</text>
</a>
</g>
<!-- \\FluxAPI\\Factory\\MethodFactory -->
<g id="node11" class="node"><title>\\FluxAPI\\Factory\\MethodFactory</title>
<a xlink:href="FluxAPI.Factory.MethodFactory.html" xlink:title="MethodFactory" target="_parent">
<polygon fill="none" stroke="black" points="1038,-562.904 934,-562.904 934,-526.904 1038,-526.904 1038,-562.904"/>
<text text-anchor="middle" x="986" y="-542.004" font-family="Courier,monospace" font-size="11.00">MethodFactory</text>
</a>
</g>
<!-- \\FluxAPI\\Factory\\PluginFactory -->
<g id="node12" class="node"><title>\\FluxAPI\\Factory\\PluginFactory</title>
<a xlink:href="FluxAPI.Factory.PluginFactory.html" xlink:title="PluginFactory" target="_parent">
<polygon fill="none" stroke="black" points="1038,-508.904 934,-508.904 934,-472.904 1038,-472.904 1038,-508.904"/>
<text text-anchor="middle" x="986" y="-488.004" font-family="Courier,monospace" font-size="11.00">PluginFactory</text>
</a>
</g>
<!-- \\FluxAPI\\Factory\\PermissionFactory -->
<g id="node13" class="node"><title>\\FluxAPI\\Factory\\PermissionFactory</title>
<a xlink:href="FluxAPI.Factory.PermissionFactory.html" xlink:title="PermissionFactory" target="_parent">
<polygon fill="none" stroke="black" points="1051,-454.904 921,-454.904 921,-418.904 1051,-418.904 1051,-454.904"/>
<text text-anchor="middle" x="986" y="-434.004" font-family="Courier,monospace" font-size="11.00">PermissionFactory</text>
</a>
</g>
<!-- \\FluxAPI\\Factory\\ControllerFactory -->
<g id="node14" class="node"><title>\\FluxAPI\\Factory\\ControllerFactory</title>
<a xlink:href="FluxAPI.Factory.ControllerFactory.html" xlink:title="ControllerFactory" target="_parent">
<polygon fill="none" stroke="black" points="1051,-400.904 921,-400.904 921,-364.904 1051,-364.904 1051,-400.904"/>
<text text-anchor="middle" x="986" y="-380.004" font-family="Courier,monospace" font-size="11.00">ControllerFactory</text>
</a>
</g>
<!-- \\FluxAPI\\Factory\\StorageFactory -->
<g id="node15" class="node"><title>\\FluxAPI\\Factory\\StorageFactory</title>
<a xlink:href="FluxAPI.Factory.StorageFactory.html" xlink:title="StorageFactory" target="_parent">
<polygon fill="none" stroke="black" points="1041,-346.904 931,-346.904 931,-310.904 1041,-310.904 1041,-346.904"/>
<text text-anchor="middle" x="986" y="-326.004" font-family="Courier,monospace" font-size="11.00">StorageFactory</text>
</a>
</g>
<!-- \\Pimple -->
<g id="node40" class="node"><title>\\Pimple</title>
<ellipse fill="none" stroke="black" cx="48" cy="-357.904" rx="46.8775" ry="18.3848"/>
<text text-anchor="middle" x="48" y="-354.304" font-family="Times Roman,serif" font-size="14.00" fill="gray">\Pimple</text>
</g>
<!-- \\FluxAPI\\Factory\\StorageFactory&#45;&gt;\\Pimple -->
<g id="edge23" class="edge"><title>\\FluxAPI\\Factory\\StorageFactory&#45;&gt;\\Pimple</title>
<path fill="none" stroke="black" d="M930.132,-319.433C923.357,-316.342 917.057,-312.267 912,-306.904 826.502,-216.234 945.662,-111.319 848,-33.9041 788.79,13.0303 230.013,9.25808 168,-33.9041 117.308,-69.1867 70.5212,-257.358 54.1585,-329.617"/>
<polygon fill="none" stroke="black" points="50.6497,-329.27 51.8826,-339.793 57.481,-330.798 50.6497,-329.27"/>
</g>
<!-- \\FluxAPI\\Api -->
<g id="node16" class="node"><title>\\FluxAPI\\Api</title>
<a xlink:href="FluxAPI.Api.html" xlink:title="Api" target="_parent">
<polygon fill="none" stroke="black" points="535,-719.904 481,-719.904 481,-683.904 535,-683.904 535,-719.904"/>
<text text-anchor="middle" x="508" y="-699.004" font-family="Courier,monospace" font-size="11.00">Api</text>
</a>
</g>
<!-- \\FluxAPI\\Api&#45;&gt;\\Pimple -->
<g id="edge13" class="edge"><title>\\FluxAPI\\Api&#45;&gt;\\Pimple</title>
<path fill="none" stroke="black" d="M480.874,-709.117C418.597,-723.949 263.411,-750.844 168,-679.904 118.819,-643.337 71.2881,-458.067 54.4354,-386.33"/>
<polygon fill="none" stroke="black" points="57.7579,-385.165 52.0865,-376.216 50.9394,-386.748 57.7579,-385.165"/>
</g>
<!-- \\FluxAPI\\CliApi -->
<g id="node17" class="node"><title>\\FluxAPI\\CliApi</title>
<a xlink:href="FluxAPI.CliApi.html" xlink:title="CliApi" target="_parent">
<polygon fill="none" stroke="black" points="1014,-1198.9 958,-1198.9 958,-1162.9 1014,-1162.9 1014,-1198.9"/>
<text text-anchor="middle" x="986" y="-1178" font-family="Courier,monospace" font-size="11.00">CliApi</text>
</a>
</g>
<!-- \\FluxAPI\\CliApi&#45;&gt;\\FluxAPI\\Api -->
<g id="edge15" class="edge"><title>\\FluxAPI\\CliApi&#45;&gt;\\FluxAPI\\Api</title>
<path fill="none" stroke="black" d="M957.374,-1176.28C942.951,-1173.02 925.672,-1167.63 912,-1158.9 724.128,-1039.03 572.126,-807.416 523.978,-728.78"/>
<polygon fill="none" stroke="black" points="526.808,-726.697 518.626,-719.966 520.825,-730.33 526.808,-726.697"/>
</g>
<!-- \\FluxAPI\\Model -->
<g id="node18" class="node"><title>\\FluxAPI\\Model</title>
<a xlink:href="FluxAPI.Model.html" xlink:title="«abstract»&lt;br/&gt;Model" target="_parent">
<polygon fill="none" stroke="black" points="550,-1252.9 466,-1252.9 466,-1216.9 550,-1216.9 550,-1252.9"/>
<text text-anchor="start" x="474" y="-1240.34" font-family="Courier,monospace" font-size="11.00">«abstract»</text>
<text text-anchor="start" x="491" y="-1227.14" font-family="Courier,monospace" font-size="11.00">Model</text>
</a>
</g>
<!-- \\FluxAPI\\Storage -->
<g id="node19" class="node"><title>\\FluxAPI\\Storage</title>
<a xlink:href="FluxAPI.Storage.html" xlink:title="«abstract»&lt;br/&gt;Storage" target="_parent">
<polygon fill="none" stroke="black" points="1028,-852.904 944,-852.904 944,-816.904 1028,-816.904 1028,-852.904"/>
<text text-anchor="start" x="952" y="-840.337" font-family="Courier,monospace" font-size="11.00">«abstract»</text>
<text text-anchor="start" x="962" y="-827.137" font-family="Courier,monospace" font-size="11.00">Storage</text>
</a>
</g>
<!-- \\FluxAPI\\Permission -->
<g id="node20" class="node"><title>\\FluxAPI\\Permission</title>
<a xlink:href="FluxAPI.Permission.html" xlink:title="«abstract»&lt;br/&gt;Permission" target="_parent">
<polygon fill="none" stroke="black" points="1028,-798.904 944,-798.904 944,-762.904 1028,-762.904 1028,-798.904"/>
<text text-anchor="start" x="952" y="-786.337" font-family="Courier,monospace" font-size="11.00">«abstract»</text>
<text text-anchor="start" x="952" y="-773.137" font-family="Courier,monospace" font-size="11.00">Permission</text>
</a>
</g>
<!-- \\FluxAPI\\Plugin -->
<g id="node21" class="node"><title>\\FluxAPI\\Plugin</title>
<a xlink:href="FluxAPI.Plugin.html" xlink:title="«abstract»&lt;br/&gt;Plugin" target="_parent">
<polygon fill="none" stroke="black" points="1028,-744.904 944,-744.904 944,-708.904 1028,-708.904 1028,-744.904"/>
<text text-anchor="start" x="952" y="-732.337" font-family="Courier,monospace" font-size="11.00">«abstract»</text>
<text text-anchor="start" x="965.5" y="-719.137" font-family="Courier,monospace" font-size="11.00">Plugin</text>
</a>
</g>
<!-- \\FluxAPI\\Query -->
<g id="node22" class="node"><title>\\FluxAPI\\Query</title>
<a xlink:href="FluxAPI.Query.html" xlink:title="Query" target="_parent">
<polygon fill="none" stroke="black" points="1013,-690.904 959,-690.904 959,-654.904 1013,-654.904 1013,-690.904"/>
<text text-anchor="middle" x="986" y="-670.004" font-family="Courier,monospace" font-size="11.00">Query</text>
</a>
</g>
<!-- \\FluxAPI\\DynamicModel -->
<g id="node23" class="node"><title>\\FluxAPI\\DynamicModel</title>
<a xlink:href="FluxAPI.DynamicModel.html" xlink:title="DynamicModel" target="_parent">
<polygon fill="none" stroke="black" points="1035,-1252.9 937,-1252.9 937,-1216.9 1035,-1216.9 1035,-1252.9"/>
<text text-anchor="middle" x="986" y="-1232" font-family="Courier,monospace" font-size="11.00">DynamicModel</text>
</a>
</g>
<!-- \\FluxAPI\\DynamicModel&#45;&gt;\\FluxAPI\\Model -->
<g id="edge21" class="edge"><title>\\FluxAPI\\DynamicModel&#45;&gt;\\FluxAPI\\Model</title>
<path fill="none" stroke="black" d="M936.646,-1234.9C846.06,-1234.9 654.031,-1234.9 560.882,-1234.9"/>
<polygon fill="none" stroke="black" points="560.833,-1231.4 550.833,-1234.9 560.833,-1238.4 560.833,-1231.4"/>
</g>
<!-- \\FluxAPI\\Field -->
<g id="node24" class="node"><title>\\FluxAPI\\Field</title>
<a xlink:href="FluxAPI.Field.html" xlink:title="Field" target="_parent">
<polygon fill="none" stroke="black" points="1013,-292.904 959,-292.904 959,-256.904 1013,-256.904 1013,-292.904"/>
<text text-anchor="middle" x="986" y="-272.004" font-family="Courier,monospace" font-size="11.00">Field</text>
</a>
</g>
<!-- \\FluxAPI\\Utils -->
<g id="node25" class="node"><title>\\FluxAPI\\Utils</title>
<a xlink:href="FluxAPI.Utils.html" xlink:title="Utils" target="_parent">
<polygon fill="none" stroke="black" points="1013,-238.904 959,-238.904 959,-202.904 1013,-202.904 1013,-238.904"/>
<text text-anchor="middle" x="986" y="-218.004" font-family="Courier,monospace" font-size="11.00">Utils</text>
</a>
</g>
<!-- \\Plugins\\Core\\Model\\User -->
<g id="node29" class="node"><title>\\Plugins\\Core\\Model\\User</title>
<a xlink:href="Plugins.Core.Model.User.html" xlink:title="User" target="_parent">
<polygon fill="none" stroke="black" points="1190,-1640.9 1136,-1640.9 1136,-1604.9 1190,-1604.9 1190,-1640.9"/>
<text text-anchor="middle" x="1163" y="-1620" font-family="Courier,monospace" font-size="11.00">User</text>
</a>
</g>
<!-- \\Plugins\\Core\\Model -->
<g id="node35" class="node"><title>\\Plugins\\Core\\Model</title>
<a xlink:href="Plugins.Core.Model.html" xlink:title="Model" target="_parent">
<polygon fill="none" stroke="black" points="1013,-1559.9 959,-1559.9 959,-1523.9 1013,-1523.9 1013,-1559.9"/>
<text text-anchor="middle" x="986" y="-1539" font-family="Courier,monospace" font-size="11.00">Model</text>
</a>
</g>
<!-- \\Plugins\\Core\\Model\\User&#45;&gt;\\Plugins\\Core\\Model -->
<g id="edge29" class="edge"><title>\\Plugins\\Core\\Model\\User&#45;&gt;\\Plugins\\Core\\Model</title>
<path fill="none" stroke="black" d="M1135.73,-1610.43C1105.37,-1596.53 1056.15,-1574.01 1022.49,-1558.6"/>
<polygon fill="none" stroke="black" points="1023.56,-1555.24 1013.01,-1554.26 1020.65,-1561.61 1023.56,-1555.24"/>
</g>
<!-- \\Plugins\\Core\\Model\\UserGroup -->
<g id="node30" class="node"><title>\\Plugins\\Core\\Model\\UserGroup</title>
<a xlink:href="Plugins.Core.Model.UserGroup.html" xlink:title="UserGroup" target="_parent">
<polygon fill="none" stroke="black" points="1201,-1586.9 1125,-1586.9 1125,-1550.9 1201,-1550.9 1201,-1586.9"/>
<text text-anchor="middle" x="1163" y="-1566" font-family="Courier,monospace" font-size="11.00">UserGroup</text>
</a>
</g>
<!-- \\Plugins\\Core\\Model\\UserGroup&#45;&gt;\\Plugins\\Core\\Model -->
<g id="edge31" class="edge"><title>\\Plugins\\Core\\Model\\UserGroup&#45;&gt;\\Plugins\\Core\\Model</title>
<path fill="none" stroke="black" d="M1124.16,-1562.98C1094.12,-1558.4 1052.79,-1552.09 1023.18,-1547.58"/>
<polygon fill="none" stroke="black" points="1023.64,-1544.11 1013.23,-1546.06 1022.59,-1551.03 1023.64,-1544.11"/>
</g>
<!-- \\Plugins\\Core\\Model\\Node -->
<g id="node31" class="node"><title>\\Plugins\\Core\\Model\\Node</title>
<a xlink:href="Plugins.Core.Model.Node.html" xlink:title="Node" target="_parent">
<polygon fill="none" stroke="black" points="1190,-1532.9 1136,-1532.9 1136,-1496.9 1190,-1496.9 1190,-1532.9"/>
<text text-anchor="middle" x="1163" y="-1512" font-family="Courier,monospace" font-size="11.00">Node</text>
</a>
</g>
<!-- \\Plugins\\Core\\Model\\Node&#45;&gt;\\Plugins\\Core\\Model -->
<g id="edge33" class="edge"><title>\\Plugins\\Core\\Model\\Node&#45;&gt;\\Plugins\\Core\\Model</title>
<path fill="none" stroke="black" d="M1135.73,-1519.06C1105.5,-1523.68 1056.57,-1531.14 1022.92,-1536.27"/>
<polygon fill="none" stroke="black" points="1022.37,-1532.82 1013.01,-1537.78 1023.42,-1539.74 1022.37,-1532.82"/>
</g>
<!-- \\Plugins\\Core\\Storage\\MySql -->
<g id="node33" class="node"><title>\\Plugins\\Core\\Storage\\MySql</title>
<a xlink:href="Plugins.Core.Storage.MySql.html" xlink:title="MySql" target="_parent">
<polygon fill="none" stroke="black" points="1190,-1450.9 1136,-1450.9 1136,-1414.9 1190,-1414.9 1190,-1450.9"/>
<text text-anchor="middle" x="1163" y="-1430" font-family="Courier,monospace" font-size="11.00">MySql</text>
</a>
</g>
<!-- \\Plugins\\Core\\Storage\\MySql&#45;&gt;\\FluxAPI\\Storage -->
<g id="edge27" class="edge"><title>\\Plugins\\Core\\Storage\\MySql&#45;&gt;\\FluxAPI\\Storage</title>
<path fill="none" stroke="black" d="M1135.69,-1425.75C1128.15,-1422.45 1120.75,-1417.7 1116,-1410.9 1045.48,-1309.97 1146.03,-954.149 1068,-858.904 1060.58,-849.852 1049.95,-844.1 1038.79,-840.474"/>
<polygon fill="none" stroke="black" points="1039.48,-837.034 1028.91,-837.804 1037.65,-843.792 1039.48,-837.034"/>
</g>
<!-- \\Plugins\\Core\\Rest -->
<g id="node34" class="node"><title>\\Plugins\\Core\\Rest</title>
<a xlink:href="Plugins.Core.Rest.html" xlink:title="Rest" target="_parent">
<polygon fill="none" stroke="black" points="1190,-1396.9 1136,-1396.9 1136,-1360.9 1190,-1360.9 1190,-1396.9"/>
<text text-anchor="middle" x="1163" y="-1376" font-family="Courier,monospace" font-size="11.00">Rest</text>
</a>
</g>
<!-- \\Plugins\\Core\\Model&#45;&gt;\\FluxAPI\\Model -->
<g id="edge35" class="edge"><title>\\Plugins\\Core\\Model&#45;&gt;\\FluxAPI\\Model</title>
<path fill="none" stroke="black" d="M958.931,-1524.52C877.905,-1472.48 637.197,-1317.88 544.738,-1258.5"/>
<polygon fill="none" stroke="black" points="546.569,-1255.52 536.264,-1253.06 542.787,-1261.41 546.569,-1255.52"/>
</g>
<!-- \\Plugins\\Core\\Core -->
<g id="node36" class="node"><title>\\Plugins\\Core\\Core</title>
<a xlink:href="Plugins.Core.Core.html" xlink:title="Core" target="_parent">
<polygon fill="none" stroke="black" points="1190,-1342.9 1136,-1342.9 1136,-1306.9 1190,-1306.9 1190,-1342.9"/>
<text text-anchor="middle" x="1163" y="-1322" font-family="Courier,monospace" font-size="11.00">Core</text>
</a>
</g>
<!-- \\Plugins\\Core\\Core&#45;&gt;\\FluxAPI\\Plugin -->
<g id="edge37" class="edge"><title>\\Plugins\\Core\\Core&#45;&gt;\\FluxAPI\\Plugin</title>
<path fill="none" stroke="black" d="M1162.44,-1306.77C1159.36,-1219.12 1141.92,-840.113 1068,-753.904 1060.3,-744.928 1049.56,-738.92 1038.39,-734.903"/>
<polygon fill="none" stroke="black" points="1039.1,-731.462 1028.52,-731.861 1037.04,-738.151 1039.1,-731.462"/>
</g>
</g>
</svg>
