<?xml version="1.0" encoding="UTF-8" standalone="no"?>
<!DOCTYPE svg PUBLIC "-//W3C//DTD SVG 1.1//EN"
 "http://www.w3.org/Graphics/SVG/1.1/DTD/svg11.dtd">
<!-- Generated by graphviz version 2.26.3 (20100126.1600)
 -->
<!-- Title: G Pages: 1 -->
<svg width="443pt" height="538pt"
 viewBox="0.00 0.00 443.00 538.00" xmlns="http://www.w3.org/2000/svg" xmlns:xlink="http://www.w3.org/1999/xlink">
<g id="graph1" class="graph" transform="scale(1 1) rotate(0) translate(4 534)">
<title>G</title>
<polygon fill="white" stroke="white" points="-4,5 -4,-534 440,-534 440,5 -4,5"/>
<g id="graph2" class="cluster"><title>cluster_FluxAPI</title>
<polyline fill="none" stroke="gray" points="20,-44 273,-44 "/>
<path fill="none" stroke="gray" d="M273,-44C279,-44 285,-50 285,-56"/>
<polyline fill="none" stroke="gray" points="285,-56 285,-430 "/>
<path fill="none" stroke="gray" d="M285,-430C285,-436 279,-442 273,-442"/>
<polyline fill="none" stroke="gray" points="273,-442 20,-442 "/>
<path fill="none" stroke="gray" d="M20,-442C14,-442 8,-436 8,-430"/>
<polyline fill="none" stroke="gray" points="8,-430 8,-56 "/>
<path fill="none" stroke="gray" d="M8,-56C8,-50 14,-44 20,-44"/>
<text text-anchor="middle" x="146.5" y="-428.1" font-family="Times Roman,serif" font-size="11.00" fill="gray">FluxAPI</text>
</g>
<g id="graph3" class="cluster"><title>cluster_Plugins</title>
<polyline fill="none" stroke="gray" points="337,-190 415,-190 "/>
<path fill="none" stroke="gray" d="M415,-190C421,-190 427,-196 427,-202"/>
<polyline fill="none" stroke="gray" points="427,-202 427,-510 "/>
<path fill="none" stroke="gray" d="M427,-510C427,-516 421,-522 415,-522"/>
<polyline fill="none" stroke="gray" points="415,-522 337,-522 "/>
<path fill="none" stroke="gray" d="M337,-522C331,-522 325,-516 325,-510"/>
<polyline fill="none" stroke="gray" points="325,-510 325,-202 "/>
<path fill="none" stroke="gray" d="M325,-202C325,-196 331,-190 337,-190"/>
<text text-anchor="middle" x="376" y="-508.1" font-family="Times Roman,serif" font-size="11.00" fill="gray">Plugins</text>
</g>
<g id="graph4" class="cluster"><title>cluster_Plugins\Core</title>
<polyline fill="none" stroke="gray" points="345,-198 407,-198 "/>
<path fill="none" stroke="gray" d="M407,-198C413,-198 419,-204 419,-210"/>
<polyline fill="none" stroke="gray" points="419,-210 419,-480 "/>
<path fill="none" stroke="gray" d="M419,-480C419,-486 413,-492 407,-492"/>
<polyline fill="none" stroke="gray" points="407,-492 345,-492 "/>
<path fill="none" stroke="gray" d="M345,-492C339,-492 333,-486 333,-480"/>
<polyline fill="none" stroke="gray" points="333,-480 333,-210 "/>
<path fill="none" stroke="gray" d="M333,-210C333,-204 339,-198 345,-198"/>
<text text-anchor="middle" x="376" y="-478.1" font-family="Times Roman,serif" font-size="11.00" fill="gray">Core</text>
</g>
<g id="graph5" class="cluster"><title>cluster_Plugins\Core\Model</title>
<polyline fill="none" stroke="gray" points="353,-388 399,-388 "/>
<path fill="none" stroke="gray" d="M399,-388C405,-388 411,-394 411,-400"/>
<polyline fill="none" stroke="gray" points="411,-400 411,-450 "/>
<path fill="none" stroke="gray" d="M411,-450C411,-456 405,-462 399,-462"/>
<polyline fill="none" stroke="gray" points="399,-462 353,-462 "/>
<path fill="none" stroke="gray" d="M353,-462C347,-462 341,-456 341,-450"/>
<polyline fill="none" stroke="gray" points="341,-450 341,-400 "/>
<path fill="none" stroke="gray" d="M341,-400C341,-394 347,-388 353,-388"/>
<text text-anchor="middle" x="376" y="-448.1" font-family="Times Roman,serif" font-size="11.00" fill="gray">Model</text>
</g>
<g id="graph6" class="cluster"><title>cluster_Plugins\Core\Storage</title>
<polyline fill="none" stroke="gray" points="353,-206 399,-206 "/>
<path fill="none" stroke="gray" d="M399,-206C405,-206 411,-212 411,-218"/>
<polyline fill="none" stroke="gray" points="411,-218 411,-268 "/>
<path fill="none" stroke="gray" d="M411,-268C411,-274 405,-280 399,-280"/>
<polyline fill="none" stroke="gray" points="399,-280 353,-280 "/>
<path fill="none" stroke="gray" d="M353,-280C347,-280 341,-274 341,-268"/>
<polyline fill="none" stroke="gray" points="341,-268 341,-218 "/>
<path fill="none" stroke="gray" d="M341,-218C341,-212 347,-206 353,-206"/>
<text text-anchor="middle" x="376" y="-266.1" font-family="Times Roman,serif" font-size="11.00" fill="gray">Storage</text>
</g>
<!-- \\FluxAPI\\Api -->
<g id="node2" class="node"><title>\\FluxAPI\\Api</title>
<a xlink:href="FluxAPI.Api.html" xlink:title="Api" target="_parent">
<polygon fill="none" stroke="black" points="255,-142 201,-142 201,-106 255,-106 255,-142"/>
<text text-anchor="middle" x="228" y="-121.1" font-family="Courier,monospace" font-size="11.00">Api</text>
</a>
</g>
<!-- \\Pimple -->
<g id="node21" class="node"><title>\\Pimple</title>
<ellipse fill="none" stroke="black" cx="59" cy="-18" rx="46.8775" ry="18.3848"/>
<text text-anchor="middle" x="59" y="-14.4" font-family="Times Roman,serif" font-size="14.00" fill="gray">\Pimple</text>
</g>
<!-- \\FluxAPI\\Api&#45;&gt;\\Pimple -->
<g id="edge9" class="edge"><title>\\FluxAPI\\Api&#45;&gt;\\Pimple</title>
<path fill="none" stroke="black" d="M200.822,-110.071C193.587,-106.082 185.876,-101.57 179,-97 145.01,-74.407 141.801,-61.3225 107,-40 104.811,-38.6591 102.527,-37.3483 100.195,-36.0771"/>
<polygon fill="none" stroke="black" points="101.553,-32.8403 91.0582,-31.3903 98.3584,-39.0687 101.553,-32.8403"/>
</g>
<!-- \\FluxAPI\\ModelFactory -->
<g id="node3" class="node"><title>\\FluxAPI\\ModelFactory</title>
<a xlink:href="FluxAPI.ModelFactory.html" xlink:title="ModelFactory" target="_parent">
<polygon fill="none" stroke="black" points="277,-358 179,-358 179,-322 277,-322 277,-358"/>
<text text-anchor="middle" x="228" y="-337.1" font-family="Courier,monospace" font-size="11.00">ModelFactory</text>
</a>
</g>
<!-- \\FluxAPI\\Model -->
<g id="node4" class="node"><title>\\FluxAPI\\Model</title>
<a xlink:href="FluxAPI.Model.html" xlink:title="«abstract»&lt;br/&gt;Model" target="_parent">
<polygon fill="none" stroke="black" points="101,-412 17,-412 17,-376 101,-376 101,-412"/>
<text text-anchor="start" x="25" y="-399.433" font-family="Courier,monospace" font-size="11.00">«abstract»</text>
<text text-anchor="start" x="42" y="-386.233" font-family="Courier,monospace" font-size="11.00">Model</text>
</a>
</g>
<!-- \\FluxAPI\\Storage -->
<g id="node5" class="node"><title>\\FluxAPI\\Storage</title>
<a xlink:href="FluxAPI.Storage.html" xlink:title="«abstract»&lt;br/&gt;Storage" target="_parent">
<polygon fill="none" stroke="black" points="270,-250 186,-250 186,-214 270,-214 270,-250"/>
<text text-anchor="start" x="194" y="-237.433" font-family="Courier,monospace" font-size="11.00">«abstract»</text>
<text text-anchor="start" x="204" y="-224.233" font-family="Courier,monospace" font-size="11.00">Storage</text>
</a>
</g>
<!-- \\FluxAPI\\Plugin -->
<g id="node6" class="node"><title>\\FluxAPI\\Plugin</title>
<a xlink:href="FluxAPI.Plugin.html" xlink:title="«abstract»&lt;br/&gt;Plugin" target="_parent">
<polygon fill="none" stroke="black" points="270,-304 186,-304 186,-268 270,-268 270,-304"/>
<text text-anchor="start" x="194" y="-291.433" font-family="Courier,monospace" font-size="11.00">«abstract»</text>
<text text-anchor="start" x="207.5" y="-278.233" font-family="Courier,monospace" font-size="11.00">Plugin</text>
</a>
</g>
<!-- \\FluxAPI\\Query -->
<g id="node7" class="node"><title>\\FluxAPI\\Query</title>
<a xlink:href="FluxAPI.Query.html" xlink:title="Query" target="_parent">
<polygon fill="none" stroke="black" points="255,-196 201,-196 201,-160 255,-160 255,-196"/>
<text text-anchor="middle" x="228" y="-175.1" font-family="Courier,monospace" font-size="11.00">Query</text>
</a>
</g>
<!-- \\FluxAPI\\DynamicModel -->
<g id="node8" class="node"><title>\\FluxAPI\\DynamicModel</title>
<a xlink:href="FluxAPI.DynamicModel.html" xlink:title="DynamicModel" target="_parent">
<polygon fill="none" stroke="black" points="277,-412 179,-412 179,-376 277,-376 277,-412"/>
<text text-anchor="middle" x="228" y="-391.1" font-family="Courier,monospace" font-size="11.00">DynamicModel</text>
</a>
</g>
<!-- \\FluxAPI\\DynamicModel&#45;&gt;\\FluxAPI\\Model -->
<g id="edge11" class="edge"><title>\\FluxAPI\\DynamicModel&#45;&gt;\\FluxAPI\\Model</title>
<path fill="none" stroke="black" d="M178.664,-394C157.649,-394 133.101,-394 111.728,-394"/>
<polygon fill="none" stroke="black" points="111.521,-390.5 101.521,-394 111.521,-397.5 111.521,-390.5"/>
</g>
<!-- \\FluxAPI\\Field -->
<g id="node9" class="node"><title>\\FluxAPI\\Field</title>
<a xlink:href="FluxAPI.Field.html" xlink:title="Field" target="_parent">
<polygon fill="none" stroke="black" points="255,-88 201,-88 201,-52 255,-52 255,-88"/>
<text text-anchor="middle" x="228" y="-67.1" font-family="Courier,monospace" font-size="11.00">Field</text>
</a>
</g>
<!-- \\Plugins\\Core\\Model\\Node -->
<g id="node13" class="node"><title>\\Plugins\\Core\\Model\\Node</title>
<a xlink:href="Plugins.Core.Model.Node.html" xlink:title="Node" target="_parent">
<polygon fill="none" stroke="black" points="403,-432 349,-432 349,-396 403,-396 403,-432"/>
<text text-anchor="middle" x="376" y="-411.1" font-family="Courier,monospace" font-size="11.00">Node</text>
</a>
</g>
<!-- \\Plugins\\Core\\Model\\Node&#45;&gt;\\FluxAPI\\Model -->
<g id="edge15" class="edge"><title>\\Plugins\\Core\\Model\\Node&#45;&gt;\\FluxAPI\\Model</title>
<path fill="none" stroke="black" d="M348.955,-416.627C330.87,-418.249 306.534,-420.173 285,-421 237.924,-422.808 225.823,-426.203 179,-421 156.657,-418.517 132.398,-413.511 111.576,-408.476"/>
<polygon fill="none" stroke="black" points="112.203,-405.025 101.654,-406.013 110.516,-411.819 112.203,-405.025"/>
</g>
<!-- \\Plugins\\Core\\Storage\\MySql -->
<g id="node15" class="node"><title>\\Plugins\\Core\\Storage\\MySql</title>
<a xlink:href="Plugins.Core.Storage.MySql.html" xlink:title="MySql" target="_parent">
<polygon fill="none" stroke="black" points="403,-250 349,-250 349,-214 403,-214 403,-250"/>
<text text-anchor="middle" x="376" y="-229.1" font-family="Courier,monospace" font-size="11.00">MySql</text>
</a>
</g>
<!-- \\Plugins\\Core\\Storage\\MySql&#45;&gt;\\FluxAPI\\Storage -->
<g id="edge13" class="edge"><title>\\Plugins\\Core\\Storage\\MySql&#45;&gt;\\FluxAPI\\Storage</title>
<path fill="none" stroke="black" d="M348.855,-232C329.809,-232 303.729,-232 280.671,-232"/>
<polygon fill="none" stroke="black" points="280.665,-228.5 270.665,-232 280.665,-235.5 280.665,-228.5"/>
</g>
<!-- \\Plugins\\Core\\Rest -->
<g id="node16" class="node"><title>\\Plugins\\Core\\Rest</title>
<a xlink:href="Plugins.Core.Rest.html" xlink:title="Rest" target="_parent">
<polygon fill="none" stroke="black" points="403,-324 349,-324 349,-288 403,-288 403,-324"/>
<text text-anchor="middle" x="376" y="-303.1" font-family="Courier,monospace" font-size="11.00">Rest</text>
</a>
</g>
<!-- \\Plugins\\Core\\Core -->
<g id="node17" class="node"><title>\\Plugins\\Core\\Core</title>
<a xlink:href="Plugins.Core.Core.html" xlink:title="Core" target="_parent">
<polygon fill="none" stroke="black" points="403,-378 349,-378 349,-342 403,-342 403,-378"/>
<text text-anchor="middle" x="376" y="-357.1" font-family="Courier,monospace" font-size="11.00">Core</text>
</a>
</g>
<!-- \\Plugins\\Core\\Core&#45;&gt;\\FluxAPI\\Plugin -->
<g id="edge17" class="edge"><title>\\Plugins\\Core\\Core&#45;&gt;\\FluxAPI\\Plugin</title>
<path fill="none" stroke="black" d="M348.648,-345.562C330.644,-336.135 306.514,-323.647 285,-313 282.056,-311.543 279.019,-310.057 275.952,-308.568"/>
<polygon fill="none" stroke="black" points="277.248,-305.307 266.72,-304.121 274.21,-311.614 277.248,-305.307"/>
</g>
</g>
</svg>
