<?xml version="1.0" encoding="UTF-8" standalone="no"?>
<!DOCTYPE svg PUBLIC "-//W3C//DTD SVG 1.1//EN"
 "http://www.w3.org/Graphics/SVG/1.1/DTD/svg11.dtd">
<!-- Generated by graphviz version 2.26.3 (20100126.1600)
 -->
<!-- Title: G Pages: 1 -->
<svg width="1050pt" height="1104pt"
 viewBox="0.00 0.00 1050.00 1103.92" xmlns="http://www.w3.org/2000/svg" xmlns:xlink="http://www.w3.org/1999/xlink">
<g id="graph1" class="graph" transform="scale(1 1) rotate(0) translate(4 1099.92)">
<title>G</title>
<polygon fill="white" stroke="white" points="-4,5 -4,-1099.92 1047,-1099.92 1047,5 -4,5"/>
<g id="graph2" class="cluster"><title>cluster_FluxAPI</title>
<polyline fill="none" stroke="gray" points="301,-162.783 888,-162.783 "/>
<path fill="none" stroke="gray" d="M888,-162.783C894,-162.783 900,-168.783 900,-174.783"/>
<polyline fill="none" stroke="gray" points="900,-174.783 900,-1048.78 "/>
<path fill="none" stroke="gray" d="M900,-1048.78C900,-1054.78 894,-1060.78 888,-1060.78"/>
<polyline fill="none" stroke="gray" points="888,-1060.78 301,-1060.78 "/>
<path fill="none" stroke="gray" d="M301,-1060.78C295,-1060.78 289,-1054.78 289,-1048.78"/>
<polyline fill="none" stroke="gray" points="289,-1048.78 289,-174.783 "/>
<path fill="none" stroke="gray" d="M289,-174.783C289,-168.783 295,-162.783 301,-162.783"/>
<text text-anchor="middle" x="594.5" y="-1046.88" font-family="Times Roman,serif" font-size="11.00" fill="gray">FluxAPI</text>
</g>
<g id="graph3" class="cluster"><title>cluster_FluxAPI\Event</title>
<polyline fill="none" stroke="gray" points="780,-912.783 856,-912.783 "/>
<path fill="none" stroke="gray" d="M856,-912.783C862,-912.783 868,-918.783 868,-924.783"/>
<polyline fill="none" stroke="gray" points="868,-924.783 868,-974.783 "/>
<path fill="none" stroke="gray" d="M868,-974.783C868,-980.783 862,-986.783 856,-986.783"/>
<polyline fill="none" stroke="gray" points="856,-986.783 780,-986.783 "/>
<path fill="none" stroke="gray" d="M780,-986.783C774,-986.783 768,-980.783 768,-974.783"/>
<polyline fill="none" stroke="gray" points="768,-974.783 768,-924.783 "/>
<path fill="none" stroke="gray" d="M768,-924.783C768,-918.783 774,-912.783 780,-912.783"/>
<text text-anchor="middle" x="818" y="-972.883" font-family="Times Roman,serif" font-size="11.00" fill="gray">Event</text>
</g>
<g id="graph4" class="cluster"><title>cluster_FluxAPI\EventListener</title>
<polyline fill="none" stroke="gray" points="770,-830.783 866,-830.783 "/>
<path fill="none" stroke="gray" d="M866,-830.783C872,-830.783 878,-836.783 878,-842.783"/>
<polyline fill="none" stroke="gray" points="878,-842.783 878,-892.783 "/>
<path fill="none" stroke="gray" d="M878,-892.783C878,-898.783 872,-904.783 866,-904.783"/>
<polyline fill="none" stroke="gray" points="866,-904.783 770,-904.783 "/>
<path fill="none" stroke="gray" d="M770,-904.783C764,-904.783 758,-898.783 758,-892.783"/>
<polyline fill="none" stroke="gray" points="758,-892.783 758,-842.783 "/>
<path fill="none" stroke="gray" d="M758,-842.783C758,-836.783 764,-830.783 770,-830.783"/>
<text text-anchor="middle" x="818" y="-890.883" font-family="Times Roman,serif" font-size="11.00" fill="gray">EventListener</text>
</g>
<g id="graph5" class="cluster"><title>cluster_FluxAPI\Factory</title>
<polyline fill="none" stroke="gray" points="756,-216.783 880,-216.783 "/>
<path fill="none" stroke="gray" d="M880,-216.783C886,-216.783 892,-222.783 892,-228.783"/>
<polyline fill="none" stroke="gray" points="892,-228.783 892,-548.783 "/>
<path fill="none" stroke="gray" d="M892,-548.783C892,-554.783 886,-560.783 880,-560.783"/>
<polyline fill="none" stroke="gray" points="880,-560.783 756,-560.783 "/>
<path fill="none" stroke="gray" d="M756,-560.783C750,-560.783 744,-554.783 744,-548.783"/>
<polyline fill="none" stroke="gray" points="744,-548.783 744,-228.783 "/>
<path fill="none" stroke="gray" d="M744,-228.783C744,-222.783 750,-216.783 756,-216.783"/>
<text text-anchor="middle" x="818" y="-546.883" font-family="Times Roman,serif" font-size="11.00" fill="gray">Factory</text>
</g>
<g id="graph6" class="cluster"><title>cluster_Plugins</title>
<polyline fill="none" stroke="gray" points="944,-606.783 1022,-606.783 "/>
<path fill="none" stroke="gray" d="M1022,-606.783C1028,-606.783 1034,-612.783 1034,-618.783"/>
<polyline fill="none" stroke="gray" points="1034,-618.783 1034,-926.783 "/>
<path fill="none" stroke="gray" d="M1034,-926.783C1034,-932.783 1028,-938.783 1022,-938.783"/>
<polyline fill="none" stroke="gray" points="1022,-938.783 944,-938.783 "/>
<path fill="none" stroke="gray" d="M944,-938.783C938,-938.783 932,-932.783 932,-926.783"/>
<polyline fill="none" stroke="gray" points="932,-926.783 932,-618.783 "/>
<path fill="none" stroke="gray" d="M932,-618.783C932,-612.783 938,-606.783 944,-606.783"/>
<text text-anchor="middle" x="983" y="-924.883" font-family="Times Roman,serif" font-size="11.00" fill="gray">Plugins</text>
</g>
<g id="graph7" class="cluster"><title>cluster_Plugins\Core</title>
<polyline fill="none" stroke="gray" points="952,-614.783 1014,-614.783 "/>
<path fill="none" stroke="gray" d="M1014,-614.783C1020,-614.783 1026,-620.783 1026,-626.783"/>
<polyline fill="none" stroke="gray" points="1026,-626.783 1026,-896.783 "/>
<path fill="none" stroke="gray" d="M1026,-896.783C1026,-902.783 1020,-908.783 1014,-908.783"/>
<polyline fill="none" stroke="gray" points="1014,-908.783 952,-908.783 "/>
<path fill="none" stroke="gray" d="M952,-908.783C946,-908.783 940,-902.783 940,-896.783"/>
<polyline fill="none" stroke="gray" points="940,-896.783 940,-626.783 "/>
<path fill="none" stroke="gray" d="M940,-626.783C940,-620.783 946,-614.783 952,-614.783"/>
<text text-anchor="middle" x="983" y="-894.883" font-family="Times Roman,serif" font-size="11.00" fill="gray">Core</text>
</g>
<g id="graph8" class="cluster"><title>cluster_Plugins\Core\Model</title>
<polyline fill="none" stroke="gray" points="960,-804.783 1006,-804.783 "/>
<path fill="none" stroke="gray" d="M1006,-804.783C1012,-804.783 1018,-810.783 1018,-816.783"/>
<polyline fill="none" stroke="gray" points="1018,-816.783 1018,-866.783 "/>
<path fill="none" stroke="gray" d="M1018,-866.783C1018,-872.783 1012,-878.783 1006,-878.783"/>
<polyline fill="none" stroke="gray" points="1006,-878.783 960,-878.783 "/>
<path fill="none" stroke="gray" d="M960,-878.783C954,-878.783 948,-872.783 948,-866.783"/>
<polyline fill="none" stroke="gray" points="948,-866.783 948,-816.783 "/>
<path fill="none" stroke="gray" d="M948,-816.783C948,-810.783 954,-804.783 960,-804.783"/>
<text text-anchor="middle" x="983" y="-864.883" font-family="Times Roman,serif" font-size="11.00" fill="gray">Model</text>
</g>
<g id="graph9" class="cluster"><title>cluster_Plugins\Core\Storage</title>
<polyline fill="none" stroke="gray" points="960,-722.783 1006,-722.783 "/>
<path fill="none" stroke="gray" d="M1006,-722.783C1012,-722.783 1018,-728.783 1018,-734.783"/>
<polyline fill="none" stroke="gray" points="1018,-734.783 1018,-784.783 "/>
<path fill="none" stroke="gray" d="M1018,-784.783C1018,-790.783 1012,-796.783 1006,-796.783"/>
<polyline fill="none" stroke="gray" points="1006,-796.783 960,-796.783 "/>
<path fill="none" stroke="gray" d="M960,-796.783C954,-796.783 948,-790.783 948,-784.783"/>
<polyline fill="none" stroke="gray" points="948,-784.783 948,-734.783 "/>
<path fill="none" stroke="gray" d="M948,-734.783C948,-728.783 954,-722.783 960,-722.783"/>
<text text-anchor="middle" x="983" y="-782.883" font-family="Times Roman,serif" font-size="11.00" fill="gray">Storage</text>
</g>
<!-- \\FluxAPI\\Event\\ModelEvent -->
<g id="node3" class="node"><title>\\FluxAPI\\Event\\ModelEvent</title>
<a xlink:href="FluxAPI.Event.ModelEvent.html" xlink:title="ModelEvent" target="_parent">
<polygon fill="none" stroke="black" points="860,-956.783 776,-956.783 776,-920.783 860,-920.783 860,-956.783"/>
<text text-anchor="middle" x="818" y="-935.883" font-family="Courier,monospace" font-size="11.00">ModelEvent</text>
</a>
</g>
<!-- \\Symfony\\Component\\EventDispatcher\\Event -->
<g id="node36" class="node"><title>\\Symfony\\Component\\EventDispatcher\\Event</title>
<ellipse fill="none" stroke="black" cx="340" cy="-136.783" rx="232.138" ry="18.3848"/>
<text text-anchor="middle" x="340" y="-133.183" font-family="Times Roman,serif" font-size="14.00" fill="gray">\Symfony\Component\EventDispatcher\Event</text>
</g>
<!-- \\FluxAPI\\Event\\ModelEvent&#45;&gt;\\Symfony\\Component\\EventDispatcher\\Event -->
<g id="edge18" class="edge"><title>\\FluxAPI\\Event\\ModelEvent&#45;&gt;\\Symfony\\Component\\EventDispatcher\\Event</title>
<path fill="none" stroke="black" d="M775.896,-930.547C763.765,-926.102 751.734,-919.271 744,-908.783 644.726,-774.155 799.486,-275.843 680,-158.783 660.658,-139.834 611.666,-131.625 556.705,-128.897"/>
<polygon fill="none" stroke="black" points="556.521,-125.386 546.379,-128.45 556.219,-132.379 556.521,-125.386"/>
</g>
<!-- \\FluxAPI\\EventListener\\ModelListener -->
<g id="node5" class="node"><title>\\FluxAPI\\EventListener\\ModelListener</title>
<a xlink:href="FluxAPI.EventListener.ModelListener.html" xlink:title="ModelListener" target="_parent">
<polygon fill="none" stroke="black" points="870,-874.783 766,-874.783 766,-838.783 870,-838.783 870,-874.783"/>
<text text-anchor="middle" x="818" y="-853.883" font-family="Courier,monospace" font-size="11.00">ModelListener</text>
</a>
</g>
<!-- \\Symfony\\Component\\EventDispatcher\\EventSubscriberInterface -->
<g id="node41" class="node"><title>\\Symfony\\Component\\EventDispatcher\\EventSubscriberInterface</title>
<ellipse fill="none" stroke="black" cx="340" cy="-82.783" rx="340.118" ry="18.3848"/>
<text text-anchor="middle" x="340" y="-79.183" font-family="Times Roman,serif" font-size="14.00" fill="gray">\\Symfony\\Component\\EventDispatcher\\EventSubscriberInterface</text>
</g>
<!-- \\FluxAPI\\EventListener\\ModelListener&#45;&gt;\\Symfony\\Component\\EventDispatcher\\EventSubscriberInterface -->
<g id="edge26" class="edge"><title>\\FluxAPI\\EventListener\\ModelListener&#45;&gt;\\Symfony\\Component\\EventDispatcher\\EventSubscriberInterface</title>
<path fill="none" stroke="black" stroke-dasharray="1,5" d="M765.842,-849.887C757.457,-846.559 749.681,-841.738 744,-834.783 641.681,-709.524 794.868,-223.644 680,-109.783 673.675,-103.513 664.141,-98.3438 652.241,-94.1032"/>
<polygon fill="none" stroke="black" points="653.284,-90.7623 642.693,-91.0385 651.145,-97.4273 653.284,-90.7623"/>
</g>
<!-- \\FluxAPI\\Factory\\ModelFactory -->
<g id="node7" class="node"><title>\\FluxAPI\\Factory\\ModelFactory</title>
<a xlink:href="FluxAPI.Factory.ModelFactory.html" xlink:title="ModelFactory" target="_parent">
<polygon fill="none" stroke="black" points="867,-530.783 769,-530.783 769,-494.783 867,-494.783 867,-530.783"/>
<text text-anchor="middle" x="818" y="-509.883" font-family="Courier,monospace" font-size="11.00">ModelFactory</text>
</a>
</g>
<!-- \\FluxAPI\\Factory\\MethodFactory -->
<g id="node8" class="node"><title>\\FluxAPI\\Factory\\MethodFactory</title>
<a xlink:href="FluxAPI.Factory.MethodFactory.html" xlink:title="MethodFactory" target="_parent">
<polygon fill="none" stroke="black" points="870,-476.783 766,-476.783 766,-440.783 870,-440.783 870,-476.783"/>
<text text-anchor="middle" x="818" y="-455.883" font-family="Courier,monospace" font-size="11.00">MethodFactory</text>
</a>
</g>
<!-- \\FluxAPI\\Factory\\PluginFactory -->
<g id="node9" class="node"><title>\\FluxAPI\\Factory\\PluginFactory</title>
<a xlink:href="FluxAPI.Factory.PluginFactory.html" xlink:title="PluginFactory" target="_parent">
<polygon fill="none" stroke="black" points="870,-422.783 766,-422.783 766,-386.783 870,-386.783 870,-422.783"/>
<text text-anchor="middle" x="818" y="-401.883" font-family="Courier,monospace" font-size="11.00">PluginFactory</text>
</a>
</g>
<!-- \\FluxAPI\\Factory\\PermissionFactory -->
<g id="node10" class="node"><title>\\FluxAPI\\Factory\\PermissionFactory</title>
<a xlink:href="FluxAPI.Factory.PermissionFactory.html" xlink:title="PermissionFactory" target="_parent">
<polygon fill="none" stroke="black" points="883,-368.783 753,-368.783 753,-332.783 883,-332.783 883,-368.783"/>
<text text-anchor="middle" x="818" y="-347.883" font-family="Courier,monospace" font-size="11.00">PermissionFactory</text>
</a>
</g>
<!-- \\FluxAPI\\Factory\\ControllerFactory -->
<g id="node11" class="node"><title>\\FluxAPI\\Factory\\ControllerFactory</title>
<a xlink:href="FluxAPI.Factory.ControllerFactory.html" xlink:title="ControllerFactory" target="_parent">
<polygon fill="none" stroke="black" points="883,-314.783 753,-314.783 753,-278.783 883,-278.783 883,-314.783"/>
<text text-anchor="middle" x="818" y="-293.883" font-family="Courier,monospace" font-size="11.00">ControllerFactory</text>
</a>
</g>
<!-- \\FluxAPI\\Factory\\StorageFactory -->
<g id="node12" class="node"><title>\\FluxAPI\\Factory\\StorageFactory</title>
<a xlink:href="FluxAPI.Factory.StorageFactory.html" xlink:title="StorageFactory" target="_parent">
<polygon fill="none" stroke="black" points="873,-260.783 763,-260.783 763,-224.783 873,-224.783 873,-260.783"/>
<text text-anchor="middle" x="818" y="-239.883" font-family="Courier,monospace" font-size="11.00">StorageFactory</text>
</a>
</g>
<!-- \\Pimple -->
<g id="node32" class="node"><title>\\Pimple</title>
<ellipse fill="none" stroke="black" cx="340" cy="-28.783" rx="46.8775" ry="18.3848"/>
<text text-anchor="middle" x="340" y="-25.183" font-family="Times Roman,serif" font-size="14.00" fill="gray">\Pimple</text>
</g>
<!-- \\FluxAPI\\Factory\\StorageFactory&#45;&gt;\\Pimple -->
<g id="edge16" class="edge"><title>\\FluxAPI\\Factory\\StorageFactory&#45;&gt;\\Pimple</title>
<path fill="none" stroke="black" d="M762.427,-232.471C755.69,-229.505 749.321,-225.689 744,-220.783 686.174,-167.463 743.089,-102.757 680,-55.783 595.009,7.49844 462.705,-4.49714 390.762,-17.4506"/>
<polygon fill="none" stroke="black" points="389.781,-14.0737 380.599,-19.3598 391.073,-20.9534 389.781,-14.0737"/>
</g>
<!-- \\FluxAPI\\Api -->
<g id="node13" class="node"><title>\\FluxAPI\\Api</title>
<a xlink:href="FluxAPI.Api.html" xlink:title="Api" target="_parent">
<polygon fill="none" stroke="black" points="845,-820.783 791,-820.783 791,-784.783 845,-784.783 845,-820.783"/>
<text text-anchor="middle" x="818" y="-799.883" font-family="Courier,monospace" font-size="11.00">Api</text>
</a>
</g>
<!-- \\FluxAPI\\Api&#45;&gt;\\Pimple -->
<g id="edge12" class="edge"><title>\\FluxAPI\\Api&#45;&gt;\\Pimple</title>
<path fill="none" stroke="black" d="M790.838,-800.065C774.618,-796.934 755.077,-790.21 744,-775.783 646.176,-648.375 794.116,-168.83 680,-55.783 602.96,20.5352 462.146,1.47859 388.229,-15.5519"/>
<polygon fill="none" stroke="black" points="387.171,-12.206 378.256,-17.9314 388.796,-19.0149 387.171,-12.206"/>
</g>
<!-- \\FluxAPI\\Model -->
<g id="node14" class="node"><title>\\FluxAPI\\Model</title>
<a xlink:href="FluxAPI.Model.html" xlink:title="«abstract»&lt;br/&gt;Model" target="_parent">
<polygon fill="none" stroke="black" points="382,-1030.78 298,-1030.78 298,-994.783 382,-994.783 382,-1030.78"/>
<text text-anchor="start" x="306" y="-1018.22" font-family="Courier,monospace" font-size="11.00">«abstract»</text>
<text text-anchor="start" x="323" y="-1005.02" font-family="Courier,monospace" font-size="11.00">Model</text>
</a>
</g>
<!-- \\FluxAPI\\Storage -->
<g id="node15" class="node"><title>\\FluxAPI\\Storage</title>
<a xlink:href="FluxAPI.Storage.html" xlink:title="«abstract»&lt;br/&gt;Storage" target="_parent">
<polygon fill="none" stroke="black" points="860,-766.783 776,-766.783 776,-730.783 860,-730.783 860,-766.783"/>
<text text-anchor="start" x="784" y="-754.216" font-family="Courier,monospace" font-size="11.00">«abstract»</text>
<text text-anchor="start" x="794" y="-741.016" font-family="Courier,monospace" font-size="11.00">Storage</text>
</a>
</g>
<!-- \\FluxAPI\\Permission -->
<g id="node16" class="node"><title>\\FluxAPI\\Permission</title>
<a xlink:href="FluxAPI.Permission.html" xlink:title="«abstract»&lt;br/&gt;Permission" target="_parent">
<polygon fill="none" stroke="black" points="860,-712.783 776,-712.783 776,-676.783 860,-676.783 860,-712.783"/>
<text text-anchor="start" x="784" y="-700.216" font-family="Courier,monospace" font-size="11.00">«abstract»</text>
<text text-anchor="start" x="784" y="-687.016" font-family="Courier,monospace" font-size="11.00">Permission</text>
</a>
</g>
<!-- \\FluxAPI\\Plugin -->
<g id="node17" class="node"><title>\\FluxAPI\\Plugin</title>
<a xlink:href="FluxAPI.Plugin.html" xlink:title="«abstract»&lt;br/&gt;Plugin" target="_parent">
<polygon fill="none" stroke="black" points="860,-658.783 776,-658.783 776,-622.783 860,-622.783 860,-658.783"/>
<text text-anchor="start" x="784" y="-646.216" font-family="Courier,monospace" font-size="11.00">«abstract»</text>
<text text-anchor="start" x="797.5" y="-633.016" font-family="Courier,monospace" font-size="11.00">Plugin</text>
</a>
</g>
<!-- \\FluxAPI\\Query -->
<g id="node18" class="node"><title>\\FluxAPI\\Query</title>
<a xlink:href="FluxAPI.Query.html" xlink:title="Query" target="_parent">
<polygon fill="none" stroke="black" points="845,-604.783 791,-604.783 791,-568.783 845,-568.783 845,-604.783"/>
<text text-anchor="middle" x="818" y="-583.883" font-family="Courier,monospace" font-size="11.00">Query</text>
</a>
</g>
<!-- \\FluxAPI\\DynamicModel -->
<g id="node19" class="node"><title>\\FluxAPI\\DynamicModel</title>
<a xlink:href="FluxAPI.DynamicModel.html" xlink:title="DynamicModel" target="_parent">
<polygon fill="none" stroke="black" points="867,-1030.78 769,-1030.78 769,-994.783 867,-994.783 867,-1030.78"/>
<text text-anchor="middle" x="818" y="-1009.88" font-family="Courier,monospace" font-size="11.00">DynamicModel</text>
</a>
</g>
<!-- \\FluxAPI\\DynamicModel&#45;&gt;\\FluxAPI\\Model -->
<g id="edge14" class="edge"><title>\\FluxAPI\\DynamicModel&#45;&gt;\\FluxAPI\\Model</title>
<path fill="none" stroke="black" d="M768.646,-1012.78C678.06,-1012.78 486.031,-1012.78 392.882,-1012.78"/>
<polygon fill="none" stroke="black" points="392.833,-1009.28 382.833,-1012.78 392.833,-1016.28 392.833,-1009.28"/>
</g>
<!-- \\FluxAPI\\Field -->
<g id="node20" class="node"><title>\\FluxAPI\\Field</title>
<a xlink:href="FluxAPI.Field.html" xlink:title="Field" target="_parent">
<polygon fill="none" stroke="black" points="845,-206.783 791,-206.783 791,-170.783 845,-170.783 845,-206.783"/>
<text text-anchor="middle" x="818" y="-185.883" font-family="Courier,monospace" font-size="11.00">Field</text>
</a>
</g>
<!-- \\Plugins\\Core\\Model\\Node -->
<g id="node24" class="node"><title>\\Plugins\\Core\\Model\\Node</title>
<a xlink:href="Plugins.Core.Model.Node.html" xlink:title="Node" target="_parent">
<polygon fill="none" stroke="black" points="1010,-848.783 956,-848.783 956,-812.783 1010,-812.783 1010,-848.783"/>
<text text-anchor="middle" x="983" y="-827.883" font-family="Courier,monospace" font-size="11.00">Node</text>
</a>
</g>
<!-- \\Plugins\\Core\\Model\\Node&#45;&gt;\\FluxAPI\\Model -->
<g id="edge22" class="edge"><title>\\Plugins\\Core\\Model\\Node&#45;&gt;\\FluxAPI\\Model</title>
<path fill="none" stroke="black" d="M982.189,-848.845C979.205,-890.969 965.249,-995.489 900,-1039.78 742.249,-1146.87 498.036,-1074.27 392.041,-1034.27"/>
<polygon fill="none" stroke="black" points="393.115,-1030.93 382.525,-1030.62 390.611,-1037.47 393.115,-1030.93"/>
</g>
<!-- \\Plugins\\Core\\Storage\\MySql -->
<g id="node26" class="node"><title>\\Plugins\\Core\\Storage\\MySql</title>
<a xlink:href="Plugins.Core.Storage.MySql.html" xlink:title="MySql" target="_parent">
<polygon fill="none" stroke="black" points="1010,-766.783 956,-766.783 956,-730.783 1010,-730.783 1010,-766.783"/>
<text text-anchor="middle" x="983" y="-745.883" font-family="Courier,monospace" font-size="11.00">MySql</text>
</a>
</g>
<!-- \\Plugins\\Core\\Storage\\MySql&#45;&gt;\\FluxAPI\\Storage -->
<g id="edge20" class="edge"><title>\\Plugins\\Core\\Storage\\MySql&#45;&gt;\\FluxAPI\\Storage</title>
<path fill="none" stroke="black" d="M955.754,-748.783C932.765,-748.783 899.182,-748.783 870.931,-748.783"/>
<polygon fill="none" stroke="black" points="870.793,-745.283 860.793,-748.783 870.793,-752.283 870.793,-745.283"/>
</g>
<!-- \\Plugins\\Core\\Rest -->
<g id="node27" class="node"><title>\\Plugins\\Core\\Rest</title>
<a xlink:href="Plugins.Core.Rest.html" xlink:title="Rest" target="_parent">
<polygon fill="none" stroke="black" points="1010,-712.783 956,-712.783 956,-676.783 1010,-676.783 1010,-712.783"/>
<text text-anchor="middle" x="983" y="-691.883" font-family="Courier,monospace" font-size="11.00">Rest</text>
</a>
</g>
<!-- \\Plugins\\Core\\Core -->
<g id="node28" class="node"><title>\\Plugins\\Core\\Core</title>
<a xlink:href="Plugins.Core.Core.html" xlink:title="Core" target="_parent">
<polygon fill="none" stroke="black" points="1010,-658.783 956,-658.783 956,-622.783 1010,-622.783 1010,-658.783"/>
<text text-anchor="middle" x="983" y="-637.883" font-family="Courier,monospace" font-size="11.00">Core</text>
</a>
</g>
<!-- \\Plugins\\Core\\Core&#45;&gt;\\FluxAPI\\Plugin -->
<g id="edge24" class="edge"><title>\\Plugins\\Core\\Core&#45;&gt;\\FluxAPI\\Plugin</title>
<path fill="none" stroke="black" d="M955.754,-640.783C932.765,-640.783 899.182,-640.783 870.931,-640.783"/>
<polygon fill="none" stroke="black" points="870.793,-637.283 860.793,-640.783 870.793,-644.283 870.793,-637.283"/>
</g>
</g>
</svg>
