<?xml version="1.0" encoding="UTF-8" standalone="no"?>
<!DOCTYPE svg PUBLIC "-//W3C//DTD SVG 1.1//EN"
 "http://www.w3.org/Graphics/SVG/1.1/DTD/svg11.dtd">
<!-- Generated by graphviz version 2.26.3 (20100126.1600)
 -->
<!-- Title: G Pages: 1 -->
<svg width="1050pt" height="996pt"
 viewBox="0.00 0.00 1050.00 995.55" xmlns="http://www.w3.org/2000/svg" xmlns:xlink="http://www.w3.org/1999/xlink">
<g id="graph1" class="graph" transform="scale(1 1) rotate(0) translate(4 991.548)">
<title>G</title>
<polygon fill="white" stroke="white" points="-4,5 -4,-991.548 1047,-991.548 1047,5 -4,5"/>
<g id="graph2" class="cluster"><title>cluster_FluxAPI</title>
<polyline fill="none" stroke="gray" points="301,-162.415 888,-162.415 "/>
<path fill="none" stroke="gray" d="M888,-162.415C894,-162.415 900,-168.415 900,-174.415"/>
<polyline fill="none" stroke="gray" points="900,-174.415 900,-940.415 "/>
<path fill="none" stroke="gray" d="M900,-940.415C900,-946.415 894,-952.415 888,-952.415"/>
<polyline fill="none" stroke="gray" points="888,-952.415 301,-952.415 "/>
<path fill="none" stroke="gray" d="M301,-952.415C295,-952.415 289,-946.415 289,-940.415"/>
<polyline fill="none" stroke="gray" points="289,-940.415 289,-174.415 "/>
<path fill="none" stroke="gray" d="M289,-174.415C289,-168.415 295,-162.415 301,-162.415"/>
<text text-anchor="middle" x="594.5" y="-938.515" font-family="Times Roman,serif" font-size="11.00" fill="gray">FluxAPI</text>
</g>
<g id="graph3" class="cluster"><title>cluster_FluxAPI\Event</title>
<polyline fill="none" stroke="gray" points="780,-804.415 856,-804.415 "/>
<path fill="none" stroke="gray" d="M856,-804.415C862,-804.415 868,-810.415 868,-816.415"/>
<polyline fill="none" stroke="gray" points="868,-816.415 868,-866.415 "/>
<path fill="none" stroke="gray" d="M868,-866.415C868,-872.415 862,-878.415 856,-878.415"/>
<polyline fill="none" stroke="gray" points="856,-878.415 780,-878.415 "/>
<path fill="none" stroke="gray" d="M780,-878.415C774,-878.415 768,-872.415 768,-866.415"/>
<polyline fill="none" stroke="gray" points="768,-866.415 768,-816.415 "/>
<path fill="none" stroke="gray" d="M768,-816.415C768,-810.415 774,-804.415 780,-804.415"/>
<text text-anchor="middle" x="818" y="-864.515" font-family="Times Roman,serif" font-size="11.00" fill="gray">Event</text>
</g>
<g id="graph4" class="cluster"><title>cluster_FluxAPI\EventListener</title>
<polyline fill="none" stroke="gray" points="770,-722.415 866,-722.415 "/>
<path fill="none" stroke="gray" d="M866,-722.415C872,-722.415 878,-728.415 878,-734.415"/>
<polyline fill="none" stroke="gray" points="878,-734.415 878,-784.415 "/>
<path fill="none" stroke="gray" d="M878,-784.415C878,-790.415 872,-796.415 866,-796.415"/>
<polyline fill="none" stroke="gray" points="866,-796.415 770,-796.415 "/>
<path fill="none" stroke="gray" d="M770,-796.415C764,-796.415 758,-790.415 758,-784.415"/>
<polyline fill="none" stroke="gray" points="758,-784.415 758,-734.415 "/>
<path fill="none" stroke="gray" d="M758,-734.415C758,-728.415 764,-722.415 770,-722.415"/>
<text text-anchor="middle" x="818" y="-782.515" font-family="Times Roman,serif" font-size="11.00" fill="gray">EventListener</text>
</g>
<g id="graph5" class="cluster"><title>cluster_FluxAPI\Factory</title>
<polyline fill="none" stroke="gray" points="756,-216.415 880,-216.415 "/>
<path fill="none" stroke="gray" d="M880,-216.415C886,-216.415 892,-222.415 892,-228.415"/>
<polyline fill="none" stroke="gray" points="892,-228.415 892,-440.415 "/>
<path fill="none" stroke="gray" d="M892,-440.415C892,-446.415 886,-452.415 880,-452.415"/>
<polyline fill="none" stroke="gray" points="880,-452.415 756,-452.415 "/>
<path fill="none" stroke="gray" d="M756,-452.415C750,-452.415 744,-446.415 744,-440.415"/>
<polyline fill="none" stroke="gray" points="744,-440.415 744,-228.415 "/>
<path fill="none" stroke="gray" d="M744,-228.415C744,-222.415 750,-216.415 756,-216.415"/>
<text text-anchor="middle" x="818" y="-438.515" font-family="Times Roman,serif" font-size="11.00" fill="gray">Factory</text>
</g>
<g id="graph6" class="cluster"><title>cluster_Plugins</title>
<polyline fill="none" stroke="gray" points="944,-498.415 1022,-498.415 "/>
<path fill="none" stroke="gray" d="M1022,-498.415C1028,-498.415 1034,-504.415 1034,-510.415"/>
<polyline fill="none" stroke="gray" points="1034,-510.415 1034,-818.415 "/>
<path fill="none" stroke="gray" d="M1034,-818.415C1034,-824.415 1028,-830.415 1022,-830.415"/>
<polyline fill="none" stroke="gray" points="1022,-830.415 944,-830.415 "/>
<path fill="none" stroke="gray" d="M944,-830.415C938,-830.415 932,-824.415 932,-818.415"/>
<polyline fill="none" stroke="gray" points="932,-818.415 932,-510.415 "/>
<path fill="none" stroke="gray" d="M932,-510.415C932,-504.415 938,-498.415 944,-498.415"/>
<text text-anchor="middle" x="983" y="-816.515" font-family="Times Roman,serif" font-size="11.00" fill="gray">Plugins</text>
</g>
<g id="graph7" class="cluster"><title>cluster_Plugins\Core</title>
<polyline fill="none" stroke="gray" points="952,-506.415 1014,-506.415 "/>
<path fill="none" stroke="gray" d="M1014,-506.415C1020,-506.415 1026,-512.415 1026,-518.415"/>
<polyline fill="none" stroke="gray" points="1026,-518.415 1026,-788.415 "/>
<path fill="none" stroke="gray" d="M1026,-788.415C1026,-794.415 1020,-800.415 1014,-800.415"/>
<polyline fill="none" stroke="gray" points="1014,-800.415 952,-800.415 "/>
<path fill="none" stroke="gray" d="M952,-800.415C946,-800.415 940,-794.415 940,-788.415"/>
<polyline fill="none" stroke="gray" points="940,-788.415 940,-518.415 "/>
<path fill="none" stroke="gray" d="M940,-518.415C940,-512.415 946,-506.415 952,-506.415"/>
<text text-anchor="middle" x="983" y="-786.515" font-family="Times Roman,serif" font-size="11.00" fill="gray">Core</text>
</g>
<g id="graph8" class="cluster"><title>cluster_Plugins\Core\Model</title>
<polyline fill="none" stroke="gray" points="960,-696.415 1006,-696.415 "/>
<path fill="none" stroke="gray" d="M1006,-696.415C1012,-696.415 1018,-702.415 1018,-708.415"/>
<polyline fill="none" stroke="gray" points="1018,-708.415 1018,-758.415 "/>
<path fill="none" stroke="gray" d="M1018,-758.415C1018,-764.415 1012,-770.415 1006,-770.415"/>
<polyline fill="none" stroke="gray" points="1006,-770.415 960,-770.415 "/>
<path fill="none" stroke="gray" d="M960,-770.415C954,-770.415 948,-764.415 948,-758.415"/>
<polyline fill="none" stroke="gray" points="948,-758.415 948,-708.415 "/>
<path fill="none" stroke="gray" d="M948,-708.415C948,-702.415 954,-696.415 960,-696.415"/>
<text text-anchor="middle" x="983" y="-756.515" font-family="Times Roman,serif" font-size="11.00" fill="gray">Model</text>
</g>
<g id="graph9" class="cluster"><title>cluster_Plugins\Core\Storage</title>
<polyline fill="none" stroke="gray" points="960,-614.415 1006,-614.415 "/>
<path fill="none" stroke="gray" d="M1006,-614.415C1012,-614.415 1018,-620.415 1018,-626.415"/>
<polyline fill="none" stroke="gray" points="1018,-626.415 1018,-676.415 "/>
<path fill="none" stroke="gray" d="M1018,-676.415C1018,-682.415 1012,-688.415 1006,-688.415"/>
<polyline fill="none" stroke="gray" points="1006,-688.415 960,-688.415 "/>
<path fill="none" stroke="gray" d="M960,-688.415C954,-688.415 948,-682.415 948,-676.415"/>
<polyline fill="none" stroke="gray" points="948,-676.415 948,-626.415 "/>
<path fill="none" stroke="gray" d="M948,-626.415C948,-620.415 954,-614.415 960,-614.415"/>
<text text-anchor="middle" x="983" y="-674.515" font-family="Times Roman,serif" font-size="11.00" fill="gray">Storage</text>
</g>
<!-- \\FluxAPI\\Event\\ModelEvent -->
<g id="node3" class="node"><title>\\FluxAPI\\Event\\ModelEvent</title>
<a xlink:href="FluxAPI.Event.ModelEvent.html" xlink:title="ModelEvent" target="_parent">
<polygon fill="none" stroke="black" points="860,-848.415 776,-848.415 776,-812.415 860,-812.415 860,-848.415"/>
<text text-anchor="middle" x="818" y="-827.515" font-family="Courier,monospace" font-size="11.00">ModelEvent</text>
</a>
</g>
<!-- \\Symfony\\Component\\EventDispatcher\\Event -->
<g id="node34" class="node"><title>\\Symfony\\Component\\EventDispatcher\\Event</title>
<ellipse fill="none" stroke="black" cx="340" cy="-136.415" rx="232.138" ry="18.3848"/>
<text text-anchor="middle" x="340" y="-132.815" font-family="Times Roman,serif" font-size="14.00" fill="gray">\Symfony\Component\EventDispatcher\Event</text>
</g>
<!-- \\FluxAPI\\Event\\ModelEvent&#45;&gt;\\Symfony\\Component\\EventDispatcher\\Event -->
<g id="edge18" class="edge"><title>\\FluxAPI\\Event\\ModelEvent&#45;&gt;\\Symfony\\Component\\EventDispatcher\\Event</title>
<path fill="none" stroke="black" d="M775.985,-822.112C763.859,-817.663 751.808,-810.847 744,-800.415 658.091,-685.629 783.126,-258.019 680,-158.415 660.674,-139.749 612.248,-131.56 557.809,-128.764"/>
<polygon fill="none" stroke="black" points="557.728,-125.256 547.58,-128.303 557.412,-132.249 557.728,-125.256"/>
</g>
<!-- \\FluxAPI\\EventListener\\ModelListener -->
<g id="node5" class="node"><title>\\FluxAPI\\EventListener\\ModelListener</title>
<a xlink:href="FluxAPI.EventListener.ModelListener.html" xlink:title="ModelListener" target="_parent">
<polygon fill="none" stroke="black" points="870,-766.415 766,-766.415 766,-730.415 870,-730.415 870,-766.415"/>
<text text-anchor="middle" x="818" y="-745.515" font-family="Courier,monospace" font-size="11.00">ModelListener</text>
</a>
</g>
<!-- \\Symfony\\Component\\EventDispatcher\\EventSubscriberInterface -->
<g id="node39" class="node"><title>\\Symfony\\Component\\EventDispatcher\\EventSubscriberInterface</title>
<ellipse fill="none" stroke="black" cx="340" cy="-82.4146" rx="340.118" ry="18.3848"/>
<text text-anchor="middle" x="340" y="-78.8146" font-family="Times Roman,serif" font-size="14.00" fill="gray">\\Symfony\\Component\\EventDispatcher\\EventSubscriberInterface</text>
</g>
<!-- \\FluxAPI\\EventListener\\ModelListener&#45;&gt;\\Symfony\\Component\\EventDispatcher\\EventSubscriberInterface -->
<g id="edge26" class="edge"><title>\\FluxAPI\\EventListener\\ModelListener&#45;&gt;\\Symfony\\Component\\EventDispatcher\\EventSubscriberInterface</title>
<path fill="none" stroke="black" stroke-dasharray="1,5" d="M765.929,-741.447C757.535,-738.126 749.734,-733.326 744,-726.415 655.98,-620.328 778.64,-205.705 680,-109.415 673.585,-103.152 663.93,-97.9933 651.892,-93.7648"/>
<polygon fill="none" stroke="black" points="652.826,-90.3893 642.236,-90.7097 650.714,-97.0633 652.826,-90.3893"/>
</g>
<!-- \\FluxAPI\\Factory\\ModelFactory -->
<g id="node7" class="node"><title>\\FluxAPI\\Factory\\ModelFactory</title>
<a xlink:href="FluxAPI.Factory.ModelFactory.html" xlink:title="ModelFactory" target="_parent">
<polygon fill="none" stroke="black" points="867,-422.415 769,-422.415 769,-386.415 867,-386.415 867,-422.415"/>
<text text-anchor="middle" x="818" y="-401.515" font-family="Courier,monospace" font-size="11.00">ModelFactory</text>
</a>
</g>
<!-- \\FluxAPI\\Factory\\PermissionFactory -->
<g id="node8" class="node"><title>\\FluxAPI\\Factory\\PermissionFactory</title>
<a xlink:href="FluxAPI.Factory.PermissionFactory.html" xlink:title="PermissionFactory" target="_parent">
<polygon fill="none" stroke="black" points="883,-368.415 753,-368.415 753,-332.415 883,-332.415 883,-368.415"/>
<text text-anchor="middle" x="818" y="-347.515" font-family="Courier,monospace" font-size="11.00">PermissionFactory</text>
</a>
</g>
<!-- \\FluxAPI\\Factory\\ControllerFactory -->
<g id="node9" class="node"><title>\\FluxAPI\\Factory\\ControllerFactory</title>
<a xlink:href="FluxAPI.Factory.ControllerFactory.html" xlink:title="ControllerFactory" target="_parent">
<polygon fill="none" stroke="black" points="883,-314.415 753,-314.415 753,-278.415 883,-278.415 883,-314.415"/>
<text text-anchor="middle" x="818" y="-293.515" font-family="Courier,monospace" font-size="11.00">ControllerFactory</text>
</a>
</g>
<!-- \\FluxAPI\\Factory\\StorageFactory -->
<g id="node10" class="node"><title>\\FluxAPI\\Factory\\StorageFactory</title>
<a xlink:href="FluxAPI.Factory.StorageFactory.html" xlink:title="StorageFactory" target="_parent">
<polygon fill="none" stroke="black" points="873,-260.415 763,-260.415 763,-224.415 873,-224.415 873,-260.415"/>
<text text-anchor="middle" x="818" y="-239.515" font-family="Courier,monospace" font-size="11.00">StorageFactory</text>
</a>
</g>
<!-- \\Pimple -->
<g id="node30" class="node"><title>\\Pimple</title>
<ellipse fill="none" stroke="black" cx="340" cy="-28.4146" rx="46.8775" ry="18.3848"/>
<text text-anchor="middle" x="340" y="-24.8146" font-family="Times Roman,serif" font-size="14.00" fill="gray">\Pimple</text>
</g>
<!-- \\FluxAPI\\Factory\\StorageFactory&#45;&gt;\\Pimple -->
<g id="edge16" class="edge"><title>\\FluxAPI\\Factory\\StorageFactory&#45;&gt;\\Pimple</title>
<path fill="none" stroke="black" d="M762.427,-232.102C755.69,-229.136 749.321,-225.321 744,-220.415 686.174,-167.095 743.089,-102.389 680,-55.4146 595.009,7.86679 462.705,-4.12879 390.762,-17.0822"/>
<polygon fill="none" stroke="black" points="389.781,-13.7053 380.599,-18.9915 391.073,-20.585 389.781,-13.7053"/>
</g>
<!-- \\FluxAPI\\Api -->
<g id="node11" class="node"><title>\\FluxAPI\\Api</title>
<a xlink:href="FluxAPI.Api.html" xlink:title="Api" target="_parent">
<polygon fill="none" stroke="black" points="845,-712.415 791,-712.415 791,-676.415 845,-676.415 845,-712.415"/>
<text text-anchor="middle" x="818" y="-691.515" font-family="Courier,monospace" font-size="11.00">Api</text>
</a>
</g>
<!-- \\FluxAPI\\Api&#45;&gt;\\Pimple -->
<g id="edge12" class="edge"><title>\\FluxAPI\\Api&#45;&gt;\\Pimple</title>
<path fill="none" stroke="black" d="M790.916,-691.637C774.725,-688.482 755.189,-681.755 744,-667.415 659.884,-559.605 777.89,-150.892 680,-55.4146 602.37,20.3026 461.81,1.50487 388.085,-15.3296"/>
<polygon fill="none" stroke="black" points="387.065,-11.9742 378.139,-17.682 388.677,-18.7863 387.065,-11.9742"/>
</g>
<!-- \\FluxAPI\\Model -->
<g id="node12" class="node"><title>\\FluxAPI\\Model</title>
<a xlink:href="FluxAPI.Model.html" xlink:title="«abstract»&lt;br/&gt;Model" target="_parent">
<polygon fill="none" stroke="black" points="382,-922.415 298,-922.415 298,-886.415 382,-886.415 382,-922.415"/>
<text text-anchor="start" x="306" y="-909.848" font-family="Courier,monospace" font-size="11.00">«abstract»</text>
<text text-anchor="start" x="323" y="-896.648" font-family="Courier,monospace" font-size="11.00">Model</text>
</a>
</g>
<!-- \\FluxAPI\\Storage -->
<g id="node13" class="node"><title>\\FluxAPI\\Storage</title>
<a xlink:href="FluxAPI.Storage.html" xlink:title="«abstract»&lt;br/&gt;Storage" target="_parent">
<polygon fill="none" stroke="black" points="860,-658.415 776,-658.415 776,-622.415 860,-622.415 860,-658.415"/>
<text text-anchor="start" x="784" y="-645.848" font-family="Courier,monospace" font-size="11.00">«abstract»</text>
<text text-anchor="start" x="794" y="-632.648" font-family="Courier,monospace" font-size="11.00">Storage</text>
</a>
</g>
<!-- \\FluxAPI\\Permission -->
<g id="node14" class="node"><title>\\FluxAPI\\Permission</title>
<a xlink:href="FluxAPI.Permission.html" xlink:title="«abstract»&lt;br/&gt;Permission" target="_parent">
<polygon fill="none" stroke="black" points="860,-604.415 776,-604.415 776,-568.415 860,-568.415 860,-604.415"/>
<text text-anchor="start" x="784" y="-591.848" font-family="Courier,monospace" font-size="11.00">«abstract»</text>
<text text-anchor="start" x="784" y="-578.648" font-family="Courier,monospace" font-size="11.00">Permission</text>
</a>
</g>
<!-- \\FluxAPI\\Plugin -->
<g id="node15" class="node"><title>\\FluxAPI\\Plugin</title>
<a xlink:href="FluxAPI.Plugin.html" xlink:title="«abstract»&lt;br/&gt;Plugin" target="_parent">
<polygon fill="none" stroke="black" points="860,-550.415 776,-550.415 776,-514.415 860,-514.415 860,-550.415"/>
<text text-anchor="start" x="784" y="-537.848" font-family="Courier,monospace" font-size="11.00">«abstract»</text>
<text text-anchor="start" x="797.5" y="-524.648" font-family="Courier,monospace" font-size="11.00">Plugin</text>
</a>
</g>
<!-- \\FluxAPI\\Query -->
<g id="node16" class="node"><title>\\FluxAPI\\Query</title>
<a xlink:href="FluxAPI.Query.html" xlink:title="Query" target="_parent">
<polygon fill="none" stroke="black" points="845,-496.415 791,-496.415 791,-460.415 845,-460.415 845,-496.415"/>
<text text-anchor="middle" x="818" y="-475.515" font-family="Courier,monospace" font-size="11.00">Query</text>
</a>
</g>
<!-- \\FluxAPI\\DynamicModel -->
<g id="node17" class="node"><title>\\FluxAPI\\DynamicModel</title>
<a xlink:href="FluxAPI.DynamicModel.html" xlink:title="DynamicModel" target="_parent">
<polygon fill="none" stroke="black" points="867,-922.415 769,-922.415 769,-886.415 867,-886.415 867,-922.415"/>
<text text-anchor="middle" x="818" y="-901.515" font-family="Courier,monospace" font-size="11.00">DynamicModel</text>
</a>
</g>
<!-- \\FluxAPI\\DynamicModel&#45;&gt;\\FluxAPI\\Model -->
<g id="edge14" class="edge"><title>\\FluxAPI\\DynamicModel&#45;&gt;\\FluxAPI\\Model</title>
<path fill="none" stroke="black" d="M768.646,-904.415C678.06,-904.415 486.031,-904.415 392.882,-904.415"/>
<polygon fill="none" stroke="black" points="392.833,-900.915 382.833,-904.415 392.833,-907.915 392.833,-900.915"/>
</g>
<!-- \\FluxAPI\\Field -->
<g id="node18" class="node"><title>\\FluxAPI\\Field</title>
<a xlink:href="FluxAPI.Field.html" xlink:title="Field" target="_parent">
<polygon fill="none" stroke="black" points="845,-206.415 791,-206.415 791,-170.415 845,-170.415 845,-206.415"/>
<text text-anchor="middle" x="818" y="-185.515" font-family="Courier,monospace" font-size="11.00">Field</text>
</a>
</g>
<!-- \\Plugins\\Core\\Model\\Node -->
<g id="node22" class="node"><title>\\Plugins\\Core\\Model\\Node</title>
<a xlink:href="Plugins.Core.Model.Node.html" xlink:title="Node" target="_parent">
<polygon fill="none" stroke="black" points="1010,-740.415 956,-740.415 956,-704.415 1010,-704.415 1010,-740.415"/>
<text text-anchor="middle" x="983" y="-719.515" font-family="Courier,monospace" font-size="11.00">Node</text>
</a>
</g>
<!-- \\Plugins\\Core\\Model\\Node&#45;&gt;\\FluxAPI\\Model -->
<g id="edge22" class="edge"><title>\\Plugins\\Core\\Model\\Node&#45;&gt;\\FluxAPI\\Model</title>
<path fill="none" stroke="black" d="M982.189,-740.477C979.205,-782.601 965.249,-887.121 900,-931.415 742.249,-1038.5 498.036,-965.9 392.041,-925.897"/>
<polygon fill="none" stroke="black" points="393.115,-922.561 382.525,-922.253 390.611,-929.098 393.115,-922.561"/>
</g>
<!-- \\Plugins\\Core\\Storage\\MySql -->
<g id="node24" class="node"><title>\\Plugins\\Core\\Storage\\MySql</title>
<a xlink:href="Plugins.Core.Storage.MySql.html" xlink:title="MySql" target="_parent">
<polygon fill="none" stroke="black" points="1010,-658.415 956,-658.415 956,-622.415 1010,-622.415 1010,-658.415"/>
<text text-anchor="middle" x="983" y="-637.515" font-family="Courier,monospace" font-size="11.00">MySql</text>
</a>
</g>
<!-- \\Plugins\\Core\\Storage\\MySql&#45;&gt;\\FluxAPI\\Storage -->
<g id="edge20" class="edge"><title>\\Plugins\\Core\\Storage\\MySql&#45;&gt;\\FluxAPI\\Storage</title>
<path fill="none" stroke="black" d="M955.754,-640.415C932.765,-640.415 899.182,-640.415 870.931,-640.415"/>
<polygon fill="none" stroke="black" points="870.793,-636.915 860.793,-640.415 870.793,-643.915 870.793,-636.915"/>
</g>
<!-- \\Plugins\\Core\\Rest -->
<g id="node25" class="node"><title>\\Plugins\\Core\\Rest</title>
<a xlink:href="Plugins.Core.Rest.html" xlink:title="Rest" target="_parent">
<polygon fill="none" stroke="black" points="1010,-604.415 956,-604.415 956,-568.415 1010,-568.415 1010,-604.415"/>
<text text-anchor="middle" x="983" y="-583.515" font-family="Courier,monospace" font-size="11.00">Rest</text>
</a>
</g>
<!-- \\Plugins\\Core\\Core -->
<g id="node26" class="node"><title>\\Plugins\\Core\\Core</title>
<a xlink:href="Plugins.Core.Core.html" xlink:title="Core" target="_parent">
<polygon fill="none" stroke="black" points="1010,-550.415 956,-550.415 956,-514.415 1010,-514.415 1010,-550.415"/>
<text text-anchor="middle" x="983" y="-529.515" font-family="Courier,monospace" font-size="11.00">Core</text>
</a>
</g>
<!-- \\Plugins\\Core\\Core&#45;&gt;\\FluxAPI\\Plugin -->
<g id="edge24" class="edge"><title>\\Plugins\\Core\\Core&#45;&gt;\\FluxAPI\\Plugin</title>
<path fill="none" stroke="black" d="M955.754,-532.415C932.765,-532.415 899.182,-532.415 870.931,-532.415"/>
<polygon fill="none" stroke="black" points="870.793,-528.915 860.793,-532.415 870.793,-535.915 870.793,-528.915"/>
</g>
</g>
</svg>
