<?xml version="1.0" encoding="UTF-8" standalone="no"?>
<!DOCTYPE svg PUBLIC "-//W3C//DTD SVG 1.1//EN"
 "http://www.w3.org/Graphics/SVG/1.1/DTD/svg11.dtd">
<!-- Generated by graphviz version 2.26.3 (20100126.1600)
 -->
<!-- Title: G Pages: 1 -->
<svg width="1110pt" height="1558pt"
 viewBox="0.00 0.00 1110.00 1557.73" xmlns="http://www.w3.org/2000/svg" xmlns:xlink="http://www.w3.org/1999/xlink">
<g id="graph1" class="graph" transform="scale(1 1) rotate(0) translate(4 1553.73)">
<title>G</title>
<polygon fill="white" stroke="white" points="-4,5 -4,-1553.73 1107,-1553.73 1107,5 -4,5"/>
<g id="graph2" class="cluster"><title>cluster_FluxAPI</title>
<polyline fill="none" stroke="gray" points="449,-271.73 1082,-271.73 "/>
<path fill="none" stroke="gray" d="M1082,-271.73C1088,-271.73 1094,-277.73 1094,-283.73"/>
<polyline fill="none" stroke="gray" points="1094,-283.73 1094,-1529.73 "/>
<path fill="none" stroke="gray" d="M1094,-1529.73C1094,-1535.73 1088,-1541.73 1082,-1541.73"/>
<polyline fill="none" stroke="gray" points="1082,-1541.73 449,-1541.73 "/>
<path fill="none" stroke="gray" d="M449,-1541.73C443,-1541.73 437,-1535.73 437,-1529.73"/>
<polyline fill="none" stroke="gray" points="437,-1529.73 437,-283.73 "/>
<path fill="none" stroke="gray" d="M437,-283.73C437,-277.73 443,-271.73 449,-271.73"/>
<text text-anchor="middle" x="765.5" y="-1527.83" font-family="Times Roman,serif" font-size="11.00" fill="gray">FluxAPI</text>
</g>
<g id="graph3" class="cluster"><title>cluster_FluxAPI\Cli</title>
<polyline fill="none" stroke="gray" points="971,-1123.73 1027,-1123.73 "/>
<path fill="none" stroke="gray" d="M1027,-1123.73C1033,-1123.73 1039,-1129.73 1039,-1135.73"/>
<polyline fill="none" stroke="gray" points="1039,-1135.73 1039,-1239.73 "/>
<path fill="none" stroke="gray" d="M1039,-1239.73C1039,-1245.73 1033,-1251.73 1027,-1251.73"/>
<polyline fill="none" stroke="gray" points="1027,-1251.73 971,-1251.73 "/>
<path fill="none" stroke="gray" d="M971,-1251.73C965,-1251.73 959,-1245.73 959,-1239.73"/>
<polyline fill="none" stroke="gray" points="959,-1239.73 959,-1135.73 "/>
<path fill="none" stroke="gray" d="M959,-1135.73C959,-1129.73 965,-1123.73 971,-1123.73"/>
<text text-anchor="middle" x="999" y="-1237.83" font-family="Times Roman,serif" font-size="11.00" fill="gray">Cli</text>
</g>
<g id="graph4" class="cluster"><title>cluster_FluxAPI\Event</title>
<polyline fill="none" stroke="gray" points="961,-1041.73 1037,-1041.73 "/>
<path fill="none" stroke="gray" d="M1037,-1041.73C1043,-1041.73 1049,-1047.73 1049,-1053.73"/>
<polyline fill="none" stroke="gray" points="1049,-1053.73 1049,-1103.73 "/>
<path fill="none" stroke="gray" d="M1049,-1103.73C1049,-1109.73 1043,-1115.73 1037,-1115.73"/>
<polyline fill="none" stroke="gray" points="1037,-1115.73 961,-1115.73 "/>
<path fill="none" stroke="gray" d="M961,-1115.73C955,-1115.73 949,-1109.73 949,-1103.73"/>
<polyline fill="none" stroke="gray" points="949,-1103.73 949,-1053.73 "/>
<path fill="none" stroke="gray" d="M949,-1053.73C949,-1047.73 955,-1041.73 961,-1041.73"/>
<text text-anchor="middle" x="999" y="-1101.83" font-family="Times Roman,serif" font-size="11.00" fill="gray">Event</text>
</g>
<g id="graph5" class="cluster"><title>cluster_FluxAPI\EventListener</title>
<polyline fill="none" stroke="gray" points="951,-913.73 1047,-913.73 "/>
<path fill="none" stroke="gray" d="M1047,-913.73C1053,-913.73 1059,-919.73 1059,-925.73"/>
<polyline fill="none" stroke="gray" points="1059,-925.73 1059,-975.73 "/>
<path fill="none" stroke="gray" d="M1059,-975.73C1059,-981.73 1053,-987.73 1047,-987.73"/>
<polyline fill="none" stroke="gray" points="1047,-987.73 951,-987.73 "/>
<path fill="none" stroke="gray" d="M951,-987.73C945,-987.73 939,-981.73 939,-975.73"/>
<polyline fill="none" stroke="gray" points="939,-975.73 939,-925.73 "/>
<path fill="none" stroke="gray" d="M939,-925.73C939,-919.73 945,-913.73 951,-913.73"/>
<text text-anchor="middle" x="999" y="-973.83" font-family="Times Roman,serif" font-size="11.00" fill="gray">EventListener</text>
</g>
<g id="graph6" class="cluster"><title>cluster_FluxAPI\Exception</title>
<polyline fill="none" stroke="gray" points="924,-731.73 1074,-731.73 "/>
<path fill="none" stroke="gray" d="M1074,-731.73C1080,-731.73 1086,-737.73 1086,-743.73"/>
<polyline fill="none" stroke="gray" points="1086,-743.73 1086,-793.73 "/>
<path fill="none" stroke="gray" d="M1086,-793.73C1086,-799.73 1080,-805.73 1074,-805.73"/>
<polyline fill="none" stroke="gray" points="1074,-805.73 924,-805.73 "/>
<path fill="none" stroke="gray" d="M924,-805.73C918,-805.73 912,-799.73 912,-793.73"/>
<polyline fill="none" stroke="gray" points="912,-793.73 912,-743.73 "/>
<path fill="none" stroke="gray" d="M912,-743.73C912,-737.73 918,-731.73 924,-731.73"/>
<text text-anchor="middle" x="999" y="-791.83" font-family="Times Roman,serif" font-size="11.00" fill="gray">Exception</text>
</g>
<g id="graph7" class="cluster"><title>cluster_FluxAPI\Factory</title>
<polyline fill="none" stroke="gray" points="937,-379.73 1061,-379.73 "/>
<path fill="none" stroke="gray" d="M1061,-379.73C1067,-379.73 1073,-385.73 1073,-391.73"/>
<polyline fill="none" stroke="gray" points="1073,-391.73 1073,-711.73 "/>
<path fill="none" stroke="gray" d="M1073,-711.73C1073,-717.73 1067,-723.73 1061,-723.73"/>
<polyline fill="none" stroke="gray" points="1061,-723.73 937,-723.73 "/>
<path fill="none" stroke="gray" d="M937,-723.73C931,-723.73 925,-717.73 925,-711.73"/>
<polyline fill="none" stroke="gray" points="925,-711.73 925,-391.73 "/>
<path fill="none" stroke="gray" d="M925,-391.73C925,-385.73 931,-379.73 937,-379.73"/>
<text text-anchor="middle" x="999" y="-709.83" font-family="Times Roman,serif" font-size="11.00" fill="gray">Factory</text>
</g>
<!-- \\FluxAPI\\Cli\\Load -->
<g id="node3" class="node"><title>\\FluxAPI\\Cli\\Load</title>
<a xlink:href="Cli.Load.html" xlink:title="Load" target="_parent">
<polygon fill="none" stroke="black" points="1026,-1221.73 972,-1221.73 972,-1185.73 1026,-1185.73 1026,-1221.73"/>
<text text-anchor="middle" x="999" y="-1200.83" font-family="Courier,monospace" font-size="11.00">Load</text>
</a>
</g>
<!-- \\Symfony\\Component\\Console\\Command\\Command -->
<g id="node37" class="node"><title>\\Symfony\\Component\\Console\\Command\\Command</title>
<ellipse fill="none" stroke="black" cx="508" cy="-245.73" rx="261.837" ry="18.3848"/>
<text text-anchor="middle" x="508" y="-242.13" font-family="Times Roman,serif" font-size="14.00" fill="gray">\Symfony\Component\Console\Command\Command</text>
</g>
<!-- \\FluxAPI\\Cli\\Load&#45;&gt;\\Symfony\\Component\\Console\\Command\\Command -->
<g id="edge12" class="edge"><title>\\FluxAPI\\Cli\\Load&#45;&gt;\\Symfony\\Component\\Console\\Command\\Command</title>
<path fill="none" stroke="black" d="M971.735,-1203C951.903,-1200.89 926.143,-1194.58 912,-1176.73 786.237,-1018.02 991.595,-410.512 848,-267.73 833.898,-253.708 803.747,-245.534 766.951,-241.104"/>
<polygon fill="none" stroke="black" points="767.257,-237.616 756.934,-240.004 766.493,-244.574 767.257,-237.616"/>
</g>
<!-- \\FluxAPI\\Cli\\Migrate -->
<g id="node4" class="node"><title>\\FluxAPI\\Cli\\Migrate</title>
<a xlink:href="Cli.Migrate.html" xlink:title="Migrate" target="_parent">
<polygon fill="none" stroke="black" points="1031,-1167.73 967,-1167.73 967,-1131.73 1031,-1131.73 1031,-1167.73"/>
<text text-anchor="middle" x="999" y="-1146.83" font-family="Courier,monospace" font-size="11.00">Migrate</text>
</a>
</g>
<!-- \\FluxAPI\\Cli\\Migrate&#45;&gt;\\Symfony\\Component\\Console\\Command\\Command -->
<g id="edge14" class="edge"><title>\\FluxAPI\\Cli\\Migrate&#45;&gt;\\Symfony\\Component\\Console\\Command\\Command</title>
<path fill="none" stroke="black" d="M966.603,-1147.19C947.606,-1143.89 924.878,-1136.43 912,-1119.73 796.062,-969.372 982.95,-401.289 848,-267.73 834.021,-253.896 804.364,-245.764 768.115,-241.306"/>
<polygon fill="none" stroke="black" points="768.051,-237.777 757.724,-240.144 767.274,-244.733 768.051,-237.777"/>
</g>
<!-- \\FluxAPI\\Event\\ModelEvent -->
<g id="node6" class="node"><title>\\FluxAPI\\Event\\ModelEvent</title>
<a xlink:href="Event.ModelEvent.html" xlink:title="ModelEvent" target="_parent">
<polygon fill="none" stroke="black" points="1041,-1085.73 957,-1085.73 957,-1049.73 1041,-1049.73 1041,-1085.73"/>
<text text-anchor="middle" x="999" y="-1064.83" font-family="Courier,monospace" font-size="11.00">ModelEvent</text>
</a>
</g>
<!-- \\Symfony\\Component\\EventDispatcher\\Event -->
<g id="node43" class="node"><title>\\Symfony\\Component\\EventDispatcher\\Event</title>
<ellipse fill="none" stroke="black" cx="508" cy="-191.73" rx="232.138" ry="18.3848"/>
<text text-anchor="middle" x="508" y="-188.13" font-family="Times Roman,serif" font-size="14.00" fill="gray">\Symfony\Component\EventDispatcher\Event</text>
</g>
<!-- \\FluxAPI\\Event\\ModelEvent&#45;&gt;\\Symfony\\Component\\EventDispatcher\\Event -->
<g id="edge22" class="edge"><title>\\FluxAPI\\Event\\ModelEvent&#45;&gt;\\Symfony\\Component\\EventDispatcher\\Event</title>
<path fill="none" stroke="black" d="M956.709,-1067.14C940.339,-1064.63 922.942,-1058.72 912,-1045.73 793.228,-904.77 978.208,-349.2 848,-218.73 831.208,-201.905 791.506,-192.977 744.915,-188.649"/>
<polygon fill="none" stroke="black" points="745.135,-185.155 734.874,-187.794 744.541,-192.13 745.135,-185.155"/>
</g>
<!-- \\FluxAPI\\EventListener\\ModelListener -->
<g id="node8" class="node"><title>\\FluxAPI\\EventListener\\ModelListener</title>
<a xlink:href="EventListener.ModelListener.html" xlink:title="ModelListener" target="_parent">
<polygon fill="none" stroke="black" points="1051,-957.73 947,-957.73 947,-921.73 1051,-921.73 1051,-957.73"/>
<text text-anchor="middle" x="999" y="-936.83" font-family="Courier,monospace" font-size="11.00">ModelListener</text>
</a>
</g>
<!-- \\Symfony\\Component\\EventDispatcher\\EventSubscriberInterface -->
<g id="node49" class="node"><title>\\Symfony\\Component\\EventDispatcher\\EventSubscriberInterface</title>
<ellipse fill="none" stroke="black" cx="508" cy="-137.73" rx="340.118" ry="18.3848"/>
<text text-anchor="middle" x="508" y="-134.13" font-family="Times Roman,serif" font-size="14.00" fill="gray">\\Symfony\\Component\\EventDispatcher\\EventSubscriberInterface</text>
</g>
<!-- \\FluxAPI\\EventListener\\ModelListener&#45;&gt;\\Symfony\\Component\\EventDispatcher\\EventSubscriberInterface -->
<g id="edge30" class="edge"><title>\\FluxAPI\\EventListener\\ModelListener&#45;&gt;\\Symfony\\Component\\EventDispatcher\\EventSubscriberInterface</title>
<path fill="none" stroke="black" stroke-dasharray="1,5" d="M946.784,-937.134C933.631,-933.913 920.773,-928.062 912,-917.73 803.305,-789.714 967.078,-283.15 848,-164.73 841.685,-158.45 832.159,-153.273 820.264,-149.026"/>
<polygon fill="none" stroke="black" points="821.312,-145.687 810.721,-145.958 819.169,-152.351 821.312,-145.687"/>
</g>
<!-- \\FluxAPI\\Exception\\AccessDeniedException -->
<g id="node10" class="node"><title>\\FluxAPI\\Exception\\AccessDeniedException</title>
<a xlink:href="Exception.AccessDeniedException.html" xlink:title="AccessDeniedException" target="_parent">
<polygon fill="none" stroke="black" points="1078,-775.73 920,-775.73 920,-739.73 1078,-739.73 1078,-775.73"/>
<text text-anchor="middle" x="999" y="-754.83" font-family="Courier,monospace" font-size="11.00">AccessDeniedException</text>
</a>
</g>
<!-- \\Exception -->
<g id="node45" class="node"><title>\\Exception</title>
<ellipse fill="none" stroke="black" cx="508" cy="-83.7302" rx="62.9325" ry="18.3848"/>
<text text-anchor="middle" x="508" y="-80.1302" font-family="Times Roman,serif" font-size="14.00" fill="gray">\Exception</text>
</g>
<!-- \\FluxAPI\\Exception\\AccessDeniedException&#45;&gt;\\Exception -->
<g id="edge24" class="edge"><title>\\FluxAPI\\Exception\\AccessDeniedException&#45;&gt;\\Exception</title>
<path fill="none" stroke="black" d="M924.997,-739.593C920.106,-736.278 915.676,-732.36 912,-727.73 826.286,-619.773 946.64,-207.02 848,-110.73 772.879,-37.3985 638.739,-52.6875 563.354,-69.0212"/>
<polygon fill="none" stroke="black" points="562.557,-65.6131 553.567,-71.2196 564.091,-72.4429 562.557,-65.6131"/>
</g>
<!-- \\FluxAPI\\Factory\\ModelFactory -->
<g id="node12" class="node"><title>\\FluxAPI\\Factory\\ModelFactory</title>
<a xlink:href="Factory.ModelFactory.html" xlink:title="ModelFactory" target="_parent">
<polygon fill="none" stroke="black" points="1048,-693.73 950,-693.73 950,-657.73 1048,-657.73 1048,-693.73"/>
<text text-anchor="middle" x="999" y="-672.83" font-family="Courier,monospace" font-size="11.00">ModelFactory</text>
</a>
</g>
<!-- \\Pimple -->
<g id="node34" class="node"><title>\\Pimple</title>
<ellipse fill="none" stroke="black" cx="48" cy="-765.73" rx="46.8775" ry="18.3848"/>
<text text-anchor="middle" x="48" y="-762.13" font-family="Times Roman,serif" font-size="14.00" fill="gray">\Pimple</text>
</g>
<!-- \\FluxAPI\\Factory\\ModelFactory&#45;&gt;\\Pimple -->
<g id="edge18" class="edge"><title>\\FluxAPI\\Factory\\ModelFactory&#45;&gt;\\Pimple</title>
<path fill="none" stroke="black" d="M949.927,-670.765C935.689,-666.896 921.449,-660.207 912,-648.73 827.896,-546.575 943.961,-147.838 848,-56.7302 738.243,47.4773 658.515,-21.8827 508,-37.7302"/>
</g>
<!-- \\FluxAPI\\Factory\\MethodFactory -->
<g id="node13" class="node"><title>\\FluxAPI\\Factory\\MethodFactory</title>
<a xlink:href="Factory.MethodFactory.html" xlink:title="MethodFactory" target="_parent">
<polygon fill="none" stroke="black" points="1051,-639.73 947,-639.73 947,-603.73 1051,-603.73 1051,-639.73"/>
<text text-anchor="middle" x="999" y="-618.83" font-family="Courier,monospace" font-size="11.00">MethodFactory</text>
</a>
</g>
<!-- \\FluxAPI\\Factory\\PluginFactory -->
<g id="node14" class="node"><title>\\FluxAPI\\Factory\\PluginFactory</title>
<a xlink:href="Factory.PluginFactory.html" xlink:title="PluginFactory" target="_parent">
<polygon fill="none" stroke="black" points="1051,-585.73 947,-585.73 947,-549.73 1051,-549.73 1051,-585.73"/>
<text text-anchor="middle" x="999" y="-564.83" font-family="Courier,monospace" font-size="11.00">PluginFactory</text>
</a>
</g>
<!-- \\FluxAPI\\Factory\\PermissionFactory -->
<g id="node15" class="node"><title>\\FluxAPI\\Factory\\PermissionFactory</title>
<a xlink:href="Factory.PermissionFactory.html" xlink:title="PermissionFactory" target="_parent">
<polygon fill="none" stroke="black" points="1064,-531.73 934,-531.73 934,-495.73 1064,-495.73 1064,-531.73"/>
<text text-anchor="middle" x="999" y="-510.83" font-family="Courier,monospace" font-size="11.00">PermissionFactory</text>
</a>
</g>
<!-- \\FluxAPI\\Factory\\ControllerFactory -->
<g id="node16" class="node"><title>\\FluxAPI\\Factory\\ControllerFactory</title>
<a xlink:href="Factory.ControllerFactory.html" xlink:title="ControllerFactory" target="_parent">
<polygon fill="none" stroke="black" points="1064,-477.73 934,-477.73 934,-441.73 1064,-441.73 1064,-477.73"/>
<text text-anchor="middle" x="999" y="-456.83" font-family="Courier,monospace" font-size="11.00">ControllerFactory</text>
</a>
</g>
<!-- \\FluxAPI\\Factory\\StorageFactory -->
<g id="node17" class="node"><title>\\FluxAPI\\Factory\\StorageFactory</title>
<a xlink:href="Factory.StorageFactory.html" xlink:title="StorageFactory" target="_parent">
<polygon fill="none" stroke="black" points="1054,-423.73 944,-423.73 944,-387.73 1054,-387.73 1054,-423.73"/>
<text text-anchor="middle" x="999" y="-402.83" font-family="Courier,monospace" font-size="11.00">StorageFactory</text>
</a>
</g>
<!-- \\FluxAPI\\Factory\\StorageFactory&#45;&gt;\\Pimple -->
<g id="edge20" class="edge"><title>\\FluxAPI\\Factory\\StorageFactory&#45;&gt;\\Pimple</title>
<path fill="none" stroke="black" d="M943.427,-401.41C931.697,-398.043 920.356,-392.554 912,-383.73 810.171,-276.205 959.66,-154.008 848,-56.7302 733.885,42.6865 658.515,-21.8827 508,-37.7302"/>
<path fill="none" stroke="black" d="M508,-37.7302C357.485,-53.5776 280.832,44.1397 168,-56.7302 64.4335,-149.316 50.2458,-616.758 48.3063,-737.325"/>
<polygon fill="none" stroke="black" points="44.8031,-737.531 48.1581,-747.58 51.8023,-737.632 44.8031,-737.531"/>
</g>
<!-- \\FluxAPI\\Api -->
<g id="node18" class="node"><title>\\FluxAPI\\Api</title>
<a xlink:href="Api.html" xlink:title="Api" target="_parent">
<polygon fill="none" stroke="black" points="535,-1511.73 481,-1511.73 481,-1475.73 535,-1475.73 535,-1511.73"/>
<text text-anchor="middle" x="508" y="-1490.83" font-family="Courier,monospace" font-size="11.00">Api</text>
</a>
</g>
<!-- \\FluxAPI\\Api&#45;&gt;\\Pimple -->
<g id="edge8" class="edge"><title>\\FluxAPI\\Api&#45;&gt;\\Pimple</title>
<path fill="none" stroke="black" d="M480.786,-1501.4C416.946,-1517.58 256.309,-1547.4 168,-1466.73 66.6722,-1374.16 50.8363,-913.732 48.4231,-794.147"/>
<polygon fill="none" stroke="black" points="51.9192,-793.899 48.2342,-783.966 44.9204,-794.029 51.9192,-793.899"/>
</g>
<!-- \\FluxAPI\\FormatInterface -->
<g id="node19" class="node"><title>\\FluxAPI\\FormatInterface</title>
<a xlink:href="FormatInterface.html" xlink:title="FormatInterface" target="_parent">
<polygon fill="none" stroke="black" points="567,-1295.73 449,-1295.73 449,-1259.73 567,-1259.73 567,-1295.73"/>
<text text-anchor="middle" x="508" y="-1274.83" font-family="Courier,monospace" font-size="11.00">FormatInterface</text>
</a>
</g>
<!-- \\FluxAPI\\CliApi -->
<g id="node20" class="node"><title>\\FluxAPI\\CliApi</title>
<a xlink:href="CliApi.html" xlink:title="CliApi" target="_parent">
<polygon fill="none" stroke="black" points="1027,-1511.73 971,-1511.73 971,-1475.73 1027,-1475.73 1027,-1511.73"/>
<text text-anchor="middle" x="999" y="-1490.83" font-family="Courier,monospace" font-size="11.00">CliApi</text>
</a>
</g>
<!-- \\FluxAPI\\CliApi&#45;&gt;\\FluxAPI\\Api -->
<g id="edge10" class="edge"><title>\\FluxAPI\\CliApi&#45;&gt;\\FluxAPI\\Api</title>
<path fill="none" stroke="black" d="M970.479,-1493.73C886.427,-1493.73 639.671,-1493.73 545.295,-1493.73"/>
<polygon fill="none" stroke="black" points="545.081,-1490.23 535.081,-1493.73 545.08,-1497.23 545.081,-1490.23"/>
</g>
<!-- \\FluxAPI\\Model -->
<g id="node21" class="node"><title>\\FluxAPI\\Model</title>
<a xlink:href="Model.html" xlink:title="«abstract»&lt;br/&gt;Model" target="_parent">
<polygon fill="none" stroke="black" points="550,-1349.73 466,-1349.73 466,-1313.73 550,-1313.73 550,-1349.73"/>
<text text-anchor="start" x="474" y="-1337.16" font-family="Courier,monospace" font-size="11.00">«abstract»</text>
<text text-anchor="start" x="491" y="-1323.96" font-family="Courier,monospace" font-size="11.00">Model</text>
</a>
</g>
<!-- \\FluxAPI\\StorageInterface -->
<g id="node22" class="node"><title>\\FluxAPI\\StorageInterface</title>
<a xlink:href="StorageInterface.html" xlink:title="StorageInterface" target="_parent">
<polygon fill="none" stroke="black" points="570,-1457.73 446,-1457.73 446,-1421.73 570,-1421.73 570,-1457.73"/>
<text text-anchor="middle" x="508" y="-1436.83" font-family="Courier,monospace" font-size="11.00">StorageInterface</text>
</a>
</g>
<!-- \\FluxAPI\\Storage -->
<g id="node23" class="node"><title>\\FluxAPI\\Storage</title>
<a xlink:href="Storage.html" xlink:title="«abstract»&lt;br/&gt;Storage" target="_parent">
<polygon fill="none" stroke="black" points="1041,-1457.73 957,-1457.73 957,-1421.73 1041,-1421.73 1041,-1457.73"/>
<text text-anchor="start" x="965" y="-1445.16" font-family="Courier,monospace" font-size="11.00">«abstract»</text>
<text text-anchor="start" x="975" y="-1431.96" font-family="Courier,monospace" font-size="11.00">Storage</text>
</a>
</g>
<!-- \\FluxAPI\\Storage&#45;&gt;\\FluxAPI\\StorageInterface -->
<g id="edge26" class="edge"><title>\\FluxAPI\\Storage&#45;&gt;\\FluxAPI\\StorageInterface</title>
<path fill="none" stroke="black" stroke-dasharray="1,5" d="M956.286,-1439.73C872.29,-1439.73 684.777,-1439.73 580.852,-1439.73"/>
<polygon fill="none" stroke="black" points="580.755,-1436.23 570.754,-1439.73 580.754,-1443.23 580.755,-1436.23"/>
</g>
<!-- \\FluxAPI\\Permission -->
<g id="node24" class="node"><title>\\FluxAPI\\Permission</title>
<a xlink:href="Permission.html" xlink:title="«abstract»&lt;br/&gt;Permission" target="_parent">
<polygon fill="none" stroke="black" points="1041,-1031.73 957,-1031.73 957,-995.73 1041,-995.73 1041,-1031.73"/>
<text text-anchor="start" x="965" y="-1019.16" font-family="Courier,monospace" font-size="11.00">«abstract»</text>
<text text-anchor="start" x="965" y="-1005.96" font-family="Courier,monospace" font-size="11.00">Permission</text>
</a>
</g>
<!-- \\FluxAPI\\PluginInterface -->
<g id="node25" class="node"><title>\\FluxAPI\\PluginInterface</title>
<a xlink:href="PluginInterface.html" xlink:title="PluginInterface" target="_parent">
<polygon fill="none" stroke="black" points="567,-1403.73 449,-1403.73 449,-1367.73 567,-1367.73 567,-1403.73"/>
<text text-anchor="middle" x="508" y="-1382.83" font-family="Courier,monospace" font-size="11.00">PluginInterface</text>
</a>
</g>
<!-- \\FluxAPI\\Plugin -->
<g id="node26" class="node"><title>\\FluxAPI\\Plugin</title>
<a xlink:href="Plugin.html" xlink:title="«abstract»&lt;br/&gt;Plugin" target="_parent">
<polygon fill="none" stroke="black" points="1041,-1403.73 957,-1403.73 957,-1367.73 1041,-1367.73 1041,-1403.73"/>
<text text-anchor="start" x="965" y="-1391.16" font-family="Courier,monospace" font-size="11.00">«abstract»</text>
<text text-anchor="start" x="978.5" y="-1377.96" font-family="Courier,monospace" font-size="11.00">Plugin</text>
</a>
</g>
<!-- \\FluxAPI\\Plugin&#45;&gt;\\FluxAPI\\PluginInterface -->
<g id="edge28" class="edge"><title>\\FluxAPI\\Plugin&#45;&gt;\\FluxAPI\\PluginInterface</title>
<path fill="none" stroke="black" stroke-dasharray="1,5" d="M956.286,-1385.73C871.274,-1385.73 680.225,-1385.73 577.117,-1385.73"/>
<polygon fill="none" stroke="black" points="577.116,-1382.23 567.116,-1385.73 577.116,-1389.23 577.116,-1382.23"/>
</g>
<!-- \\FluxAPI\\UUID -->
<g id="node27" class="node"><title>\\FluxAPI\\UUID</title>
<a xlink:href="UUID.html" xlink:title="UUID" target="_parent">
<polygon fill="none" stroke="black" points="1026,-903.73 972,-903.73 972,-867.73 1026,-867.73 1026,-903.73"/>
<text text-anchor="middle" x="999" y="-882.83" font-family="Courier,monospace" font-size="11.00">UUID</text>
</a>
</g>
<!-- \\FluxAPI\\Query -->
<g id="node28" class="node"><title>\\FluxAPI\\Query</title>
<a xlink:href="Query.html" xlink:title="Query" target="_parent">
<polygon fill="none" stroke="black" points="1026,-849.73 972,-849.73 972,-813.73 1026,-813.73 1026,-849.73"/>
<text text-anchor="middle" x="999" y="-828.83" font-family="Courier,monospace" font-size="11.00">Query</text>
</a>
</g>
<!-- \\FluxAPI\\DynamicModel -->
<g id="node29" class="node"><title>\\FluxAPI\\DynamicModel</title>
<a xlink:href="DynamicModel.html" xlink:title="DynamicModel" target="_parent">
<polygon fill="none" stroke="black" points="1048,-1349.73 950,-1349.73 950,-1313.73 1048,-1313.73 1048,-1349.73"/>
<text text-anchor="middle" x="999" y="-1328.83" font-family="Courier,monospace" font-size="11.00">DynamicModel</text>
</a>
</g>
<!-- \\FluxAPI\\DynamicModel&#45;&gt;\\FluxAPI\\Model -->
<g id="edge16" class="edge"><title>\\FluxAPI\\DynamicModel&#45;&gt;\\FluxAPI\\Model</title>
<path fill="none" stroke="black" d="M949.673,-1331.73C856.64,-1331.73 656.051,-1331.73 560.575,-1331.73"/>
<polygon fill="none" stroke="black" points="560.568,-1328.23 550.568,-1331.73 560.568,-1335.23 560.568,-1328.23"/>
</g>
<!-- \\FluxAPI\\Format -->
<g id="node30" class="node"><title>\\FluxAPI\\Format</title>
<a xlink:href="Format.html" xlink:title="«abstract»&lt;br/&gt;Format" target="_parent">
<polygon fill="none" stroke="black" points="1041,-1295.73 957,-1295.73 957,-1259.73 1041,-1259.73 1041,-1295.73"/>
<text text-anchor="start" x="965" y="-1283.16" font-family="Courier,monospace" font-size="11.00">«abstract»</text>
<text text-anchor="start" x="978.5" y="-1269.96" font-family="Courier,monospace" font-size="11.00">Format</text>
</a>
</g>
<!-- \\FluxAPI\\Format&#45;&gt;\\FluxAPI\\FormatInterface -->
<g id="edge32" class="edge"><title>\\FluxAPI\\Format&#45;&gt;\\FluxAPI\\FormatInterface</title>
<path fill="none" stroke="black" stroke-dasharray="1,5" d="M956.286,-1277.73C871.274,-1277.73 680.225,-1277.73 577.117,-1277.73"/>
<polygon fill="none" stroke="black" points="577.116,-1274.23 567.116,-1277.73 577.116,-1281.23 577.116,-1274.23"/>
</g>
<!-- \\FluxAPI\\Field -->
<g id="node31" class="node"><title>\\FluxAPI\\Field</title>
<a xlink:href="Field.html" xlink:title="Field" target="_parent">
<polygon fill="none" stroke="black" points="1026,-369.73 972,-369.73 972,-333.73 1026,-333.73 1026,-369.73"/>
<text text-anchor="middle" x="999" y="-348.83" font-family="Courier,monospace" font-size="11.00">Field</text>
</a>
</g>
<!-- \\FluxAPI\\Utils -->
<g id="node32" class="node"><title>\\FluxAPI\\Utils</title>
<a xlink:href="Utils.html" xlink:title="Utils" target="_parent">
<polygon fill="none" stroke="black" points="1026,-315.73 972,-315.73 972,-279.73 1026,-279.73 1026,-315.73"/>
<text text-anchor="middle" x="999" y="-294.83" font-family="Courier,monospace" font-size="11.00">Utils</text>
</a>
</g>
</g>
</svg>
